spectral-xlight.ufo
<glyph name="exclam" format="1">
  <advance width="250"/>
  <unicode hex="0021"/>
  <outline>
    <contour>
      <point x="114" y="200" type="line"/>
      <point x="136" y="200" type="line"/>
      <point x="160" y="660" type="line"/>
      <point x="90" y="660" type="line"/>
    </contour>
    <contour>
      <point x="125" y="-5" type="curve" smooth="yes"/>
      <point x="150" y="-5"/>
      <point x="170" y="18"/>
      <point x="170" y="41" type="curve" smooth="yes"/>
      <point x="170" y="65"/>
      <point x="150" y="87"/>
      <point x="125" y="87" type="curve" smooth="yes"/>
      <point x="100" y="87"/>
      <point x="80" y="65"/>
      <point x="80" y="41" type="curve" smooth="yes"/>
      <point x="80" y="18"/>
      <point x="100" y="-5"/>
    </contour>
  </outline>
</glyph>
<glyph name="numbersign" format="1">
  <advance width="500"/>
  <unicode hex="0023"/>
  <outline>
    <contour>
      <point x="47" y="0" type="line"/>
      <point x="83" y="0" type="line"/>
      <point x="275" y="660" type="line"/>
      <point x="239" y="660" type="line"/>
    </contour>
    <contour>
      <point x="227" y="0" type="line"/>
      <point x="263" y="0" type="line"/>
      <point x="455" y="660" type="line"/>
      <point x="419" y="660" type="line"/>
    </contour>
    <contour>
      <point x="68" y="417" type="line"/>
      <point x="494" y="417" type="line"/>
      <point x="494" y="450" type="line"/>
      <point x="68" y="450" type="line"/>
    </contour>
    <contour>
      <point x="6" y="203" type="line"/>
      <point x="432" y="203" type="line"/>
      <point x="432" y="236" type="line"/>
      <point x="6" y="236" type="line"/>
    </contour>
  </outline>
</glyph>
<glyph name="dollar" format="2">
  <advance width="500"/>
  <unicode hex="0024"/>
  <outline>
    <contour>
      <point x="188" y="-80" type="line"/>
      <point x="224" y="-80" type="line"/>
      <point x="224" y="740" type="line"/>
      <point x="188" y="740" type="line"/>
    </contour>
    <contour>
      <point x="286" y="-80" type="line"/>
      <point x="322" y="-80" type="line"/>
      <point x="322" y="740" type="line"/>
      <point x="286" y="740" type="line"/>
    </contour>
    <contour>
      <point x="250" y="-10" type="curve" smooth="yes"/>
      <point x="360" y="-10"/>
      <point x="440" y="60"/>
      <point x="440" y="162" type="curve" smooth="yes"/>
      <point x="440" y="243"/>
      <point x="407" y="297"/>
      <point x="274" y="357" type="curve" smooth="yes"/>
      <point x="141" y="417"/>
      <point x="123" y="451"/>
      <point x="123" y="518" type="curve" smooth="yes"/>
      <point x="123" y="586"/>
      <point x="172" y="639"/>
      <point x="259" y="639" type="curve" smooth="yes"/>
      <point x="329" y="639"/>
      <point x="369" y="614"/>
      <point x="396" y="572" type="curve"/>
      <point x="381" y="617" type="line"/>
      <point x="381" y="506" type="line"/>
      <point x="409" y="506" type="line" smooth="yes"/>
      <point x="433" y="506"/>
      <point x="439" y="515"/>
      <point x="439" y="539" type="curve" smooth="yes"/>
      <point x="439" y="601"/>
      <point x="367" y="670"/>
      <point x="265" y="670" type="curve" smooth="yes"/>
      <point x="161" y="670"/>
      <point x="74" y="597"/>
      <point x="74" y="499" type="curve" smooth="yes"/>
      <point x="74" y="421"/>
      <point x="106" y="373"/>
      <point x="232" y="318" type="curve" smooth="yes"/>
      <point x="358" y="263"/>
      <point x="387" y="222"/>
      <point x="387" y="156" type="curve" smooth="yes"/>
      <point x="387" y="70"/>
      <point x="341" y="21"/>
      <point x="253" y="21" type="curve" smooth="yes"/>
      <point x="188" y="21"/>
      <point x="141" y="38"/>
      <point x="110" y="83" type="curve"/>
      <point x="121" y="63" type="line"/>
      <point x="121" y="166" type="line"/>
      <point x="92" y="166" type="line" smooth="yes"/>
      <point x="79" y="166"/>
      <point x="60" y="161"/>
      <point x="60" y="134" type="curve" smooth="yes"/>
      <point x="60" y="64"/>
      <point x="136" y="-10"/>
    </contour>
  </outline>
</glyph>
<glyph name="ampersand" format="1">
  <advance width="719.0"/>
  <unicode hex="0026"/>
  <outline>
    <contour>
      <point x="552" y="0" type="line"/>
      <point x="664" y="0" type="line"/>
      <point x="664" y="25" type="line"/>
      <point x="590" y="43" type="line"/>
      <point x="286" y="346" type="line" smooth="yes"/>
      <point x="209" y="423"/>
      <point x="168" y="456"/>
      <point x="168" y="530" type="curve" smooth="yes"/>
      <point x="168" y="589"/>
      <point x="208" y="638"/>
      <point x="276" y="638" type="curve" smooth="yes"/>
      <point x="339" y="638"/>
      <point x="371" y="591"/>
      <point x="371" y="538" type="curve" smooth="yes"/>
      <point x="371" y="474"/>
      <point x="323" y="432"/>
      <point x="243" y="379" type="curve"/>
      <point x="251" y="356" type="line"/>
      <point x="361" y="418"/>
      <point x="424" y="469"/>
      <point x="424" y="545" type="curve" smooth="yes"/>
      <point x="424" y="614"/>
      <point x="373" y="670"/>
      <point x="284" y="670" type="curve" smooth="yes"/>
      <point x="183" y="670"/>
      <point x="117" y="587"/>
      <point x="117" y="514" type="curve" smooth="yes"/>
      <point x="117" y="406"/>
      <point x="208" y="348"/>
      <point x="293" y="262" type="curve" smooth="yes"/>
    </contour>
    <contour>
      <point x="240" y="-10" type="curve" smooth="yes"/>
      <point x="423" y="-10"/>
      <point x="519" y="171"/>
      <point x="620" y="422" type="curve"/>
      <point x="590" y="406" type="line"/>
      <point x="699" y="435" type="line"/>
      <point x="699" y="460" type="line"/>
      <point x="474" y="460" type="line"/>
      <point x="474" y="435" type="line"/>
      <point x="572" y="414" type="line"/>
      <point x="496" y="187"/>
      <point x="406" y="31"/>
      <point x="266" y="31" type="curve" smooth="yes"/>
      <point x="166" y="31"/>
      <point x="114" y="87"/>
      <point x="114" y="177" type="curve" smooth="yes"/>
      <point x="114" y="246"/>
      <point x="144" y="293"/>
      <point x="221" y="344" type="curve"/>
      <point x="204" y="363" type="line"/>
      <point x="93" y="294"/>
      <point x="60" y="225"/>
      <point x="60" y="159" type="curve" smooth="yes"/>
      <point x="60" y="62"/>
      <point x="131" y="-10"/>
    </contour>
  </outline>
</glyph>
<glyph name="quotesingle" format="1">
  <advance width="190"/>
  <unicode hex="0027"/>
  <outline>
    <contour>
      <point x="85" y="490" type="line"/>
      <point x="105" y="490" type="line"/>
      <point x="127" y="740" type="line"/>
      <point x="63" y="740" type="line"/>
    </contour>
  </outline>
</glyph>
<glyph name="parenleft" format="1">
  <advance width="230"/>
  <unicode hex="0028"/>
  <outline>
    <contour>
      <point x="209" y="-150" type="curve"/>
      <point x="222" y="-150" type="line"/>
      <point x="222" y="-147" type="line"/>
      <point x="141" y="-15"/>
      <point x="95" y="112"/>
      <point x="95" y="295" type="curve" smooth="yes"/>
      <point x="95" y="478"/>
      <point x="141" y="607"/>
      <point x="222" y="737" type="curve"/>
      <point x="222" y="740" type="line"/>
      <point x="209" y="740" type="line"/>
      <point x="109" y="615"/>
      <point x="60" y="460"/>
      <point x="60" y="295" type="curve" smooth="yes"/>
      <point x="60" y="130"/>
      <point x="109" y="-25"/>
    </contour>
  </outline>
</glyph>
<glyph name="parenright" format="1">
  <advance width="230"/>
  <unicode hex="0029"/>
  <outline>
    <contour>
      <point x="8" y="-150" type="line"/>
      <point x="21" y="-150" type="line"/>
      <point x="121" y="-25"/>
      <point x="170" y="130"/>
      <point x="170" y="295" type="curve" smooth="yes"/>
      <point x="170" y="460"/>
      <point x="121" y="615"/>
      <point x="21" y="740" type="curve"/>
      <point x="8" y="740" type="line"/>
      <point x="8" y="737" type="line"/>
      <point x="89" y="605"/>
      <point x="135" y="478"/>
      <point x="135" y="295" type="curve" smooth="yes"/>
      <point x="135" y="112"/>
      <point x="89" y="-17"/>
      <point x="8" y="-147" type="curve"/>
    </contour>
  </outline>
</glyph>
<glyph name="asterisk" format="2">
  <advance width="350"/>
  <unicode hex="002A"/>
  <outline>
    <contour>
      <point x="18" y="612" type="curve"/>
      <point x="162" y="576" type="line"/>
      <point x="65" y="462" type="line"/>
      <point x="72" y="450"/>
      <point x="82" y="443"/>
      <point x="95" y="439" type="curve"/>
      <point x="175" y="565" type="line"/>
      <point x="255" y="439" type="line"/>
      <point x="268" y="443"/>
      <point x="278" y="450"/>
      <point x="285" y="462" type="curve"/>
      <point x="188" y="576" type="line"/>
      <point x="332" y="612" type="line"/>
      <point x="333" y="625"/>
      <point x="328" y="637"/>
      <point x="320" y="647" type="curve"/>
      <point x="183" y="591" type="line"/>
      <point x="195" y="740" type="line"/>
      <point x="182" y="745"/>
      <point x="168" y="745"/>
      <point x="155" y="740" type="curve"/>
      <point x="167" y="591" type="line"/>
      <point x="30" y="647" type="line"/>
      <point x="22" y="637"/>
      <point x="17" y="625"/>
    </contour>
  </outline>
</glyph>
<glyph name="plus" format="1">
  <advance width="500"/>
  <unicode hex="002B"/>
  <outline>
    <contour>
      <point x="40" y="258" type="line"/>
      <point x="460" y="258" type="line"/>
      <point x="460" y="286" type="line"/>
      <point x="40" y="286" type="line"/>
    </contour>
    <contour>
      <point x="235" y="62" type="line"/>
      <point x="265" y="62" type="line"/>
      <point x="265" y="482" type="line"/>
      <point x="235" y="482" type="line"/>
    </contour>
  </outline>
</glyph>
<glyph name="comma" format="2">
  <advance width="226"/>
  <unicode hex="002C"/>
  <outline>
    <contour>
      <point x="-3" y="-196" type="line"/>
      <point x="11" y="-196" type="line"/>
      <point x="143" y="56" type="line"/>
      <point x="143" y="71" type="line"/>
      <point x="79" y="71" type="line"/>
    </contour>
  </outline>
</glyph>
<glyph name="hyphen" format="1">
  <advance width="375"/>
  <unicode hex="002D"/>
  <outline>
    <contour>
      <point x="50" y="237" type="line"/>
      <point x="325" y="237" type="line"/>
      <point x="325" y="277" type="line"/>
      <point x="50" y="277" type="line"/>
    </contour>
  </outline>
</glyph>
<glyph name="period" format="1">
  <advance width="218"/>
  <unicode hex="002E"/>
  <outline>
    <contour>
      <point x="109" y="-4" type="curve" smooth="yes"/>
      <point x="134" y="-4"/>
      <point x="154" y="17"/>
      <point x="154" y="41" type="curve" smooth="yes"/>
      <point x="154" y="65"/>
      <point x="134" y="86"/>
      <point x="109" y="86" type="curve" smooth="yes"/>
      <point x="84" y="86"/>
      <point x="64" y="65"/>
      <point x="64" y="41" type="curve" smooth="yes"/>
      <point x="64" y="17"/>
      <point x="84" y="-4"/>
    </contour>
  </outline>
</glyph>
<glyph name="slash" format="1">
  <advance width="230"/>
  <unicode hex="002F"/>
  <outline>
    <contour>
      <point x="0" y="-120" type="line"/>
      <point x="30" y="-120" type="line"/>
      <point x="230" y="750" type="line"/>
      <point x="200" y="750" type="line"/>
    </contour>
  </outline>
</glyph>
<glyph name="zero" format="1">
  <advance width="500"/>
  <unicode hex="0030"/>
  <outline>
    <contour>
      <point x="250" y="-10" type="curve" smooth="yes"/>
      <point x="370" y="-10"/>
      <point x="452" y="143"/>
      <point x="452" y="328" type="curve" smooth="yes"/>
      <point x="452" y="531"/>
      <point x="380" y="670"/>
      <point x="249" y="670" type="curve" smooth="yes"/>
      <point x="130" y="670"/>
      <point x="47" y="519"/>
      <point x="47" y="332" type="curve" smooth="yes"/>
      <point x="47" y="131"/>
      <point x="120" y="-10"/>
    </contour>
    <contour>
      <point x="260" y="27" type="curve" smooth="yes"/>
      <point x="161.76433121" y="27.0"/>
      <point x="101.0" y="153.0"/>
      <point x="101" y="351" type="curve" smooth="yes"/>
      <point x="101.0" y="514.0"/>
      <point x="157.823529412" y="633.0"/>
      <point x="239" y="633" type="curve" smooth="yes"/>
      <point x="338.248407643" y="633.0"/>
      <point x="398.0" y="509.0"/>
      <point x="398" y="309" type="curve" smooth="yes"/>
      <point x="398.0" y="148.0"/>
      <point x="342.191176471" y="27.0"/>
    </contour>
  </outline>
</glyph>
<glyph name="one" format="1">
  <advance width="500"/>
  <unicode hex="0031"/>
  <outline>
    <contour>
      <point x="157" y="0" type="line"/>
      <point x="375" y="0" type="line"/>
      <point x="375" y="25" type="line"/>
      <point x="297" y="42" type="line"/>
      <point x="297" y="660" type="line"/>
      <point x="282" y="660" type="line"/>
      <point x="97" y="536" type="line"/>
      <point x="97" y="508" type="line"/>
      <point x="245" y="595" type="line"/>
      <point x="245" y="42" type="line"/>
      <point x="157" y="25" type="line"/>
    </contour>
  </outline>
</glyph>
<glyph name="two" format="2">
  <advance width="500"/>
  <unicode hex="0032"/>
  <outline>
    <contour>
      <point x="56" y="0" type="line"/>
      <point x="428" y="0" type="line"/>
      <point x="438" y="147" type="line"/>
      <point x="417" y="147" type="line"/>
      <point x="387" y="47" type="line"/>
      <point x="88" y="47" type="line"/>
      <point x="110" y="38" type="line"/>
      <point x="367" y="354"/>
      <point x="418" y="379"/>
      <point x="418" y="493" type="curve" smooth="yes"/>
      <point x="418" y="595"/>
      <point x="350" y="670"/>
      <point x="239" y="670" type="curve" smooth="yes"/>
      <point x="124" y="670"/>
      <point x="42" y="581"/>
      <point x="42" y="525" type="curve" smooth="yes"/>
      <point x="42" y="501"/>
      <point x="48" y="496"/>
      <point x="72" y="496" type="curve" smooth="yes"/>
      <point x="102" y="496" type="line"/>
      <point x="102" y="604" type="line"/>
      <point x="81" y="566" type="line"/>
      <point x="108" y="604"/>
      <point x="163" y="630"/>
      <point x="224" y="630" type="curve" smooth="yes"/>
      <point x="314" y="630"/>
      <point x="361" y="578"/>
      <point x="361" y="491" type="curve" smooth="yes"/>
      <point x="361" y="391"/>
      <point x="328" y="356"/>
      <point x="56" y="24" type="curve"/>
    </contour>
  </outline>
</glyph>
<glyph name="three" format="2">
  <advance width="500"/>
  <unicode hex="0033"/>
  <outline>
    <contour>
      <point x="237" y="-10" type="curve" smooth="yes"/>
      <point x="358" y="-10"/>
      <point x="445" y="75"/>
      <point x="445" y="183" type="curve" smooth="yes"/>
      <point x="445" y="282"/>
      <point x="382" y="346"/>
      <point x="262" y="357" type="curve"/>
      <point x="262" y="346" type="line"/>
      <point x="357" y="371"/>
      <point x="411" y="438"/>
      <point x="411" y="512" type="curve" smooth="yes"/>
      <point x="411" y="606"/>
      <point x="337" y="670"/>
      <point x="239" y="670" type="curve" smooth="yes"/>
      <point x="133" y="670"/>
      <point x="55" y="590"/>
      <point x="55" y="529" type="curve" smooth="yes"/>
      <point x="55" y="509"/>
      <point x="60" y="503"/>
      <point x="81" y="503" type="curve" smooth="yes"/>
      <point x="112" y="503" type="line"/>
      <point x="112" y="609" type="line"/>
      <point x="85" y="568" type="line"/>
      <point x="116" y="608"/>
      <point x="164" y="632"/>
      <point x="221" y="632" type="curve" smooth="yes"/>
      <point x="305" y="632"/>
      <point x="354" y="584"/>
      <point x="354" y="505" type="curve" smooth="yes"/>
      <point x="354" y="410"/>
      <point x="285" y="357"/>
      <point x="197" y="357" type="curve" smooth="yes"/>
      <point x="151" y="357" type="line"/>
      <point x="151" y="325" type="line"/>
      <point x="215" y="325" type="line" smooth="yes"/>
      <point x="343" y="325"/>
      <point x="388" y="269"/>
      <point x="388" y="173" type="curve" smooth="yes"/>
      <point x="388" y="85"/>
      <point x="333" y="23"/>
      <point x="235" y="23" type="curve" smooth="yes"/>
      <point x="162" y="23"/>
      <point x="104" y="45"/>
      <point x="74" y="90" type="curve"/>
      <point x="95" y="55" type="line"/>
      <point x="95" y="152" type="line"/>
      <point x="71" y="152" type="line" smooth="yes"/>
      <point x="47" y="152"/>
      <point x="35" y="148"/>
      <point x="35" y="120" type="curve" smooth="yes"/>
      <point x="35" y="72"/>
      <point x="106" y="-10"/>
    </contour>
  </outline>
</glyph>
<glyph name="four" format="1">
  <advance width="500"/>
  <unicode hex="0034"/>
  <outline>
    <contour>
      <point x="197" y="0" type="line"/>
      <point x="415" y="0" type="line"/>
      <point x="415" y="25" type="line"/>
      <point x="337" y="42" type="line"/>
      <point x="337" y="660" type="line"/>
      <point x="323" y="660" type="line"/>
      <point x="-1" y="208" type="line"/>
      <point x="-1" y="193" type="line"/>
      <point x="456" y="193" type="line"/>
      <point x="456" y="230" type="line"/>
      <point x="38" y="230" type="line"/>
      <point x="60" y="227" type="line"/>
      <point x="310" y="585" type="line"/>
      <point x="285" y="585" type="line"/>
      <point x="285" y="42" type="line"/>
      <point x="197" y="25" type="line"/>
    </contour>
  </outline>
</glyph>
<glyph name="five" format="2">
  <advance width="500"/>
  <unicode hex="0035"/>
  <outline>
    <contour>
      <point x="139" y="24" type="curve"/>
      <point x="170" y="11" type="line"/>
      <point x="106" y="106" type="line"/>
      <point x="82" y="90" type="line" smooth="yes"/>
      <point x="66" y="79"/>
      <point x="63" y="73"/>
      <point x="63" y="64" type="curve" smooth="yes"/>
      <point x="63" y="35"/>
      <point x="113" y="-10"/>
      <point x="187" y="-10" type="curve" smooth="yes"/>
      <point x="314" y="-10"/>
      <point x="426" y="72"/>
      <point x="426" y="216" type="curve" smooth="yes"/>
      <point x="426" y="326"/>
      <point x="355" y="400"/>
      <point x="235" y="400" type="curve" smooth="yes"/>
      <point x="194" y="400"/>
      <point x="150" y="392"/>
      <point x="108" y="374" type="curve"/>
      <point x="128" y="369" type="line"/>
      <point x="139" y="626" type="line"/>
      <point x="124" y="610" type="line"/>
      <point x="398" y="610" type="line"/>
      <point x="398" y="660" type="line"/>
      <point x="107" y="660" type="line"/>
      <point x="94" y="340" type="line"/>
      <point x="131" y="354"/>
      <point x="172" y="358"/>
      <point x="201" y="358" type="curve" smooth="yes"/>
      <point x="314" y="358"/>
      <point x="371" y="296"/>
      <point x="371" y="200" type="curve" smooth="yes"/>
      <point x="371" y="80"/>
      <point x="292" y="19"/>
      <point x="190" y="19" type="curve" smooth="yes"/>
      <point x="174" y="19"/>
      <point x="157" y="21"/>
    </contour>
  </outline>
</glyph>
<glyph name="six" format="1">
  <advance width="500"/>
  <unicode hex="0036"/>
  <outline>
    <contour>
      <point x="253" y="-10" type="curve" smooth="yes"/>
      <point x="381" y="-10"/>
      <point x="450" y="96"/>
      <point x="450" y="205" type="curve" smooth="yes"/>
      <point x="450" y="311"/>
      <point x="381" y="390"/>
      <point x="273" y="390" type="curve" smooth="yes"/>
      <point x="170" y="390"/>
      <point x="94" y="312"/>
      <point x="79" y="215" type="curve"/>
      <point x="89" y="201" type="line"/>
      <point x="99" y="278"/>
      <point x="166" y="345"/>
      <point x="253" y="345" type="curve" smooth="yes"/>
      <point x="343" y="345"/>
      <point x="391" y="294"/>
      <point x="391" y="189" type="curve" smooth="yes"/>
      <point x="391" y="98"/>
      <point x="343" y="21"/>
      <point x="257" y="21" type="curve" smooth="yes"/>
      <point x="174" y="21"/>
      <point x="111" y="95"/>
      <point x="111" y="243" type="curve" smooth="yes"/>
      <point x="111" y="438"/>
      <point x="217" y="583"/>
      <point x="402" y="641" type="curve"/>
      <point x="402" y="670" type="line"/>
      <point x="184" y="609"/>
      <point x="50" y="444"/>
      <point x="50" y="234" type="curve" smooth="yes"/>
      <point x="50" y="91"/>
      <point x="137" y="-10"/>
    </contour>
  </outline>
</glyph>
<glyph name="seven" format="1">
  <advance width="500"/>
  <unicode hex="0037"/>
  <outline>
    <contour>
      <point x="118" y="0" type="curve"/>
      <point x="188" y="0" type="line"/>
      <point x="258" y="279"/>
      <point x="354" y="471"/>
      <point x="448" y="642" type="curve"/>
      <point x="448" y="660" type="line"/>
      <point x="60" y="660" type="line"/>
      <point x="60" y="612" type="line"/>
      <point x="416" y="612" type="line"/>
      <point x="402" y="626" type="line"/>
      <point x="195.96437949" y="239.559984498"/>
      <point x="188.345793237" y="171.405946901"/>
    </contour>
  </outline>
</glyph>
<glyph name="eight" format="1">
  <advance width="500"/>
  <unicode hex="0038"/>
  <outline>
    <contour>
      <point x="253" y="-10" type="curve" smooth="yes"/>
      <point x="341" y="-10"/>
      <point x="442" y="51"/>
      <point x="442" y="158" type="curve" smooth="yes"/>
      <point x="442" y="252"/>
      <point x="389" y="303"/>
      <point x="268" y="369" type="curve" smooth="yes"/>
      <point x="155" y="431"/>
      <point x="130" y="468"/>
      <point x="130" y="525" type="curve" smooth="yes"/>
      <point x="130" y="587"/>
      <point x="182" y="631"/>
      <point x="247" y="631" type="curve" smooth="yes"/>
      <point x="314" y="631"/>
      <point x="374" y="586"/>
      <point x="374" y="507" type="curve" smooth="yes"/>
      <point x="374" y="445"/>
      <point x="324" y="402"/>
      <point x="260" y="364" type="curve"/>
      <point x="290" y="350" type="line"/>
      <point x="375" y="397"/>
      <point x="424" y="450"/>
      <point x="424" y="518" type="curve" smooth="yes"/>
      <point x="424" y="607"/>
      <point x="350" y="670"/>
      <point x="254" y="670" type="curve" smooth="yes"/>
      <point x="156" y="670"/>
      <point x="77" y="598"/>
      <point x="77" y="512" type="curve" smooth="yes"/>
      <point x="77" y="433"/>
      <point x="115" y="392"/>
      <point x="226" y="329" type="curve" smooth="yes"/>
      <point x="328" y="272"/>
      <point x="390" y="236"/>
      <point x="390" y="145" type="curve" smooth="yes"/>
      <point x="390" y="74"/>
      <point x="330" y="29"/>
      <point x="255" y="29" type="curve" smooth="yes"/>
      <point x="178" y="29"/>
      <point x="107" y="71"/>
      <point x="107" y="158" type="curve" smooth="yes"/>
      <point x="107" y="237"/>
      <point x="146" y="277"/>
      <point x="233" y="328" type="curve"/>
      <point x="215" y="349" type="line"/>
      <point x="83" y="273"/>
      <point x="57" y="217"/>
      <point x="57" y="142" type="curve" smooth="yes"/>
      <point x="57" y="54"/>
      <point x="148" y="-10"/>
    </contour>
  </outline>
</glyph>
<glyph name="nine" format="1">
  <advance width="500"/>
  <unicode hex="0039"/>
  <outline>
    <contour>
      <point x="98" y="-10" type="line"/>
      <point x="316" y="51"/>
      <point x="450" y="216"/>
      <point x="450" y="426" type="curve" smooth="yes"/>
      <point x="450" y="569"/>
      <point x="363" y="670"/>
      <point x="247" y="670" type="curve" smooth="yes"/>
      <point x="119" y="670"/>
      <point x="50" y="564"/>
      <point x="50" y="455" type="curve" smooth="yes"/>
      <point x="50" y="349"/>
      <point x="119" y="270"/>
      <point x="227" y="270" type="curve" smooth="yes"/>
      <point x="330" y="270"/>
      <point x="406" y="348"/>
      <point x="421" y="445" type="curve"/>
      <point x="411" y="459" type="line"/>
      <point x="401" y="382"/>
      <point x="334" y="315"/>
      <point x="247" y="315" type="curve" smooth="yes"/>
      <point x="157" y="315"/>
      <point x="109" y="366"/>
      <point x="109" y="471" type="curve" smooth="yes"/>
      <point x="109" y="562"/>
      <point x="157" y="639"/>
      <point x="243" y="639" type="curve" smooth="yes"/>
      <point x="326" y="639"/>
      <point x="389" y="565"/>
      <point x="389" y="417" type="curve" smooth="yes"/>
      <point x="389" y="222"/>
      <point x="283" y="77"/>
      <point x="98" y="19" type="curve"/>
    </contour>
  </outline>
</glyph>
<glyph name="less" format="1">
  <advance width="500"/>
  <unicode hex="003C"/>
  <outline>
    <contour>
      <point x="460" y="62" type="line"/>
      <point x="460" y="93" type="line"/>
      <point x="70" y="277" type="line"/>
      <point x="70" y="267" type="line"/>
      <point x="460" y="451" type="line"/>
      <point x="460" y="482" type="line"/>
      <point x="40" y="285" type="line"/>
      <point x="40" y="259" type="line"/>
    </contour>
  </outline>
</glyph>
<glyph name="equal" format="1">
  <advance width="500"/>
  <unicode hex="003D"/>
  <outline>
    <contour>
      <point x="40" y="360" type="line"/>
      <point x="460" y="360" type="line"/>
      <point x="460" y="388" type="line"/>
      <point x="40" y="388" type="line"/>
    </contour>
    <contour>
      <point x="40" y="156" type="line"/>
      <point x="460" y="156" type="line"/>
      <point x="460" y="184" type="line"/>
      <point x="40" y="184" type="line"/>
    </contour>
  </outline>
</glyph>
<glyph name="greater" format="1">
  <advance width="500"/>
  <unicode hex="003E"/>
  <outline>
    <contour>
      <point x="40" y="62" type="line"/>
      <point x="460" y="259" type="line"/>
      <point x="460" y="285" type="line"/>
      <point x="40" y="482" type="line"/>
      <point x="40" y="451" type="line"/>
      <point x="430" y="267" type="line"/>
      <point x="430" y="277" type="line"/>
      <point x="40" y="93" type="line"/>
    </contour>
  </outline>
</glyph>
<glyph name="question" format="2">
  <advance width="470"/>
  <unicode hex="003F"/>
  <outline>
    <contour>
      <point x="211" y="200" type="line"/>
      <point x="233" y="200" type="line"/>
      <point x="240" y="321" type="line"/>
      <point x="209" y="284" type="line"/>
      <point x="369" y="346"/>
      <point x="417" y="417"/>
      <point x="417" y="500" type="curve" smooth="yes"/>
      <point x="417" y="602"/>
      <point x="351" y="670"/>
      <point x="250" y="670" type="curve" smooth="yes"/>
      <point x="153" y="670"/>
      <point x="55" y="588"/>
      <point x="55" y="525" type="curve" smooth="yes"/>
      <point x="55" y="504"/>
      <point x="61" y="499"/>
      <point x="80" y="499" type="curve" smooth="yes"/>
      <point x="111" y="499" type="line"/>
      <point x="111" y="604" type="line"/>
      <point x="84" y="572" type="line"/>
      <point x="113" y="601"/>
      <point x="172" y="634"/>
      <point x="235" y="634" type="curve" smooth="yes"/>
      <point x="305" y="634"/>
      <point x="357" y="590"/>
      <point x="357" y="501" type="curve" smooth="yes"/>
      <point x="357" y="419"/>
      <point x="308" y="370"/>
      <point x="198" y="332" type="curve"/>
    </contour>
    <contour>
      <point x="222" y="-5" type="curve" smooth="yes"/>
      <point x="247" y="-5"/>
      <point x="267" y="18"/>
      <point x="267" y="41" type="curve" smooth="yes"/>
      <point x="267" y="65"/>
      <point x="247" y="87"/>
      <point x="222" y="87" type="curve" smooth="yes"/>
      <point x="197" y="87"/>
      <point x="177" y="65"/>
      <point x="177" y="41" type="curve" smooth="yes"/>
      <point x="177" y="18"/>
      <point x="197" y="-5"/>
    </contour>
  </outline>
</glyph>
<glyph name="at" format="2">
  <advance width="813"/>
  <unicode hex="0040"/>
  <outline>
    <contour>
      <point x="379" y="-118" type="curve" smooth="yes"/>
      <point x="476" y="-118"/>
      <point x="552" y="-94"/>
      <point x="619" y="-48" type="curve"/>
      <point x="612" y="-35" type="line"/>
      <point x="550" y="-76"/>
      <point x="486" y="-97"/>
      <point x="395" y="-97" type="curve" smooth="yes"/>
      <point x="222" y="-97"/>
      <point x="113" y="18"/>
      <point x="113" y="200" type="curve" smooth="yes"/>
      <point x="113" y="383"/>
      <point x="242" y="542"/>
      <point x="453" y="542" type="curve" smooth="yes"/>
      <point x="618" y="542"/>
      <point x="724" y="428"/>
      <point x="724" y="275" type="curve" smooth="yes"/>
      <point x="724" y="124"/>
      <point x="650" y="42"/>
      <point x="568" y="42" type="curve" smooth="yes"/>
      <point x="514" y="42"/>
      <point x="494" y="74"/>
      <point x="508" y="151" type="curve" smooth="yes"/>
      <point x="557" y="420" type="line"/>
      <point x="547" y="420" type="line"/>
      <point x="528" y="399" type="line"/>
      <point x="538" y="395" type="line"/>
      <point x="518" y="413"/>
      <point x="484" y="429"/>
      <point x="455" y="429" type="curve" smooth="yes"/>
      <point x="340" y="429"/>
      <point x="231" y="264"/>
      <point x="231" y="132" type="curve" smooth="yes"/>
      <point x="231" y="60"/>
      <point x="265" y="21"/>
      <point x="310" y="21" type="curve" smooth="yes"/>
      <point x="361" y="21"/>
      <point x="401" y="55"/>
      <point x="466" y="130" type="curve"/>
      <point x="470" y="150" type="line"/>
      <point x="425" y="99"/>
      <point x="377" y="53"/>
      <point x="328" y="53" type="curve" smooth="yes"/>
      <point x="294" y="53"/>
      <point x="273" y="82"/>
      <point x="273" y="139" type="curve" smooth="yes"/>
      <point x="273" y="269"/>
      <point x="339" y="406"/>
      <point x="436" y="406" type="curve" smooth="yes"/>
      <point x="473" y="406"/>
      <point x="492" y="393"/>
      <point x="510" y="377" type="curve"/>
      <point x="508" y="381" type="line"/>
      <point x="464" y="130" type="line" smooth="yes"/>
      <point x="452" y="62"/>
      <point x="494" y="21"/>
      <point x="561" y="21" type="curve" smooth="yes"/>
      <point x="662" y="21"/>
      <point x="743" y="119"/>
      <point x="743" y="276" type="curve" smooth="yes"/>
      <point x="743" y="437"/>
      <point x="626" y="562"/>
      <point x="453" y="562" type="curve" smooth="yes"/>
      <point x="236" y="562"/>
      <point x="70" y="391"/>
      <point x="70" y="177" type="curve" smooth="yes"/>
      <point x="70" y="5"/>
      <point x="196" y="-118"/>
    </contour>
  </outline>
</glyph>
<glyph name="A" format="1">
  <advance width="709"/>
  <unicode hex="0041"/>
  <outline>
    <contour>
      <point x="33" y="0" type="line"/>
      <point x="219" y="0" type="line"/>
      <point x="219" y="25" type="line"/>
      <point x="127" y="38" type="line"/>
      <point x="126" y="28" type="line"/>
      <point x="341" y="588" type="line"/>
      <point x="330" y="588" type="line"/>
      <point x="552" y="29" type="line"/>
      <point x="554" y="39" type="line"/>
      <point x="463" y="25" type="line"/>
      <point x="463" y="0" type="line"/>
      <point x="676" y="0" type="line"/>
      <point x="676" y="25" type="line"/>
      <point x="576" y="47" type="line"/>
      <point x="620" y="28" type="line"/>
      <point x="362" y="665" type="line"/>
      <point x="341" y="665" type="line"/>
      <point x="82" y="28" type="line"/>
      <point x="105" y="42" type="line"/>
      <point x="33" y="25" type="line"/>
    </contour>
    <contour>
      <point x="196" y="250" type="line"/>
      <point x="484" y="250" type="line"/>
      <point x="484" y="285" type="line"/>
      <point x="196" y="285" type="line"/>
    </contour>
    <contour>
      <point x="341" y="0" type="move" name="bottom"/>
    </contour>
    <contour>
      <point x="352" y="710" type="move" name="top"/>
    </contour>
    <contour>
      <point x="606" y="0" type="move" name="right"/>
    </contour>
  </outline>
</glyph>
<glyph name="B" format="1">
  <advance width="593"/>
  <unicode hex="0042"/>
  <outline>
    <contour>
      <point x="65" y="0" type="line"/>
      <point x="203" y="0" type="line"/>
      <point x="203" y="660" type="line"/>
      <point x="65" y="660" type="line"/>
      <point x="65" y="635" type="line"/>
      <point x="143" y="618" type="line"/>
      <point x="143" y="42" type="line"/>
      <point x="65" y="25" type="line"/>
    </contour>
    <contour>
      <point x="281" y="0" type="line" smooth="yes"/>
      <point x="430" y="0"/>
      <point x="541" y="82"/>
      <point x="541" y="192" type="curve" smooth="yes"/>
      <point x="541" y="292"/>
      <point x="440" y="354"/>
      <point x="275" y="354" type="curve"/>
      <point x="267" y="339" type="line"/>
      <point x="406" y="339"/>
      <point x="483" y="421"/>
      <point x="483" y="512" type="curve" smooth="yes"/>
      <point x="483" y="611"/>
      <point x="376" y="660"/>
      <point x="246" y="660" type="curve" smooth="yes"/>
      <point x="151" y="660" type="line"/>
      <point x="151" y="624" type="line"/>
      <point x="254" y="624" type="line" smooth="yes"/>
      <point x="359" y="624"/>
      <point x="421" y="578"/>
      <point x="421" y="489" type="curve" smooth="yes"/>
      <point x="421" y="406"/>
      <point x="355" y="358"/>
      <point x="260" y="358" type="curve" smooth="yes"/>
      <point x="159" y="358" type="line"/>
      <point x="159" y="323" type="line"/>
      <point x="292" y="323" type="line" smooth="yes"/>
      <point x="405" y="323"/>
      <point x="478" y="278"/>
      <point x="478" y="178" type="curve" smooth="yes"/>
      <point x="478" y="95"/>
      <point x="404" y="34"/>
      <point x="299" y="34" type="curve" smooth="yes"/>
      <point x="179" y="34" type="line"/>
      <point x="179" y="0" type="line"/>
    </contour>
  </outline>
</glyph>
<glyph name="C" format="1">
  <advance width="714"/>
  <unicode hex="0043"/>
  <outline>
    <contour>
      <point x="393" y="-10" type="curve" smooth="yes"/>
      <point x="501" y="-10"/>
      <point x="555" y="10"/>
      <point x="613" y="39" type="curve"/>
      <point x="622" y="188" type="line"/>
      <point x="602" y="188" type="line"/>
      <point x="539" y="41" type="line"/>
      <point x="573" y="78" type="line"/>
      <point x="528" y="47"/>
      <point x="482" y="22"/>
      <point x="407" y="22" type="curve" smooth="yes"/>
      <point x="247" y="22"/>
      <point x="125" y="155"/>
      <point x="125" y="352" type="curve" smooth="yes"/>
      <point x="125" y="509"/>
      <point x="239" y="639"/>
      <point x="402" y="639" type="curve" smooth="yes"/>
      <point x="465" y="639"/>
      <point x="512" y="613"/>
      <point x="576" y="562" type="curve"/>
      <point x="542" y="608" type="line"/>
      <point x="591" y="466" type="line"/>
      <point x="612" y="466" type="line"/>
      <point x="607" y="621" type="line"/>
      <point x="553" y="647"/>
      <point x="504" y="670"/>
      <point x="410" y="670" type="curve" smooth="yes"/>
      <point x="224" y="670"/>
      <point x="70" y="515"/>
      <point x="70" y="312" type="curve" smooth="yes"/>
      <point x="70" y="129"/>
      <point x="206" y="-10"/>
    </contour>
    <contour>
      <point x="404" y="710" type="move" name="top"/>
    </contour>
    <contour>
      <point x="394" y="0" type="move" name="bottom"/>
    </contour>
  </outline>
</glyph>
<glyph name="D" format="1">
  <advance width="715"/>
  <unicode hex="0044"/>
  <outline>
    <contour>
      <point x="65" y="0" type="line"/>
      <point x="205" y="0" type="line"/>
      <point x="205" y="660" type="line"/>
      <point x="65" y="660" type="line"/>
      <point x="65" y="635" type="line"/>
      <point x="145" y="618" type="line"/>
      <point x="145" y="42" type="line"/>
      <point x="65" y="25" type="line"/>
    </contour>
    <contour>
      <point x="291" y="0" type="line" smooth="yes"/>
      <point x="508" y="0"/>
      <point x="645" y="138"/>
      <point x="645" y="360" type="curve" smooth="yes"/>
      <point x="645" y="532"/>
      <point x="519" y="660"/>
      <point x="298" y="660" type="curve" smooth="yes"/>
      <point x="152" y="660" type="line"/>
      <point x="152" y="625" type="line"/>
      <point x="305" y="625" type="line" smooth="yes"/>
      <point x="481" y="625"/>
      <point x="580" y="508"/>
      <point x="580" y="329" type="curve" smooth="yes"/>
      <point x="580" y="156"/>
      <point x="473" y="35"/>
      <point x="310" y="35" type="curve" smooth="yes"/>
      <point x="180" y="35" type="line"/>
      <point x="180" y="0" type="line"/>
    </contour>
    <contour>
      <point x="353" y="710" type="move" name="top"/>
    </contour>
    <contour>
      <point x="353" y="0" type="move" name="bottom"/>
    </contour>
  </outline>
</glyph>
<glyph name="E" format="1">
  <advance width="611"/>
  <unicode hex="0045"/>
  <outline>
    <contour>
      <point x="65" y="0" type="line"/>
      <point x="203" y="0" type="line"/>
      <point x="203" y="660" type="line"/>
      <point x="65" y="660" type="line"/>
      <point x="65" y="635" type="line"/>
      <point x="143" y="618" type="line"/>
      <point x="143" y="42" type="line"/>
      <point x="65" y="25" type="line"/>
    </contour>
    <contour>
      <point x="493" y="498" type="line"/>
      <point x="513" y="498" type="line"/>
      <point x="513" y="660" type="line"/>
      <point x="172" y="660" type="line"/>
      <point x="172" y="625" type="line"/>
      <point x="451" y="625" type="line"/>
    </contour>
    <contour>
      <point x="410" y="242" type="line"/>
      <point x="430" y="242" type="line"/>
      <point x="430" y="441" type="line"/>
      <point x="410" y="441" type="line"/>
      <point x="385" y="358" type="line"/>
      <point x="172" y="358" type="line"/>
      <point x="172" y="323" type="line"/>
      <point x="385" y="323" type="line"/>
    </contour>
    <contour>
      <point x="541" y="0" type="line"/>
      <point x="541" y="172" type="line"/>
      <point x="521" y="172" type="line"/>
      <point x="479" y="35" type="line"/>
      <point x="172" y="35" type="line"/>
      <point x="172" y="0" type="line"/>
    </contour>
    <contour>
      <point x="328" y="710" type="move" name="top"/>
    </contour>
    <contour>
      <point x="328" y="0" type="move" name="bottom"/>
    </contour>
    <contour>
      <point x="486" y="0" type="move" name="right"/>
    </contour>
  </outline>
</glyph>
<glyph name="F" format="1">
  <advance width="585"/>
  <unicode hex="0046"/>
  <outline>
    <contour>
      <point x="65" y="0" type="line"/>
      <point x="296" y="0" type="line"/>
      <point x="296" y="25" type="line"/>
      <point x="205" y="42" type="line"/>
      <point x="205" y="660" type="line"/>
      <point x="67" y="660" type="line"/>
      <point x="67" y="635" type="line"/>
      <point x="145" y="618" type="line"/>
      <point x="145" y="42" type="line"/>
      <point x="65" y="25" type="line"/>
    </contour>
    <contour>
      <point x="495" y="498" type="line"/>
      <point x="515" y="498" type="line"/>
      <point x="515" y="660" type="line"/>
      <point x="174" y="660" type="line"/>
      <point x="174" y="625" type="line"/>
      <point x="453" y="625" type="line"/>
    </contour>
    <contour>
      <point x="412" y="242" type="line"/>
      <point x="432" y="242" type="line"/>
      <point x="432" y="441" type="line"/>
      <point x="412" y="441" type="line"/>
      <point x="387" y="358" type="line"/>
      <point x="174" y="358" type="line"/>
      <point x="174" y="323" type="line"/>
      <point x="387" y="323" type="line"/>
    </contour>
  </outline>
</glyph>
<glyph name="G" format="1">
  <advance width="747"/>
  <unicode hex="0047"/>
  <outline>
    <contour>
      <point x="403" y="-10" type="curve" smooth="yes"/>
      <point x="479" y="-10"/>
      <point x="565" y="19"/>
      <point x="619" y="64" type="curve"/>
      <point x="619" y="248" type="line"/>
      <point x="697" y="265" type="line"/>
      <point x="697" y="290" type="line"/>
      <point x="472" y="290" type="line"/>
      <point x="472" y="265" type="line"/>
      <point x="559" y="245" type="line"/>
      <point x="559" y="41" type="line"/>
      <point x="588" y="67" type="line"/>
      <point x="525" y="35"/>
      <point x="472" y="29"/>
      <point x="413" y="29" type="curve" smooth="yes"/>
      <point x="257" y="29"/>
      <point x="125" y="151"/>
      <point x="125" y="352" type="curve" smooth="yes"/>
      <point x="125" y="504"/>
      <point x="235" y="639"/>
      <point x="408" y="639" type="curve" smooth="yes"/>
      <point x="478" y="639"/>
      <point x="528" y="617"/>
      <point x="596" y="562" type="curve"/>
      <point x="562" y="608" type="line"/>
      <point x="611" y="466" type="line"/>
      <point x="632" y="466" type="line"/>
      <point x="627" y="621" type="line"/>
      <point x="570" y="649"/>
      <point x="519" y="670"/>
      <point x="414" y="670" type="curve" smooth="yes"/>
      <point x="225" y="670"/>
      <point x="70" y="517"/>
      <point x="70" y="312" type="curve" smooth="yes"/>
      <point x="70" y="126"/>
      <point x="211" y="-10"/>
    </contour>
    <contour>
      <point x="415" y="710" type="move" name="top"/>
    </contour>
    <contour>
      <point x="403" y="0" type="move" name="bottom"/>
    </contour>
  </outline>
</glyph>
<glyph name="H" format="1">
  <advance width="784"/>
  <unicode hex="0048"/>
  <outline>
    <contour>
      <point x="65" y="0" type="line"/>
      <point x="289" y="0" type="line"/>
      <point x="289" y="25" type="line"/>
      <point x="203" y="42" type="line"/>
      <point x="203" y="618" type="line"/>
      <point x="289" y="635" type="line"/>
      <point x="289" y="660" type="line"/>
      <point x="65" y="660" type="line"/>
      <point x="65" y="635" type="line"/>
      <point x="143" y="618" type="line"/>
      <point x="143" y="42" type="line"/>
      <point x="65" y="25" type="line"/>
    </contour>
    <contour>
      <point x="180" y="323" type="line"/>
      <point x="610" y="323" type="line"/>
      <point x="610" y="358" type="line"/>
      <point x="180" y="358" type="line"/>
    </contour>
    <contour>
      <point x="495" y="0" type="line"/>
      <point x="719" y="0" type="line"/>
      <point x="719" y="25" type="line"/>
      <point x="641" y="42" type="line"/>
      <point x="641" y="618" type="line"/>
      <point x="719" y="635" type="line"/>
      <point x="719" y="660" type="line"/>
      <point x="495" y="660" type="line"/>
      <point x="495" y="635" type="line"/>
      <point x="581" y="618" type="line"/>
      <point x="581" y="42" type="line"/>
      <point x="495" y="25" type="line"/>
    </contour>
    <contour>
      <point x="392" y="710.0" type="move" name="top"/>
    </contour>
    <contour>
      <point x="392" y="0" type="move" name="bottom"/>
    </contour>
  </outline>
</glyph>
<glyph name="I" format="1">
  <advance width="356"/>
  <unicode hex="0049"/>
  <outline>
    <contour>
      <point x="70" y="0" type="line"/>
      <point x="286" y="0" type="line"/>
      <point x="286" y="25" type="line"/>
      <point x="208" y="42" type="line"/>
      <point x="208" y="618" type="line"/>
      <point x="286" y="635" type="line"/>
      <point x="286" y="660" type="line"/>
      <point x="70" y="660" type="line"/>
      <point x="70" y="635" type="line"/>
      <point x="148" y="618" type="line"/>
      <point x="148" y="42" type="line"/>
      <point x="70" y="25" type="line"/>
    </contour>
    <contour>
      <point x="178" y="710" type="move" name="top"/>
    </contour>
    <contour>
      <point x="179" y="0" type="move" name="bottom"/>
    </contour>
    <contour>
      <point x="188" y="0" type="move" name="right"/>
    </contour>
  </outline>
</glyph>
<glyph name="J" format="2">
  <advance width="360"/>
  <unicode hex="004A"/>
  <anchor x="180" y="710" name="top"/>
  <outline>
    <contour>
      <point x="52" y="-173" type="curve" smooth="yes"/>
      <point x="79" y="-173"/>
      <point x="92" y="-166"/>
      <point x="146" y="-108" type="curve" smooth="yes"/>
      <point x="196" y="-55"/>
      <point x="210" y="45"/>
      <point x="210" y="210" type="curve" smooth="yes"/>
      <point x="210" y="618" type="line"/>
      <point x="290" y="635" type="line"/>
      <point x="290" y="660" type="line"/>
      <point x="70" y="660" type="line"/>
      <point x="70" y="635" type="line"/>
      <point x="150" y="618" type="line"/>
      <point x="150" y="51" type="line" smooth="yes"/>
      <point x="150" y="-61"/>
      <point x="126" y="-110"/>
      <point x="93" y="-135" type="curve"/>
      <point x="119" y="-125" type="line"/>
      <point x="29" y="-104" type="line"/>
      <point x="22" y="-133" type="line" smooth="yes"/>
      <point x="20" y="-141"/>
      <point x="19" y="-145"/>
      <point x="19" y="-148" type="curve" smooth="yes"/>
      <point x="19" y="-162"/>
      <point x="30" y="-173"/>
    </contour>
  </outline>
</glyph>
<glyph name="K" format="1">
  <advance width="703"/>
  <unicode hex="004B"/>
  <outline>
    <contour>
      <point x="65" y="0" type="line"/>
      <point x="285" y="0" type="line"/>
      <point x="285" y="25" type="line"/>
      <point x="205" y="42" type="line"/>
      <point x="205" y="618" type="line"/>
      <point x="285" y="635" type="line"/>
      <point x="285" y="660" type="line"/>
      <point x="65" y="660" type="line"/>
      <point x="65" y="635" type="line"/>
      <point x="145" y="618" type="line"/>
      <point x="145" y="42" type="line"/>
      <point x="65" y="25" type="line"/>
    </contour>
    <contour>
      <point x="200" y="338" type="line"/>
      <point x="554" y="0" type="line"/>
      <point x="668" y="0" type="line"/>
      <point x="668" y="25" type="line"/>
      <point x="567" y="43" type="line"/>
      <point x="621" y="18" type="line"/>
      <point x="244" y="373" type="line"/>
      <point x="241" y="337" type="line"/>
      <point x="567" y="632" type="line"/>
      <point x="541" y="620" type="line"/>
      <point x="616" y="635" type="line"/>
      <point x="616" y="660" type="line"/>
      <point x="418" y="660" type="line"/>
      <point x="418" y="635" type="line"/>
      <point x="517" y="611" type="line"/>
      <point x="511" y="632" type="line"/>
    </contour>
    <contour>
      <point x="352" y="710" type="move" name="top"/>
    </contour>
    <contour>
      <point x="352" y="0" type="move" name="bottom"/>
    </contour>
  </outline>
</glyph>
<glyph name="L" format="2">
  <advance width="611"/>
  <unicode hex="004C"/>
  <anchor x="317" y="0" name="bottom"/>
  <anchor x="174" y="710" name="top"/>
  <anchor x="462" y="660" name="right"/>
  <anchor x="479" y="340" name="mid"/>
  <outline>
    <contour>
      <point x="65" y="0" type="line"/>
      <point x="541" y="0" type="line"/>
      <point x="541" y="212" type="line"/>
      <point x="521" y="212" type="line"/>
      <point x="474" y="35" type="line"/>
      <point x="203" y="35" type="line"/>
      <point x="203" y="618" type="line"/>
      <point x="293" y="635" type="line"/>
      <point x="293" y="660" type="line"/>
      <point x="65" y="660" type="line"/>
      <point x="65" y="635" type="line"/>
      <point x="143" y="618" type="line"/>
      <point x="143" y="42" type="line"/>
      <point x="65" y="25" type="line"/>
    </contour>
  </outline>
</glyph>
<glyph name="M" format="1">
  <advance width="935"/>
  <unicode hex="004D"/>
  <outline>
    <contour>
      <point x="60.0" y="0.0" type="line"/>
      <point x="264.0" y="0.0" type="line"/>
      <point x="264.0" y="25.0" type="line"/>
      <point x="183" y="41" type="line"/>
      <point x="196" y="637" type="line"/>
      <point x="161" y="637" type="line"/>
      <point x="139.0" y="42.0" type="line"/>
      <point x="60.0" y="25.0" type="line"/>
    </contour>
    <contour>
      <point x="449" y="-5" type="line"/>
      <point x="470" y="-5" type="line"/>
      <point x="740" y="611" type="line"/>
      <point x="773" y="611" type="line"/>
      <point x="872" y="635" type="line"/>
      <point x="872" y="660" type="line"/>
      <point x="720" y="660" type="line"/>
      <point x="459" y="61" type="line"/>
      <point x="481" y="71" type="line"/>
      <point x="229" y="660" type="line"/>
      <point x="74" y="660" type="line"/>
      <point x="74" y="635" type="line"/>
      <point x="173" y="611" type="line"/>
      <point x="189" y="611" type="line"/>
    </contour>
    <contour>
      <point x="669.0" y="0.0" type="line"/>
      <point x="875.0" y="0.0" type="line"/>
      <point x="875.0" y="25.0" type="line"/>
      <point x="805.0" y="42.0" type="line"/>
      <point x="787" y="637" type="line"/>
      <point x="731" y="637" type="line"/>
      <point x="743.0" y="41.0" type="line"/>
      <point x="669.0" y="25.0" type="line"/>
    </contour>
    <contour>
      <point x="460" y="0" type="move" name="bottom"/>
    </contour>
  </outline>
</glyph>
<glyph name="N" format="1">
  <advance width="784"/>
  <unicode hex="004E"/>
  <outline>
    <contour>
      <point x="65" y="0" type="line"/>
      <point x="274" y="0" type="line"/>
      <point x="274" y="25" type="line"/>
      <point x="183" y="45" type="line"/>
      <point x="183" y="601" type="line"/>
      <point x="164" y="601" type="line"/>
      <point x="619" y="-5" type="line"/>
      <point x="641" y="-5" type="line"/>
      <point x="641" y="618" type="line"/>
      <point x="719" y="635" type="line"/>
      <point x="719" y="660" type="line"/>
      <point x="517" y="660" type="line"/>
      <point x="517" y="635" type="line"/>
      <point x="603" y="618" type="line"/>
      <point x="603" y="61" type="line"/>
      <point x="638" y="61" type="line"/>
      <point x="196" y="660" type="line"/>
      <point x="65" y="660" type="line"/>
      <point x="65" y="635" type="line"/>
      <point x="143" y="618" type="line"/>
      <point x="143" y="42" type="line"/>
      <point x="65" y="25" type="line"/>
    </contour>
    <contour>
      <point x="392" y="710" type="move" name="top"/>
    </contour>
    <contour>
      <point x="392" y="0" type="move" name="bottom"/>
    </contour>
  </outline>
</glyph>
<glyph name="P" format="1">
  <advance width="578"/>
  <unicode hex="0050"/>
  <outline>
    <contour>
      <point x="65" y="0" type="line"/>
      <point x="295" y="0" type="line"/>
      <point x="295" y="25" type="line"/>
      <point x="205" y="42" type="line"/>
      <point x="205" y="625" type="line"/>
      <point x="273" y="625" type="line" smooth="yes"/>
      <point x="386" y="625"/>
      <point x="459" y="580"/>
      <point x="459" y="473" type="curve" smooth="yes"/>
      <point x="459" y="386"/>
      <point x="385" y="326"/>
      <point x="280" y="326" type="curve" smooth="yes"/>
      <point x="180" y="326" type="line"/>
      <point x="180" y="291" type="line"/>
      <point x="252" y="291" type="line" smooth="yes"/>
      <point x="415" y="291"/>
      <point x="526" y="372"/>
      <point x="526" y="481" type="curve" smooth="yes"/>
      <point x="526" y="605"/>
      <point x="422" y="660"/>
      <point x="265" y="660" type="curve" smooth="yes"/>
      <point x="65" y="660" type="line"/>
      <point x="65" y="635" type="line"/>
      <point x="145" y="618" type="line"/>
      <point x="145" y="42" type="line"/>
      <point x="65" y="25" type="line"/>
    </contour>
  </outline>
</glyph>
<glyph name="Q" format="1">
  <advance width="777.0"/>
  <unicode hex="0051"/>
  <outline>
    <contour>
      <point x="383" y="-10" type="curve" smooth="yes"/>
      <point x="564" y="-10"/>
      <point x="697" y="134"/>
      <point x="697" y="330" type="curve" smooth="yes"/>
      <point x="697" y="526"/>
      <point x="564" y="670"/>
      <point x="383" y="670" type="curve" smooth="yes"/>
      <point x="203" y="670"/>
      <point x="70" y="526"/>
      <point x="70" y="330" type="curve" smooth="yes"/>
      <point x="70" y="134"/>
      <point x="203" y="-10"/>
    </contour>
    <contour>
      <point x="404" y="20" type="curve" smooth="yes"/>
      <point x="252" y="20"/>
      <point x="132" y="156"/>
      <point x="132" y="363" type="curve" smooth="yes"/>
      <point x="132" y="533"/>
      <point x="229" y="641"/>
      <point x="366" y="641" type="curve" smooth="yes"/>
      <point x="516" y="641"/>
      <point x="635" y="506"/>
      <point x="635" y="299" type="curve" smooth="yes"/>
      <point x="635" y="129"/>
      <point x="541" y="20"/>
    </contour>
    <contour>
      <point x="661.0" y="-149.0" type="curve" smooth="yes"/>
      <point x="707.0" y="-149.0"/>
      <point x="750.0" y="-135.0"/>
      <point x="777.0" y="-122.0" type="curve"/>
      <point x="777.0" y="-100.0" type="line"/>
      <point x="750.464152767" y="-110.383592396"/>
      <point x="720" y="-115"/>
      <point x="691.0" y="-115.0" type="curve" smooth="yes"/>
      <point x="614" y="-115"/>
      <point x="564.0" y="-96.0"/>
      <point x="412.0" y="16.0" type="curve"/>
      <point x="333.0" y="16.0" type="line"/>
      <point x="504.0" y="-128.0"/>
      <point x="576.0" y="-149.0"/>
    </contour>
  </outline>
</glyph>
<glyph name="R" format="1">
  <advance width="603"/>
  <unicode hex="0052"/>
  <outline>
    <contour>
      <point x="65" y="0" type="line"/>
      <point x="280" y="0" type="line"/>
      <point x="280" y="25" type="line"/>
      <point x="205" y="43" type="line"/>
      <point x="205" y="660" type="line"/>
      <point x="65" y="660" type="line"/>
      <point x="65" y="635" type="line"/>
      <point x="145" y="618" type="line"/>
      <point x="145" y="42" type="line"/>
      <point x="65" y="25" type="line"/>
    </contour>
    <contour>
      <point x="489" y="497" type="curve" smooth="yes"/>
      <point x="489" y="598"/>
      <point x="403" y="660"/>
      <point x="263" y="660" type="curve" smooth="yes"/>
      <point x="182" y="660" type="line"/>
      <point x="182" y="625" type="line"/>
      <point x="270" y="625" type="line" smooth="yes"/>
      <point x="364" y="625"/>
      <point x="422" y="571"/>
      <point x="422" y="484" type="curve" smooth="yes"/>
      <point x="422" y="405"/>
      <point x="360" y="348"/>
      <point x="276" y="348" type="curve"/>
      <point x="190" y="348" type="line"/>
      <point x="190" y="313" type="line"/>
      <point x="308" y="313" type="line"/>
      <point x="308" y="322" type="line"/>
      <point x="414" y="343"/>
      <point x="489" y="404"/>
    </contour>
    <contour>
      <point x="492" y="0" type="line"/>
      <point x="608" y="0" type="line"/>
      <point x="608" y="25" type="line"/>
      <point x="542" y="38" type="line"/>
      <point x="344" y="341" type="line"/>
      <point x="274" y="341" type="line"/>
    </contour>
    <contour>
      <point x="297" y="710" type="move" name="top"/>
    </contour>
    <contour>
      <point x="347" y="0" type="move" name="bottom"/>
    </contour>
  </outline>
</glyph>
<glyph name="S" format="1">
  <advance width="516"/>
  <unicode hex="0053"/>
  <outline>
    <contour>
      <point x="254" y="-10" type="curve" smooth="yes"/>
      <point x="357" y="-10"/>
      <point x="461" y="63"/>
      <point x="461" y="162" type="curve" smooth="yes"/>
      <point x="461" y="266"/>
      <point x="407" y="306"/>
      <point x="286" y="364" type="curve" smooth="yes"/>
      <point x="188" y="412"/>
      <point x="142" y="444"/>
      <point x="142" y="520" type="curve" smooth="yes"/>
      <point x="142" y="587"/>
      <point x="187" y="640"/>
      <point x="269" y="640" type="curve" smooth="yes"/>
      <point x="320" y="640"/>
      <point x="351" y="622"/>
      <point x="396" y="577" type="curve"/>
      <point x="364" y="626" type="line"/>
      <point x="418" y="478" type="line"/>
      <point x="436" y="478" type="line"/>
      <point x="426" y="628" type="line"/>
      <point x="374" y="654"/>
      <point x="329" y="670"/>
      <point x="270" y="670" type="curve" smooth="yes"/>
      <point x="175" y="670"/>
      <point x="85" y="582"/>
      <point x="85" y="497" type="curve" smooth="yes"/>
      <point x="85" y="409"/>
      <point x="131" y="372"/>
      <point x="218" y="328" type="curve" smooth="yes"/>
      <point x="330" y="272"/>
      <point x="402" y="251"/>
      <point x="402" y="156" type="curve" smooth="yes"/>
      <point x="402" y="70"/>
      <point x="356" y="21"/>
      <point x="267" y="21" type="curve" smooth="yes"/>
      <point x="215" y="21"/>
      <point x="167" y="32"/>
      <point x="112" y="81" type="curve"/>
      <point x="147" y="35" type="line"/>
      <point x="78" y="190" type="line"/>
      <point x="60" y="190" type="line"/>
      <point x="70" y="36" type="line"/>
      <point x="129" y="6"/>
      <point x="176" y="-10"/>
    </contour>
    <contour>
      <point x="270" y="710" type="move" name="top"/>
    </contour>
    <contour>
      <point x="261" y="0" type="move" name="bottom"/>
    </contour>
  </outline>
</glyph>
<glyph name="U" format="1">
  <advance width="779"/>
  <unicode hex="0055"/>
  <outline>
    <contour>
      <point x="390" y="-10" type="curve" smooth="yes"/>
      <point x="531" y="-10"/>
      <point x="635" y="63"/>
      <point x="635" y="238" type="curve" smooth="yes"/>
      <point x="635" y="619" type="line"/>
      <point x="714" y="635" type="line"/>
      <point x="714" y="660" type="line"/>
      <point x="496" y="660" type="line"/>
      <point x="496" y="635" type="line"/>
      <point x="596" y="620" type="line"/>
      <point x="596" y="227" type="line" smooth="yes"/>
      <point x="596" y="92"/>
      <point x="513" y="32"/>
      <point x="408" y="32" type="curve" smooth="yes"/>
      <point x="283" y="32"/>
      <point x="205" y="85"/>
      <point x="205" y="252" type="curve" smooth="yes"/>
      <point x="205" y="618" type="line"/>
      <point x="285" y="635" type="line"/>
      <point x="285" y="660" type="line"/>
      <point x="65" y="660" type="line"/>
      <point x="65" y="635" type="line"/>
      <point x="145" y="618" type="line"/>
      <point x="145" y="238" type="line" smooth="yes"/>
      <point x="145" y="63"/>
      <point x="249" y="-10"/>
    </contour>
    <contour>
      <point x="401" y="710" type="move" name="top"/>
    </contour>
    <contour>
      <point x="401" y="0" type="move" name="bottom"/>
    </contour>
    <contour>
      <point x="432" y="0" type="move" name="right"/>
    </contour>
  </outline>
</glyph>
<glyph name="V" format="1">
  <advance width="693"/>
  <unicode hex="0056"/>
  <outline>
    <contour>
      <point x="339" y="-5" type="line"/>
      <point x="360" y="-5" type="line"/>
      <point x="609" y="632" type="line"/>
      <point x="586" y="620" type="line"/>
      <point x="658" y="635" type="line"/>
      <point x="658" y="660" type="line"/>
      <point x="472" y="660" type="line"/>
      <point x="472" y="635" type="line"/>
      <point x="560" y="621" type="line"/>
      <point x="560" y="618" type="line"/>
      <point x="360" y="72" type="line"/>
      <point x="381" y="96" type="line"/>
      <point x="349" y="96" type="line"/>
      <point x="371" y="72" type="line"/>
      <point x="164" y="618" type="line"/>
      <point x="164" y="621" type="line"/>
      <point x="248" y="635" type="line"/>
      <point x="248" y="660" type="line"/>
      <point x="35" y="660" type="line"/>
      <point x="35" y="635" type="line"/>
      <point x="135" y="609" type="line"/>
      <point x="91" y="632" type="line"/>
    </contour>
  </outline>
</glyph>
<glyph name="W" format="1">
  <advance width="954"/>
  <unicode hex="0057"/>
  <outline>
    <contour>
      <point x="268" y="-5" type="line"/>
      <point x="289" y="-5" type="line"/>
      <point x="489" y="565" type="line"/>
      <point x="463" y="528" type="line"/>
      <point x="494" y="528" type="line"/>
      <point x="467" y="565" type="line"/>
      <point x="672" y="-5" type="line"/>
      <point x="693" y="-5" type="line"/>
      <point x="879" y="632" type="line"/>
      <point x="849" y="612" type="line"/>
      <point x="939" y="635" type="line"/>
      <point x="939" y="660" type="line"/>
      <point x="745" y="660" type="line"/>
      <point x="745" y="635" type="line"/>
      <point x="855" y="614" type="line"/>
      <point x="838" y="632" type="line"/>
      <point x="691" y="93" type="line"/>
      <point x="711" y="113" type="line"/>
      <point x="680" y="113" type="line"/>
      <point x="700" y="93" type="line"/>
      <point x="501" y="665" type="line"/>
      <point x="480" y="665" type="line"/>
      <point x="295" y="98" type="line"/>
      <point x="314" y="114" type="line"/>
      <point x="283" y="114" type="line"/>
      <point x="302" y="98" type="line"/>
      <point x="150" y="632" type="line"/>
      <point x="101" y="611" type="line"/>
      <point x="242" y="635" type="line"/>
      <point x="242" y="660" type="line"/>
      <point x="15" y="660" type="line"/>
      <point x="15" y="635" type="line"/>
      <point x="127" y="611" type="line"/>
      <point x="83" y="632" type="line"/>
    </contour>
    <contour>
      <point x="491" y="710" type="move" name="top"/>
    </contour>
  </outline>
</glyph>
<glyph name="Z" format="2">
  <advance width="627"/>
  <unicode hex="005A"/>
  <anchor x="314" y="710" name="top"/>
  <anchor x="314" y="0" name="bottom"/>
  <outline>
    <contour>
      <point x="90" y="0" type="line"/>
      <point x="537" y="0" type="line"/>
      <point x="537" y="182" type="line"/>
      <point x="517" y="182" type="line"/>
      <point x="475" y="35" type="line"/>
      <point x="152" y="35" type="line"/>
      <point x="152" y="14" type="line"/>
      <point x="526" y="640" type="line"/>
      <point x="526" y="660" type="line"/>
      <point x="102" y="660" type="line"/>
      <point x="102" y="488" type="line"/>
      <point x="122" y="488" type="line"/>
      <point x="164" y="625" type="line"/>
      <point x="464" y="625" type="line"/>
      <point x="464" y="648" type="line"/>
      <point x="90" y="20" type="line"/>
    </contour>
  </outline>
</glyph>
<glyph name="bracketleft" format="1">
  <advance width="230"/>
  <unicode hex="005B"/>
  <outline>
    <contour>
      <point x="55" y="-150" type="line"/>
      <point x="90" y="-150" type="line"/>
      <point x="90" y="740" type="line"/>
      <point x="55" y="740" type="line"/>
    </contour>
    <contour>
      <point x="57" y="740" type="line"/>
      <point x="57" y="722" type="line"/>
      <point x="217" y="722" type="line"/>
      <point x="217" y="740" type="line"/>
    </contour>
    <contour>
      <point x="57" y="-150" type="line"/>
      <point x="217" y="-150" type="line"/>
      <point x="217" y="-132" type="line"/>
      <point x="57" y="-132" type="line"/>
    </contour>
  </outline>
</glyph>
<glyph name="backslash" format="1">
  <advance width="230"/>
  <unicode hex="005C"/>
  <outline>
    <contour>
      <point x="200" y="-120" type="line"/>
      <point x="230" y="-120" type="line"/>
      <point x="30" y="750" type="line"/>
      <point x="0" y="750" type="line"/>
    </contour>
  </outline>
</glyph>
<glyph name="bracketright" format="1">
  <advance width="230"/>
  <unicode hex="005D"/>
  <outline>
    <contour>
      <point x="140" y="-150" type="line"/>
      <point x="175" y="-150" type="line"/>
      <point x="175" y="740" type="line"/>
      <point x="140" y="740" type="line"/>
    </contour>
    <contour>
      <point x="13" y="740" type="line"/>
      <point x="13" y="722" type="line"/>
      <point x="173" y="722" type="line"/>
      <point x="173" y="740" type="line"/>
    </contour>
    <contour>
      <point x="13" y="-150" type="line"/>
      <point x="173" y="-150" type="line"/>
      <point x="173" y="-132" type="line"/>
      <point x="13" y="-132" type="line"/>
    </contour>
  </outline>
</glyph>
<glyph name="asciicircum" format="1">
  <advance width="500"/>
  <unicode hex="005E"/>
  <outline>
    <contour>
      <point x="40" y="250" type="line"/>
      <point x="71" y="250" type="line"/>
      <point x="255" y="640" type="line"/>
      <point x="245" y="640" type="line"/>
      <point x="429" y="250" type="line"/>
      <point x="460" y="250" type="line"/>
      <point x="263" y="670" type="line"/>
      <point x="237" y="670" type="line"/>
    </contour>
  </outline>
</glyph>
<glyph name="underscore" format="1">
  <advance width="500"/>
  <unicode hex="005F"/>
  <outline>
    <contour>
      <point x="25" y="-130" type="line"/>
      <point x="475" y="-130" type="line"/>
      <point x="475" y="-100" type="line"/>
      <point x="25" y="-100" type="line"/>
    </contour>
  </outline>
</glyph>
<glyph name="a" format="1">
  <advance width="452"/>
  <unicode hex="0061"/>
  <outline>
    <contour>
      <point x="156" y="-10" type="curve" smooth="yes"/>
      <point x="211" y="-10"/>
      <point x="261" y="16"/>
      <point x="296" y="50" type="curve"/>
      <point x="310" y="50" type="line"/>
      <point x="310" y="71" type="line"/>
      <point x="274" y="43"/>
      <point x="224" y="30"/>
      <point x="186" y="30" type="curve" smooth="yes"/>
      <point x="130" y="30"/>
      <point x="98" y="57"/>
      <point x="98" y="112" type="curve" smooth="yes"/>
      <point x="98" y="170"/>
      <point x="133" y="198"/>
      <point x="327" y="237" type="curve"/>
      <point x="327" y="259" type="line"/>
      <point x="197" y="226" type="line" smooth="yes"/>
      <point x="90" y="199"/>
      <point x="48" y="158"/>
      <point x="48" y="94" type="curve" smooth="yes"/>
      <point x="48" y="29"/>
      <point x="94" y="-10"/>
    </contour>
    <contour>
      <point x="375" y="-10" type="curve" smooth="yes"/>
      <point x="411" y="-10"/>
      <point x="432" y="8"/>
      <point x="441" y="22" type="curve"/>
      <point x="441" y="24" type="line"/>
      <point x="440" y="25" type="line"/>
      <point x="388" y="25" type="line" smooth="yes"/>
      <point x="369" y="25"/>
      <point x="356" y="31"/>
      <point x="345" y="40" type="curve"/>
      <point x="345" y="351" type="line" smooth="yes"/>
      <point x="345" y="426"/>
      <point x="296" y="460"/>
      <point x="216" y="460" type="curve" smooth="yes"/>
      <point x="183" y="460"/>
      <point x="145" y="441"/>
      <point x="109" y="418" type="curve" smooth="yes"/>
      <point x="75" y="397"/>
      <point x="58" y="369"/>
      <point x="58" y="343" type="curve" smooth="yes"/>
      <point x="58" y="324"/>
      <point x="63" y="319"/>
      <point x="84" y="319" type="curve" smooth="yes"/>
      <point x="110" y="319" type="line"/>
      <point x="115" y="324" type="line"/>
      <point x="115" y="365" type="line" smooth="yes"/>
      <point x="115" y="405"/>
      <point x="135" y="430"/>
      <point x="193" y="430" type="curve" smooth="yes"/>
      <point x="246" y="430"/>
      <point x="295" y="391"/>
      <point x="295" y="334" type="curve" smooth="yes"/>
      <point x="295" y="56" type="line"/>
      <point x="297" y="56" type="line"/>
      <point x="300.999313082" y="22.0058388061"/>
      <point x="324.64556962" y="-10.0"/>
    </contour>
    <contour>
      <point x="216.0" y="510.0" type="move" name="top"/>
    </contour>
    <contour>
      <point x="387.0" y="0.0" type="move" name="right"/>
    </contour>
    <contour>
      <point x="218.0" y="0.0" type="move" name="bottom"/>
    </contour>
  </outline>
</glyph>
<glyph name="b" format="1">
  <advance width="542"/>
  <unicode hex="0062"/>
  <outline>
    <contour>
      <point x="116" y="0" type="line"/>
      <point x="125" y="0" type="line"/>
      <point x="166" y="55" type="line"/>
      <point x="166" y="750" type="line"/>
      <point x="156" y="750" type="line"/>
      <point x="43" y="731" type="line"/>
      <point x="43" y="716" type="line"/>
      <point x="116" y="702" type="line"/>
    </contour>
    <contour>
      <point x="259" y="-10" type="curve" smooth="yes"/>
      <point x="387" y="-10"/>
      <point x="493" y="83"/>
      <point x="493" y="247" type="curve" smooth="yes"/>
      <point x="493" y="379"/>
      <point x="420" y="460"/>
      <point x="320" y="460" type="curve" smooth="yes"/>
      <point x="266" y="460"/>
      <point x="221" y="441"/>
      <point x="170" y="398" type="curve"/>
      <point x="156" y="398" type="line"/>
      <point x="156" y="367" type="line"/>
      <point x="194" y="404"/>
      <point x="239" y="426"/>
      <point x="293" y="426" type="curve" smooth="yes"/>
      <point x="370" y="426"/>
      <point x="446" y="366"/>
      <point x="446" y="231" type="curve" smooth="yes"/>
      <point x="446" y="75"/>
      <point x="375" y="16"/>
      <point x="294" y="16" type="curve" smooth="yes"/>
      <point x="243" y="16"/>
      <point x="204" y="31"/>
      <point x="161" y="60" type="curve"/>
      <point x="130" y="39" type="line"/>
      <point x="166" y="12"/>
      <point x="218" y="-10"/>
    </contour>
  </outline>
</glyph>
<glyph name="c" format="2">
  <advance width="472"/>
  <unicode hex="0063"/>
  <anchor x="264" y="510" name="top"/>
  <anchor x="265" y="0" name="bottom"/>
  <outline>
    <contour>
      <point x="264" y="-10" type="curve" smooth="yes"/>
      <point x="339" y="-10"/>
      <point x="397" y="24"/>
      <point x="427" y="71" type="curve"/>
      <point x="427" y="84" type="line"/>
      <point x="424" y="84" type="line"/>
      <point x="395" y="52"/>
      <point x="340" y="32"/>
      <point x="278" y="32" type="curve" smooth="yes"/>
      <point x="165" y="32"/>
      <point x="100" y="112"/>
      <point x="100" y="229" type="curve" smooth="yes"/>
      <point x="100" y="368"/>
      <point x="184" y="438"/>
      <point x="277" y="438" type="curve" smooth="yes"/>
      <point x="309" y="438"/>
      <point x="336" y="432"/>
      <point x="360" y="420" type="curve"/>
      <point x="313" y="444" type="line"/>
      <point x="388" y="347" type="line"/>
      <point x="416" y="368" type="line" smooth="yes"/>
      <point x="421" y="372"/>
      <point x="426" y="377"/>
      <point x="426" y="382" type="curve" smooth="yes"/>
      <point x="426" y="414"/>
      <point x="362" y="460"/>
      <point x="284" y="460" type="curve" smooth="yes"/>
      <point x="143" y="460"/>
      <point x="50" y="357"/>
      <point x="50" y="216" type="curve" smooth="yes"/>
      <point x="50" y="88"/>
      <point x="124" y="-10"/>
    </contour>
  </outline>
</glyph>
<glyph name="d" format="1">
  <advance width="544"/>
  <unicode hex="0064"/>
  <outline>
    <contour>
      <point x="221" y="-10" type="curve" smooth="yes"/>
      <point x="278" y="-10"/>
      <point x="326" y="13"/>
      <point x="371" y="51" type="curve"/>
      <point x="386" y="51" type="line"/>
      <point x="386" y="86" type="line"/>
      <point x="347" y="43"/>
      <point x="297" y="24"/>
      <point x="248" y="24" type="curve" smooth="yes"/>
      <point x="171" y="24"/>
      <point x="95" y="84"/>
      <point x="95" y="219" type="curve" smooth="yes"/>
      <point x="95" y="375"/>
      <point x="166" y="434"/>
      <point x="247" y="434" type="curve" smooth="yes"/>
      <point x="302" y="434"/>
      <point x="346" y="415"/>
      <point x="396" y="385" type="curve"/>
      <point x="411" y="411" type="line"/>
      <point x="375" y="438"/>
      <point x="323" y="460"/>
      <point x="282" y="460" type="curve"/>
      <point x="154" y="460"/>
      <point x="48" y="367"/>
      <point x="48" y="203" type="curve" smooth="yes"/>
      <point x="48" y="71"/>
      <point x="121" y="-10"/>
    </contour>
    <contour>
      <point x="385" y="0" type="line"/>
      <point x="496" y="0" type="line"/>
      <point x="496" y="15" type="line"/>
      <point x="425" y="32" type="line"/>
      <point x="425" y="750" type="line"/>
      <point x="415" y="750" type="line"/>
      <point x="302" y="736" type="line"/>
      <point x="302" y="721" type="line"/>
      <point x="375" y="702" type="line"/>
      <point x="375" y="60" type="line"/>
    </contour>
    <contour>
      <point x="522" y="740" type="move" name="right"/>
    </contour>
    <contour>
      <point x="246" y="0" type="move" name="bottom"/>
    </contour>
  </outline>
</glyph>
<glyph name="e" format="1">
  <advance width="481"/>
  <unicode hex="0065"/>
  <outline>
    <contour>
      <point x="267" y="-10" type="curve" smooth="yes"/>
      <point x="342" y="-10"/>
      <point x="400" y="24"/>
      <point x="430" y="71" type="curve"/>
      <point x="430" y="84" type="line"/>
      <point x="427" y="84" type="line"/>
      <point x="398" y="52"/>
      <point x="343" y="32"/>
      <point x="281" y="32" type="curve" smooth="yes"/>
      <point x="166" y="32"/>
      <point x="100" y="112"/>
      <point x="100" y="229" type="curve" smooth="yes"/>
      <point x="100" y="360"/>
      <point x="167" y="438"/>
      <point x="243" y="438" type="curve" smooth="yes"/>
      <point x="326" y="438"/>
      <point x="364" y="379"/>
      <point x="376" y="279" type="curve"/>
      <point x="394" y="283" type="line"/>
      <point x="87" y="283" type="line"/>
      <point x="87" y="261" type="line"/>
      <point x="428" y="261" type="line"/>
      <point x="431" y="264" type="line"/>
      <point x="421" y="387"/>
      <point x="361" y="460"/>
      <point x="255" y="460" type="curve" smooth="yes"/>
      <point x="145" y="460"/>
      <point x="50" y="351"/>
      <point x="50" y="216" type="curve" smooth="yes"/>
      <point x="50" y="88"/>
      <point x="125" y="-10"/>
    </contour>
    <contour>
      <point x="255.0" y="510.0" type="move" name="top"/>
    </contour>
    <contour>
      <point x="371" y="0" type="move" name="right"/>
    </contour>
    <contour>
      <point x="267.0" y="0.0" type="move" name="bottom"/>
    </contour>
  </outline>
</glyph>
<glyph name="f" format="2">
  <advance width="330"/>
  <unicode hex="0066"/>
  <outline>
    <contour>
      <point x="64" y="0" type="line"/>
      <point x="254" y="0" type="line"/>
      <point x="254" y="15" type="line"/>
      <point x="177" y="32" type="line"/>
      <point x="177" y="506" type="line" smooth="yes"/>
      <point x="177" y="616"/>
      <point x="224" y="699"/>
      <point x="290" y="720" type="curve"/>
      <point x="261" y="712" type="line"/>
      <point x="362" y="685" type="line"/>
      <point x="372" y="717" type="line" smooth="yes"/>
      <point x="373" y="720"/>
      <point x="374" y="723"/>
      <point x="374" y="726" type="curve" smooth="yes"/>
      <point x="374" y="738"/>
      <point x="359" y="750"/>
      <point x="331" y="750" type="curve" smooth="yes"/>
      <point x="230" y="750"/>
      <point x="127" y="608"/>
      <point x="127" y="504" type="curve" smooth="yes"/>
      <point x="127" y="32" type="line"/>
      <point x="64" y="15" type="line"/>
    </contour>
    <contour>
      <point x="39" y="416" type="line"/>
      <point x="309" y="416" type="line"/>
      <point x="309" y="450" type="line"/>
      <point x="39" y="450" type="line"/>
    </contour>
  </outline>
</glyph>
<glyph name="g" format="2">
  <advance width="506"/>
  <unicode hex="0067"/>
  <anchor x="235" y="510" name="top"/>
  <outline>
    <contour>
      <point x="229" y="167" type="curve" smooth="yes"/>
      <point x="313" y="167"/>
      <point x="382" y="229"/>
      <point x="382" y="313" type="curve" smooth="yes"/>
      <point x="382" y="357"/>
      <point x="368" y="394"/>
      <point x="341" y="420" type="curve"/>
      <point x="321" y="437" type="line"/>
      <point x="297" y="452"/>
      <point x="258" y="460"/>
      <point x="229" y="460" type="curve" smooth="yes"/>
      <point x="145" y="460"/>
      <point x="75" y="396"/>
      <point x="75" y="313" type="curve" smooth="yes"/>
      <point x="75" y="229"/>
      <point x="145" y="167"/>
    </contour>
    <contour>
      <point x="239" y="186" type="curve" smooth="yes"/>
      <point x="173" y="186"/>
      <point x="126" y="228"/>
      <point x="126" y="316" type="curve" smooth="yes"/>
      <point x="126" y="394"/>
      <point x="161" y="442"/>
      <point x="223" y="442" type="curve" smooth="yes"/>
      <point x="284" y="442"/>
      <point x="332" y="398"/>
      <point x="332" y="311" type="curve" smooth="yes"/>
      <point x="332" y="231"/>
      <point x="296" y="186"/>
    </contour>
    <contour>
      <point x="440" y="409" type="line"/>
      <point x="440" y="450" type="line"/>
      <point x="308" y="441" type="line"/>
      <point x="308" y="407" type="line"/>
      <point x="339" y="407" type="line"/>
      <point x="349" y="416" type="line"/>
    </contour>
    <contour>
      <point x="254" y="-240" type="curve" smooth="yes"/>
      <point x="383" y="-240"/>
      <point x="457" y="-155"/>
      <point x="457" y="-75" type="curve" smooth="yes"/>
      <point x="457" y="-4"/>
      <point x="414" y="40"/>
      <point x="335" y="40" type="curve" smooth="yes"/>
      <point x="204" y="40" type="line" smooth="yes"/>
      <point x="131" y="40"/>
      <point x="113" y="59"/>
      <point x="113" y="101" type="curve" smooth="yes"/>
      <point x="113" y="124"/>
      <point x="128" y="146"/>
      <point x="174" y="180" type="curve"/>
      <point x="174" y="201" type="line"/>
      <point x="152" y="201" type="line"/>
      <point x="152" y="183" type="line"/>
      <point x="84" y="123" type="line"/>
      <point x="80" y="109"/>
      <point x="78" y="96"/>
      <point x="78" y="83" type="curve" smooth="yes"/>
      <point x="78" y="33"/>
      <point x="111" y="0"/>
      <point x="187" y="0" type="curve" smooth="yes"/>
      <point x="303" y="0" type="line" smooth="yes"/>
      <point x="392" y="0"/>
      <point x="415" y="-25"/>
      <point x="415" y="-86" type="curve" smooth="yes"/>
      <point x="415" y="-161"/>
      <point x="363" y="-218"/>
      <point x="264" y="-218" type="curve" smooth="yes"/>
      <point x="180" y="-218"/>
      <point x="123" y="-165"/>
      <point x="123" y="-87" type="curve" smooth="yes"/>
      <point x="123" y="-49"/>
      <point x="142" y="-15"/>
      <point x="190" y="1" type="curve"/>
      <point x="187" y="12" type="line"/>
      <point x="154" y="12" type="line"/>
      <point x="154" y="0" type="line"/>
      <point x="84" y="-51" type="line"/>
      <point x="81" y="-66"/>
      <point x="80" y="-81"/>
      <point x="80" y="-94" type="curve" smooth="yes"/>
      <point x="80" y="-182"/>
      <point x="139.95946686006937" y="-240.0"/>
    </contour>
  </outline>
</glyph>
<glyph name="i" format="1">
  <advance width="302"/>
  <unicode hex="0069"/>
  <outline>
    <contour>
      <point x="64" y="0" type="line"/>
      <point x="248" y="0" type="line"/>
      <point x="248" y="15" type="line"/>
      <point x="177" y="32" type="line"/>
      <point x="177" y="460" type="line"/>
      <point x="167" y="460" type="line"/>
      <point x="54" y="446" type="line"/>
      <point x="54" y="431" type="line"/>
      <point x="127" y="412" type="line"/>
      <point x="127" y="32" type="line"/>
      <point x="64" y="15" type="line"/>
    </contour>
    <contour>
      <point x="138" y="618" type="curve" smooth="yes"/>
      <point x="160" y="618"/>
      <point x="176" y="634"/>
      <point x="176" y="656" type="curve" smooth="yes"/>
      <point x="176" y="678"/>
      <point x="160" y="694"/>
      <point x="138" y="694" type="curve" smooth="yes"/>
      <point x="116" y="694"/>
      <point x="100" y="678"/>
      <point x="100" y="656" type="curve" smooth="yes"/>
      <point x="100" y="634"/>
      <point x="116" y="618"/>
    </contour>
    <contour>
      <point x="152" y="510.0" type="move" name="top"/>
    </contour>
    <contour>
      <point x="152" y="0.0" type="move" name="bottom"/>
    </contour>
    <contour>
      <point x="184" y="0" type="move" name="right"/>
    </contour>
  </outline>
</glyph>
<glyph name="j" format="1">
  <advance width="277"/>
  <unicode hex="006A"/>
  <outline>
    <contour>
      <point x="64" y="-230" type="line"/>
      <point x="167" y="-174"/>
      <point x="177" y="-101"/>
      <point x="177" y="0" type="curve" smooth="yes"/>
      <point x="177" y="460" type="line"/>
      <point x="167" y="460" type="line"/>
      <point x="54" y="446" type="line"/>
      <point x="54" y="431" type="line"/>
      <point x="127" y="412" type="line"/>
      <point x="127" y="0" type="line" smooth="yes"/>
      <point x="127" y="-112"/>
      <point x="123" y="-159"/>
      <point x="64" y="-214" type="curve"/>
    </contour>
    <contour>
      <point x="138" y="618" type="curve" smooth="yes"/>
      <point x="160" y="618"/>
      <point x="176" y="634"/>
      <point x="176" y="656" type="curve" smooth="yes"/>
      <point x="176" y="678"/>
      <point x="160" y="694"/>
      <point x="138" y="694" type="curve" smooth="yes"/>
      <point x="116" y="694"/>
      <point x="100" y="678"/>
      <point x="100" y="656" type="curve" smooth="yes"/>
      <point x="100" y="634"/>
      <point x="116" y="618"/>
    </contour>
    <contour>
      <point x="152" y="510" type="move" name="top"/>
    </contour>
  </outline>
</glyph>
<glyph name="k" format="1">
  <advance width="528"/>
  <unicode hex="006B"/>
  <outline>
    <contour>
      <point x="58" y="0" type="line"/>
      <point x="242" y="0" type="line"/>
      <point x="242" y="15" type="line"/>
      <point x="171" y="32" type="line"/>
      <point x="171" y="750" type="line"/>
      <point x="161" y="750" type="line"/>
      <point x="48" y="736" type="line"/>
      <point x="48" y="721" type="line"/>
      <point x="121" y="702" type="line"/>
      <point x="121" y="32" type="line"/>
      <point x="58" y="15" type="line"/>
    </contour>
    <contour>
      <point x="394" y="0" type="line"/>
      <point x="500" y="0" type="line"/>
      <point x="500" y="15" type="line"/>
      <point x="437" y="32" type="line"/>
      <point x="208" y="274" type="line"/>
      <point x="182" y="244" type="line"/>
      <point x="399" y="416" type="line"/>
      <point x="463" y="435" type="line"/>
      <point x="463" y="450" type="line"/>
      <point x="303" y="450" type="line"/>
      <point x="303" y="435" type="line"/>
      <point x="352" y="415" type="line"/>
      <point x="352" y="409" type="line"/>
      <point x="171" y="251" type="line"/>
      <point x="171" y="244" type="line"/>
      <point x="367" y="34" type="line"/>
    </contour>
    <contour>
      <point x="288" y="0" type="move" name="bottom"/>
    </contour>
  </outline>
</glyph>
<glyph name="l" format="1">
  <advance width="282"/>
  <unicode hex="006C"/>
  <outline>
    <contour>
      <point x="54" y="0" type="line"/>
      <point x="238" y="0" type="line"/>
      <point x="238" y="15" type="line"/>
      <point x="167" y="32" type="line"/>
      <point x="167" y="750" type="line"/>
      <point x="157" y="750" type="line"/>
      <point x="44" y="736" type="line"/>
      <point x="44" y="721" type="line"/>
      <point x="117" y="702" type="line"/>
      <point x="117" y="32" type="line"/>
      <point x="54" y="15" type="line"/>
    </contour>
    <contour>
      <point x="142" y="765" type="move" name="top"/>
    </contour>
    <contour>
      <point x="264" y="740" type="move" name="right"/>
    </contour>
    <contour>
      <point x="282" y="300" type="move" name="mid"/>
    </contour>
    <contour>
      <point x="142" y="0" type="move" name="bottom"/>
    </contour>
  </outline>
</glyph>
<glyph name="m" format="1">
  <advance width="799"/>
  <unicode hex="006D"/>
  <outline>
    <contour>
      <point x="52" y="0" type="line"/>
      <point x="236" y="0" type="line"/>
      <point x="236" y="15" type="line"/>
      <point x="165" y="32" type="line"/>
      <point x="165" y="380" type="line"/>
      <point x="160" y="460" type="line"/>
      <point x="150" y="460" type="line"/>
      <point x="42" y="436" type="line"/>
      <point x="42" y="421" type="line"/>
      <point x="115" y="412" type="line"/>
      <point x="115" y="32" type="line"/>
      <point x="52" y="15" type="line"/>
    </contour>
    <contour>
      <point x="314" y="0" type="line"/>
      <point x="498" y="0" type="line"/>
      <point x="498" y="15" type="line"/>
      <point x="435" y="32" type="line"/>
      <point x="435" y="323" type="line" smooth="yes"/>
      <point x="435" y="413"/>
      <point x="379" y="460"/>
      <point x="301" y="460" type="curve" smooth="yes"/>
      <point x="251" y="460"/>
      <point x="214" y="436"/>
      <point x="167" y="388" type="curve"/>
      <point x="157" y="388" type="line"/>
      <point x="157" y="353" type="line"/>
      <point x="182" y="395"/>
      <point x="236" y="420"/>
      <point x="277" y="420" type="curve" smooth="yes"/>
      <point x="341" y="420"/>
      <point x="385" y="377"/>
      <point x="385" y="296" type="curve" smooth="yes"/>
      <point x="385" y="32" type="line"/>
      <point x="314" y="15" type="line"/>
    </contour>
    <contour>
      <point x="582" y="0" type="line"/>
      <point x="766" y="0" type="line"/>
      <point x="766" y="15" type="line"/>
      <point x="703" y="32" type="line"/>
      <point x="703" y="323" type="line" smooth="yes"/>
      <point x="703" y="413"/>
      <point x="645" y="460"/>
      <point x="564" y="460" type="curve" smooth="yes"/>
      <point x="512" y="460"/>
      <point x="473" y="437"/>
      <point x="425" y="388" type="curve"/>
      <point x="415" y="388" type="line"/>
      <point x="415" y="353" type="line"/>
      <point x="441" y="396"/>
      <point x="497" y="420"/>
      <point x="540" y="420" type="curve" smooth="yes"/>
      <point x="607" y="420"/>
      <point x="653" y="377"/>
      <point x="653" y="296" type="curve" smooth="yes"/>
      <point x="653" y="32" type="line"/>
      <point x="582" y="15" type="line"/>
    </contour>
    <contour>
      <point x="410" y="0" type="move" name="bottom"/>
    </contour>
  </outline>
</glyph>
<glyph name="n" format="1">
  <advance width="562"/>
  <unicode hex="006E"/>
  <outline>
    <contour>
      <point x="58" y="0" type="line"/>
      <point x="242" y="0" type="line"/>
      <point x="242" y="15" type="line"/>
      <point x="171" y="32" type="line"/>
      <point x="171" y="380" type="line"/>
      <point x="166" y="460" type="line"/>
      <point x="156" y="460" type="line"/>
      <point x="48" y="436" type="line"/>
      <point x="48" y="421" type="line"/>
      <point x="121" y="412" type="line"/>
      <point x="121" y="32" type="line"/>
      <point x="58" y="15" type="line"/>
    </contour>
    <contour>
      <point x="340" y="0" type="line"/>
      <point x="524" y="0" type="line"/>
      <point x="524" y="15" type="line"/>
      <point x="461" y="32" type="line"/>
      <point x="461" y="323" type="line" smooth="yes"/>
      <point x="461" y="413"/>
      <point x="401" y="460"/>
      <point x="317" y="460" type="curve" smooth="yes"/>
      <point x="263" y="460"/>
      <point x="222" y="438"/>
      <point x="173" y="388" type="curve"/>
      <point x="163" y="388" type="line"/>
      <point x="163" y="353" type="line"/>
      <point x="189" y="396"/>
      <point x="249" y="420"/>
      <point x="293" y="420" type="curve" smooth="yes"/>
      <point x="363" y="420"/>
      <point x="411" y="377"/>
      <point x="411" y="296" type="curve" smooth="yes"/>
      <point x="411" y="32" type="line"/>
      <point x="340" y="15" type="line"/>
    </contour>
    <contour>
      <point x="291.0" y="510.0" type="move" name="top"/>
    </contour>
    <contour>
      <point x="291.0" y="0.0" type="move" name="bottom"/>
    </contour>
  </outline>
</glyph>
<glyph name="o" format="2">
  <advance width="510"/>
  <unicode hex="006F"/>
  <anchor x="255" y="510" name="top"/>
  <anchor x="277" y="0" name="right"/>
  <anchor x="260" y="0" name="bottom"/>
  <outline>
    <contour>
      <point x="255" y="-10" type="curve" smooth="yes"/>
      <point x="377" y="-10"/>
      <point x="460" y="91"/>
      <point x="460" y="225" type="curve" smooth="yes"/>
      <point x="460" y="359"/>
      <point x="377" y="460"/>
      <point x="255" y="460" type="curve" smooth="yes"/>
      <point x="133" y="460"/>
      <point x="50" y="359"/>
      <point x="50" y="225" type="curve" smooth="yes"/>
      <point x="50" y="91"/>
      <point x="133" y="-10"/>
    </contour>
    <contour>
      <point x="269" y="13" type="curve" smooth="yes"/>
      <point x="164" y="13"/>
      <point x="100" y="116"/>
      <point x="100" y="246" type="curve" smooth="yes"/>
      <point x="100" y="353"/>
      <point x="154" y="438"/>
      <point x="243" y="438" type="curve" smooth="yes"/>
      <point x="351" y="438"/>
      <point x="410" y="334"/>
      <point x="410" y="205" type="curve" smooth="yes"/>
      <point x="410" y="106"/>
      <point x="361" y="13"/>
    </contour>
  </outline>
</glyph>
<glyph name="q" format="1">
  <advance width="527"/>
  <unicode hex="0071"/>
  <outline>
    <contour>
      <point x="298" y="-230" type="line"/>
      <point x="488" y="-230" type="line"/>
      <point x="488" y="-215" type="line"/>
      <point x="425" y="-198" type="line"/>
      <point x="425" y="460" type="line"/>
      <point x="416" y="460" type="line"/>
      <point x="375" y="405" type="line"/>
      <point x="411" y="411" type="line"/>
      <point x="375" y="438"/>
      <point x="323" y="460"/>
      <point x="282" y="460" type="curve" smooth="yes"/>
      <point x="154" y="460"/>
      <point x="48" y="367"/>
      <point x="48" y="203" type="curve" smooth="yes"/>
      <point x="48" y="71"/>
      <point x="121" y="-10"/>
      <point x="221" y="-10" type="curve" smooth="yes"/>
      <point x="269" y="-10"/>
      <point x="315" y="4"/>
      <point x="372" y="52" type="curve"/>
      <point x="397" y="52" type="line"/>
      <point x="397" y="94" type="line"/>
      <point x="346" y="42"/>
      <point x="297" y="24"/>
      <point x="248" y="24" type="curve" smooth="yes"/>
      <point x="171" y="24"/>
      <point x="95" y="84"/>
      <point x="95" y="219" type="curve" smooth="yes"/>
      <point x="95" y="375"/>
      <point x="166" y="434"/>
      <point x="247" y="434" type="curve" smooth="yes"/>
      <point x="288" y="434"/>
      <point x="322" y="423"/>
      <point x="356" y="405" type="curve" smooth="yes"/>
      <point x="373" y="396"/>
      <point x="375" y="394"/>
      <point x="375" y="339" type="curve" smooth="yes"/>
      <point x="375" y="-198" type="line"/>
      <point x="298" y="-215" type="line"/>
    </contour>
  </outline>
</glyph>
<glyph name="r" format="2">
  <advance width="361"/>
  <unicode hex="0072"/>
  <anchor x="230" y="510" name="top"/>
  <anchor x="150" y="0" name="bottom"/>
  <outline>
    <contour>
      <point x="62" y="0" type="line"/>
      <point x="252" y="0" type="line"/>
      <point x="252" y="15" type="line"/>
      <point x="175" y="32" type="line"/>
      <point x="175" y="356" type="line"/>
      <point x="170" y="460" type="line"/>
      <point x="160" y="460" type="line"/>
      <point x="52" y="436" type="line"/>
      <point x="52" y="421" type="line"/>
      <point x="125" y="412" type="line"/>
      <point x="125" y="32" type="line"/>
      <point x="62" y="15" type="line"/>
    </contour>
    <contour>
      <point x="300" y="424" type="curve"/>
      <point x="253" y="415" type="line"/>
      <point x="351" y="398" type="line"/>
      <point x="355" y="417" type="line" smooth="yes"/>
      <point x="357" y="427"/>
      <point x="357" y="433"/>
      <point x="357" y="436" type="curve" smooth="yes"/>
      <point x="357" y="451"/>
      <point x="345" y="460"/>
      <point x="322" y="460" type="curve" smooth="yes"/>
      <point x="287" y="460"/>
      <point x="257.9522789702928" y="443.1605219399986"/>
      <point x="177" y="361" type="curve"/>
      <point x="167" y="361" type="line"/>
      <point x="167" y="322" type="line"/>
      <point x="191" y="361"/>
      <point x="253" y="411"/>
    </contour>
  </outline>
</glyph>
<glyph name="s" format="1">
  <advance width="405"/>
  <unicode hex="0073"/>
  <outline>
    <contour>
      <point x="182" y="-10" type="curve" smooth="yes"/>
      <point x="276" y="-10"/>
      <point x="337" y="49"/>
      <point x="337" y="117" type="curve" smooth="yes"/>
      <point x="337" y="193"/>
      <point x="299" y="221"/>
      <point x="212" y="256" type="curve" smooth="yes"/>
      <point x="147" y="282"/>
      <point x="119" y="306"/>
      <point x="119" y="355" type="curve" smooth="yes"/>
      <point x="119" y="405"/>
      <point x="147" y="438"/>
      <point x="199" y="438" type="curve" smooth="yes"/>
      <point x="236" y="438"/>
      <point x="278" y="420"/>
      <point x="292" y="373" type="curve" smooth="yes"/>
      <point x="305" y="330" type="line"/>
      <point x="317" y="330" type="line"/>
      <point x="317" y="432" type="line"/>
      <point x="289" y="447"/>
      <point x="251" y="460"/>
      <point x="201" y="460" type="curve" smooth="yes"/>
      <point x="134" y="460"/>
      <point x="75" y="407"/>
      <point x="75" y="343" type="curve" smooth="yes"/>
      <point x="75" y="274"/>
      <point x="112" y="243"/>
      <point x="192" y="211" type="curve" smooth="yes"/>
      <point x="268" y="181"/>
      <point x="291" y="156"/>
      <point x="291" y="104" type="curve" smooth="yes"/>
      <point x="291" y="46"/>
      <point x="254" y="13"/>
      <point x="190" y="13" type="curve" smooth="yes"/>
      <point x="132" y="13"/>
      <point x="101" y="38"/>
      <point x="89" y="78" type="curve" smooth="yes"/>
      <point x="75" y="123" type="line"/>
      <point x="63" y="123" type="line"/>
      <point x="63" y="19" type="line"/>
      <point x="101" y="0"/>
      <point x="135" y="-10"/>
    </contour>
    <contour>
      <point x="200" y="510" type="move" name="top"/>
    </contour>
    <contour>
      <point x="194" y="0" type="move" name="bottom"/>
    </contour>
  </outline>
</glyph>
<glyph name="u" format="1">
  <advance width="529"/>
  <unicode hex="0075"/>
  <outline>
    <contour>
      <point x="238" y="-10" type="curve" smooth="yes"/>
      <point x="289" y="-10"/>
      <point x="328" y="13"/>
      <point x="376" y="61" type="curve"/>
      <point x="387" y="61" type="line"/>
      <point x="387" y="97" type="line"/>
      <point x="361" y="54"/>
      <point x="304" y="30"/>
      <point x="262" y="30" type="curve" smooth="yes"/>
      <point x="195" y="30"/>
      <point x="149" y="73"/>
      <point x="149" y="154" type="curve" smooth="yes"/>
      <point x="149" y="450" type="line"/>
      <point x="28" y="450" type="line"/>
      <point x="28" y="435" type="line"/>
      <point x="99" y="418" type="line"/>
      <point x="99" y="127" type="line" smooth="yes"/>
      <point x="99" y="37"/>
      <point x="157" y="-10"/>
    </contour>
    <contour>
      <point x="379" y="0" type="line"/>
      <point x="500" y="0" type="line"/>
      <point x="500" y="15" type="line"/>
      <point x="429" y="32" type="line"/>
      <point x="429" y="450" type="line"/>
      <point x="298" y="450" type="line"/>
      <point x="298" y="435" type="line"/>
      <point x="379" y="418" type="line"/>
    </contour>
    <contour>
      <point x="264" y="510" type="move" name="top"/>
    </contour>
    <contour>
      <point x="262" y="0" type="move" name="bottom"/>
    </contour>
    <contour>
      <point x="446" y="0" type="move" name="right"/>
    </contour>
  </outline>
</glyph>
<glyph name="v" format="1">
  <advance width="424"/>
  <unicode hex="0076"/>
  <outline>
    <contour>
      <point x="204" y="-5" type="line"/>
      <point x="212" y="-5" type="line"/>
      <point x="229" y="44" type="line"/>
      <point x="229" y="65" type="line"/>
      <point x="222" y="65" type="line"/>
      <point x="93" y="415" type="line"/>
      <point x="93" y="418" type="line"/>
      <point x="170" y="435" type="line"/>
      <point x="170" y="450" type="line"/>
      <point x="-22" y="450" type="line"/>
      <point x="-22" y="435" type="line"/>
      <point x="41" y="416" type="line"/>
    </contour>
    <contour>
      <point x="214" y="-5" type="line"/>
      <point x="384" y="416" type="line"/>
      <point x="448" y="435" type="line"/>
      <point x="448" y="450" type="line"/>
      <point x="271" y="450" type="line"/>
      <point x="271" y="435" type="line"/>
      <point x="352" y="417" type="line"/>
      <point x="352" y="414" type="line"/>
      <point x="210" y="23" type="line"/>
      <point x="210" y="-5" type="line"/>
    </contour>
  </outline>
</glyph>
<glyph name="w" format="1">
  <advance width="678"/>
  <unicode hex="0077"/>
  <outline>
    <contour>
      <point x="180" y="-5" type="line"/>
      <point x="188" y="-5" type="line"/>
      <point x="206" y="45" type="line"/>
      <point x="206" y="68" type="line"/>
      <point x="198" y="68" type="line"/>
      <point x="92" y="415" type="line"/>
      <point x="92" y="418" type="line"/>
      <point x="169" y="435" type="line"/>
      <point x="169" y="450" type="line"/>
      <point x="-23" y="450" type="line"/>
      <point x="-23" y="435" type="line"/>
      <point x="40" y="416" type="line"/>
    </contour>
    <contour>
      <point x="342" y="450" type="line"/>
      <point x="186" y="23" type="line"/>
      <point x="186" y="-5" type="line"/>
      <point x="190" y="-5" type="line"/>
      <point x="346" y="381" type="line"/>
      <point x="331" y="381" type="line"/>
      <point x="480" y="-5" type="line"/>
      <point x="487" y="-5" type="line"/>
      <point x="503" y="55" type="line"/>
      <point x="357" y="450" type="line"/>
    </contour>
    <contour>
      <point x="490" y="-5" type="line"/>
      <point x="637" y="416" type="line"/>
      <point x="701" y="435" type="line"/>
      <point x="701" y="450" type="line"/>
      <point x="524" y="450" type="line"/>
      <point x="524" y="435" type="line"/>
      <point x="605" y="417" type="line"/>
      <point x="605" y="414" type="line"/>
      <point x="501" y="71" type="line"/>
      <point x="483" y="71" type="line"/>
      <point x="483" y="-5" type="line"/>
    </contour>
    <contour>
      <point x="350.0" y="510.0" type="move" name="top"/>
    </contour>
  </outline>
</glyph>
<glyph name="x" format="1">
  <advance width="466"/>
  <unicode hex="0078"/>
  <outline>
    <contour>
      <point x="276" y="0" type="line"/>
      <point x="440" y="0" type="line"/>
      <point x="440" y="15" type="line"/>
      <point x="389" y="33" type="line"/>
      <point x="145" y="415" type="line"/>
      <point x="145" y="418" type="line"/>
      <point x="208" y="435" type="line"/>
      <point x="208" y="450" type="line"/>
      <point x="31" y="450" type="line"/>
      <point x="31" y="435" type="line"/>
      <point x="89" y="417" type="line"/>
      <point x="332" y="35" type="line"/>
      <point x="332" y="32" type="line"/>
      <point x="276" y="15" type="line"/>
    </contour>
    <contour>
      <point x="26" y="0" type="line"/>
      <point x="176" y="0" type="line"/>
      <point x="176" y="15" type="line"/>
      <point x="122" y="32" type="line"/>
      <point x="122" y="35" type="line"/>
      <point x="228" y="224" type="line"/>
      <point x="225" y="247" type="line"/>
      <point x="84" y="31" type="line"/>
      <point x="26" y="15" type="line"/>
    </contour>
    <contour>
      <point x="423" y="450" type="line"/>
      <point x="282" y="450" type="line"/>
      <point x="282" y="435" type="line"/>
      <point x="337" y="418" type="line"/>
      <point x="337" y="415" type="line"/>
      <point x="236" y="243" type="line"/>
      <point x="238" y="220" type="line"/>
      <point x="369" y="413" type="line"/>
      <point x="423" y="435" type="line"/>
    </contour>
  </outline>
</glyph>
<glyph name="y" format="2">
  <advance width="424"/>
  <unicode hex="0079"/>
  <anchor x="220" y="510" name="top"/>
  <anchor x="240" y="-50" name="bottom"/>
  <outline>
    <contour>
      <point x="-23" y="450" type="line"/>
      <point x="-23" y="435" type="line"/>
      <point x="40" y="416" type="line"/>
      <point x="210" y="-5" type="line"/>
      <point x="235" y="58" type="line"/>
      <point x="235" y="72" type="line"/>
      <point x="226" y="72" type="line"/>
      <point x="92" y="415" type="line"/>
      <point x="92" y="418" type="line"/>
      <point x="169" y="435" type="line"/>
      <point x="169" y="450" type="line"/>
    </contour>
    <contour>
      <point x="91" y="-192" type="curve"/>
      <point x="115" y="-184" type="line"/>
      <point x="14" y="-184" type="line"/>
      <point x="14" y="-211" type="line" smooth="yes"/>
      <point x="14" y="-233"/>
      <point x="18" y="-240"/>
      <point x="46" y="-240" type="curve" smooth="yes"/>
      <point x="97" y="-240"/>
      <point x="133" y="-211"/>
      <point x="177" y="-102" type="curve" smooth="yes"/>
      <point x="383" y="416" type="line"/>
      <point x="447" y="435" type="line"/>
      <point x="447" y="450" type="line"/>
      <point x="270" y="450" type="line"/>
      <point x="270" y="435" type="line"/>
      <point x="351" y="417" type="line"/>
      <point x="351" y="414" type="line"/>
      <point x="218" y="42" type="line"/>
      <point x="152" y="-99" type="line" smooth="yes"/>
      <point x="124" y="-159"/>
      <point x="113" y="-179"/>
    </contour>
  </outline>
</glyph>
<glyph name="z" format="1">
  <advance width="452"/>
  <unicode hex="007A"/>
  <outline>
    <contour>
      <point x="70" y="0" type="line"/>
      <point x="377" y="0" type="line"/>
      <point x="377" y="121" type="line"/>
      <point x="360" y="121" type="line"/>
      <point x="326" y="8" type="line"/>
      <point x="351" y="24" type="line"/>
      <point x="117" y="24" type="line"/>
      <point x="117" y="3" type="line"/>
      <point x="369" y="433" type="line"/>
      <point x="369" y="450" type="line"/>
      <point x="139" y="450" type="line" smooth="yes"/>
      <point x="123" y="450"/>
      <point x="99" y="455"/>
      <point x="84" y="458" type="curve"/>
      <point x="80" y="458" type="line"/>
      <point x="69" y="326" type="line"/>
      <point x="85" y="326" type="line"/>
      <point x="133" y="440" type="line"/>
      <point x="105" y="426" type="line"/>
      <point x="321" y="426" type="line"/>
      <point x="321" y="446" type="line"/>
      <point x="70" y="17" type="line"/>
    </contour>
    <contour>
      <point x="225" y="510" type="move" name="top"/>
    </contour>
    <contour>
      <point x="225" y="0" type="move" name="bottom"/>
    </contour>
  </outline>
</glyph>
<glyph name="braceleft" format="1">
  <advance width="230"/>
  <unicode hex="007B"/>
  <outline>
    <contour>
      <point x="206" y="-150" type="curve" smooth="yes"/>
      <point x="225" y="-150" type="line"/>
      <point x="225" y="-132" type="line"/>
      <point x="198" y="-132" type="line" smooth="yes"/>
      <point x="132" y="-132"/>
      <point x="100" y="-93"/>
      <point x="100" y="-35" type="curve" smooth="yes"/>
      <point x="100" y="43"/>
      <point x="145" y="108"/>
      <point x="145" y="177" type="curve" smooth="yes"/>
      <point x="145" y="226"/>
      <point x="132" y="271"/>
      <point x="81" y="295" type="curve"/>
      <point x="132" y="319"/>
      <point x="145" y="364"/>
      <point x="145" y="413" type="curve" smooth="yes"/>
      <point x="145" y="482"/>
      <point x="100" y="547"/>
      <point x="100" y="625" type="curve" smooth="yes"/>
      <point x="100" y="683"/>
      <point x="132" y="722"/>
      <point x="198" y="722" type="curve" smooth="yes"/>
      <point x="225" y="722" type="line"/>
      <point x="225" y="740" type="line"/>
      <point x="206" y="740" type="line" smooth="yes"/>
      <point x="105" y="740"/>
      <point x="63" y="686"/>
      <point x="63" y="607" type="curve" smooth="yes"/>
      <point x="63" y="524"/>
      <point x="108" y="459"/>
      <point x="108" y="391" type="curve" smooth="yes"/>
      <point x="108" y="346"/>
      <point x="87" y="305"/>
      <point x="22" y="305" type="curve" smooth="yes"/>
      <point x="5" y="305" type="line"/>
      <point x="5" y="286" type="line"/>
      <point x="22" y="286" type="line" smooth="yes"/>
      <point x="87" y="286"/>
      <point x="108" y="245"/>
      <point x="108" y="199" type="curve" smooth="yes"/>
      <point x="108" y="131"/>
      <point x="63" y="66"/>
      <point x="63" y="-17" type="curve" smooth="yes"/>
      <point x="63" y="-96"/>
      <point x="105" y="-150"/>
    </contour>
  </outline>
</glyph>
<glyph name="bar" format="1">
  <advance width="230"/>
  <unicode hex="007C"/>
  <outline>
    <contour>
      <point x="100" y="-250" type="line"/>
      <point x="130" y="-250" type="line"/>
      <point x="130" y="750" type="line"/>
      <point x="100" y="750" type="line"/>
    </contour>
  </outline>
</glyph>
<glyph name="braceright" format="1">
  <advance width="230"/>
  <unicode hex="007D"/>
  <outline>
    <contour>
      <point x="24" y="-150" type="line" smooth="yes"/>
      <point x="125" y="-150"/>
      <point x="167" y="-96"/>
      <point x="167" y="-17" type="curve" smooth="yes"/>
      <point x="167" y="66"/>
      <point x="122" y="131"/>
      <point x="122" y="199" type="curve" smooth="yes"/>
      <point x="122" y="245"/>
      <point x="143" y="286"/>
      <point x="208" y="286" type="curve" smooth="yes"/>
      <point x="225" y="286" type="line"/>
      <point x="225" y="305" type="line"/>
      <point x="208" y="305" type="line" smooth="yes"/>
      <point x="143" y="305"/>
      <point x="122" y="346"/>
      <point x="122" y="391" type="curve" smooth="yes"/>
      <point x="122" y="459"/>
      <point x="167" y="524"/>
      <point x="167" y="607" type="curve" smooth="yes"/>
      <point x="167" y="686"/>
      <point x="125" y="740"/>
      <point x="24" y="740" type="curve" smooth="yes"/>
      <point x="5" y="740" type="line"/>
      <point x="5" y="722" type="line"/>
      <point x="32" y="722" type="line" smooth="yes"/>
      <point x="98" y="722"/>
      <point x="130" y="683"/>
      <point x="130" y="625" type="curve" smooth="yes"/>
      <point x="130" y="547"/>
      <point x="85" y="482"/>
      <point x="85" y="413" type="curve" smooth="yes"/>
      <point x="85" y="364"/>
      <point x="98" y="319"/>
      <point x="149" y="295" type="curve"/>
      <point x="98" y="271"/>
      <point x="85" y="226"/>
      <point x="85" y="177" type="curve" smooth="yes"/>
      <point x="85" y="108"/>
      <point x="130" y="43"/>
      <point x="130" y="-35" type="curve" smooth="yes"/>
      <point x="130" y="-93"/>
      <point x="98" y="-132"/>
      <point x="32" y="-132" type="curve" smooth="yes"/>
      <point x="5" y="-132" type="line"/>
      <point x="5" y="-150" type="line"/>
    </contour>
  </outline>
</glyph>
<glyph name="asciitilde" format="1">
  <advance width="500"/>
  <unicode hex="007E"/>
  <outline>
    <contour>
      <point x="40" y="201" type="curve"/>
      <point x="71" y="201" type="line"/>
      <point x="71" y="273"/>
      <point x="99" y="313"/>
      <point x="149" y="313" type="curve" smooth="yes"/>
      <point x="233" y="313"/>
      <point x="246" y="201"/>
      <point x="350" y="201" type="curve" smooth="yes"/>
      <point x="417" y="201"/>
      <point x="460" y="253"/>
      <point x="460" y="343" type="curve"/>
      <point x="429" y="343" type="line"/>
      <point x="429" y="271"/>
      <point x="401" y="231"/>
      <point x="351" y="231" type="curve" smooth="yes"/>
      <point x="267" y="231"/>
      <point x="254" y="343"/>
      <point x="150" y="343" type="curve" smooth="yes"/>
      <point x="83" y="343"/>
      <point x="40" y="291"/>
    </contour>
  </outline>
</glyph>
<glyph name="exclamdown" format="1">
  <advance width="250"/>
  <unicode hex="00A1"/>
  <outline>
    <contour>
      <point x="90" y="-205" type="line"/>
      <point x="160" y="-205" type="line"/>
      <point x="136" y="275" type="line"/>
      <point x="114" y="275" type="line"/>
    </contour>
    <contour>
      <point x="125" y="368" type="curve" smooth="yes"/>
      <point x="150" y="368"/>
      <point x="170" y="390"/>
      <point x="170" y="414" type="curve" smooth="yes"/>
      <point x="170" y="437"/>
      <point x="150" y="460"/>
      <point x="125" y="460" type="curve" smooth="yes"/>
      <point x="100" y="460"/>
      <point x="80" y="437"/>
      <point x="80" y="414" type="curve" smooth="yes"/>
      <point x="80" y="390"/>
      <point x="100" y="368"/>
    </contour>
  </outline>
</glyph>
<glyph name="cent" format="2">
  <advance width="500"/>
  <unicode hex="00A2"/>
  <outline>
    <contour>
      <point x="175" y="26" type="line"/>
      <point x="209" y="26" type="line"/>
      <point x="359" y="635" type="line"/>
      <point x="325" y="635" type="line"/>
    </contour>
    <contour>
      <point x="290" y="137" type="curve" smooth="yes"/>
      <point x="177" y="137"/>
      <point x="112" y="217"/>
      <point x="112" y="334" type="curve" smooth="yes"/>
      <point x="112" y="473"/>
      <point x="196" y="543"/>
      <point x="289" y="543" type="curve" smooth="yes"/>
      <point x="315" y="543"/>
      <point x="338" y="539"/>
      <point x="358" y="531" type="curve"/>
      <point x="322" y="547" type="line"/>
      <point x="400" y="452" type="line"/>
      <point x="428" y="473" type="line" smooth="yes"/>
      <point x="435" y="478"/>
      <point x="438" y="483"/>
      <point x="438" y="487" type="curve" smooth="yes"/>
      <point x="438" y="519"/>
      <point x="374" y="565"/>
      <point x="296" y="565" type="curve" smooth="yes"/>
      <point x="155" y="565"/>
      <point x="62" y="462"/>
      <point x="62" y="321" type="curve" smooth="yes"/>
      <point x="62" y="193"/>
      <point x="136" y="95"/>
      <point x="276" y="95" type="curve" smooth="yes"/>
      <point x="351" y="95"/>
      <point x="408" y="127"/>
      <point x="438" y="170" type="curve"/>
      <point x="438" y="192" type="line"/>
      <point x="435" y="192" type="line"/>
      <point x="404" y="159"/>
      <point x="352" y="137"/>
    </contour>
  </outline>
</glyph>
<glyph name="sterling" format="2">
  <advance width="500"/>
  <unicode hex="00A3"/>
  <outline>
    <contour>
      <point x="330" y="639" type="curve" smooth="yes"/>
      <point x="335" y="639"/>
      <point x="342" y="639"/>
      <point x="346" y="639" type="curve"/>
      <point x="320" y="650" type="line"/>
      <point x="402" y="577" type="line"/>
      <point x="418" y="595" type="line" smooth="yes"/>
      <point x="428" y="607"/>
      <point x="433" y="615"/>
      <point x="433" y="622" type="curve" smooth="yes"/>
      <point x="433" y="644"/>
      <point x="404" y="668"/>
      <point x="340" y="668" type="curve" smooth="yes"/>
      <point x="209" y="668"/>
      <point x="138" y="552"/>
      <point x="138" y="478" type="curve" smooth="yes"/>
      <point x="138" y="218" type="line" smooth="yes"/>
      <point x="138" y="150"/>
      <point x="128" y="117"/>
      <point x="94" y="67" type="curve" smooth="yes"/>
      <point x="62" y="20" type="line"/>
      <point x="62" y="0" type="line"/>
      <point x="413" y="0" type="line"/>
      <point x="423" y="147" type="line"/>
      <point x="402" y="147" type="line"/>
      <point x="372" y="47" type="line"/>
      <point x="96" y="47" type="line"/>
      <point x="83" y="11" type="line"/>
      <point x="139" y="90" type="line" smooth="yes"/>
      <point x="182" y="151"/>
      <point x="188" y="168"/>
      <point x="188" y="200" type="curve" smooth="yes"/>
      <point x="188" y="467" type="line" smooth="yes"/>
      <point x="188" y="575"/>
      <point x="237" y="639"/>
    </contour>
    <contour>
      <point x="48" y="319" type="line"/>
      <point x="359" y="319" type="line"/>
      <point x="359" y="349" type="line"/>
      <point x="48" y="349" type="line"/>
    </contour>
  </outline>
</glyph>
<glyph name="currency" format="1">
  <advance width="500"/>
  <unicode hex="00A4"/>
  <outline>
    <contour>
      <point x="40" y="83" type="line"/>
      <point x="61" y="62" type="line"/>
      <point x="152" y="153" type="line"/>
      <point x="179" y="131"/>
      <point x="213" y="118"/>
      <point x="250" y="118" type="curve" smooth="yes"/>
      <point x="287" y="118"/>
      <point x="321" y="131"/>
      <point x="348" y="153" type="curve"/>
      <point x="439" y="62" type="line"/>
      <point x="460" y="83" type="line"/>
      <point x="369" y="174" type="line"/>
      <point x="391" y="201"/>
      <point x="404" y="235"/>
      <point x="404" y="272" type="curve" smooth="yes"/>
      <point x="404" y="309"/>
      <point x="391" y="343"/>
      <point x="369" y="370" type="curve"/>
      <point x="460" y="461" type="line"/>
      <point x="439" y="482" type="line"/>
      <point x="348" y="391" type="line"/>
      <point x="321" y="413"/>
      <point x="287" y="426"/>
      <point x="250" y="426" type="curve" smooth="yes"/>
      <point x="213" y="426"/>
      <point x="179" y="413"/>
      <point x="152" y="391" type="curve"/>
      <point x="61" y="482" type="line"/>
      <point x="40" y="461" type="line"/>
      <point x="131" y="370" type="line"/>
      <point x="109" y="343"/>
      <point x="96" y="309"/>
      <point x="96" y="272" type="curve" smooth="yes"/>
      <point x="96" y="235"/>
      <point x="109" y="201"/>
      <point x="131" y="174" type="curve"/>
    </contour>
    <contour>
      <point x="250" y="144" type="curve" smooth="yes"/>
      <point x="180" y="144"/>
      <point x="127" y="199"/>
      <point x="127" y="272" type="curve" smooth="yes"/>
      <point x="127" y="345"/>
      <point x="180" y="400"/>
      <point x="250" y="400" type="curve" smooth="yes"/>
      <point x="320" y="400"/>
      <point x="373" y="345"/>
      <point x="373" y="272" type="curve" smooth="yes"/>
      <point x="373" y="199"/>
      <point x="320" y="144"/>
    </contour>
  </outline>
</glyph>
<glyph name="yen" format="1">
  <advance width="500"/>
  <unicode hex="00A5"/>
  <outline>
    <contour>
      <point x="136" y="0" type="line"/>
      <point x="359" y="0" type="line"/>
      <point x="359" y="25" type="line"/>
      <point x="274" y="42" type="line"/>
      <point x="274" y="426" type="line"/>
      <point x="257" y="372" type="line"/>
      <point x="446" y="639" type="line"/>
      <point x="423" y="616" type="line"/>
      <point x="482" y="635" type="line"/>
      <point x="482" y="660" type="line"/>
      <point x="321" y="660" type="line"/>
      <point x="321" y="635" type="line"/>
      <point x="383" y="619" type="line"/>
      <point x="383" y="616" type="line"/>
      <point x="250" y="410" type="line"/>
      <point x="272" y="410" type="line"/>
      <point x="126" y="621" type="line"/>
      <point x="126" y="623" type="line"/>
      <point x="187" y="635" type="line"/>
      <point x="187" y="660" type="line"/>
      <point x="18" y="660" type="line"/>
      <point x="18" y="635" type="line"/>
      <point x="91" y="616" type="line"/>
      <point x="42" y="639" type="line"/>
      <point x="248" y="360" type="line"/>
      <point x="221" y="426" type="line"/>
      <point x="221" y="42" type="line"/>
      <point x="136" y="25" type="line"/>
    </contour>
    <contour>
      <point x="88" y="394" type="line"/>
      <point x="406" y="394" type="line"/>
      <point x="406" y="424" type="line"/>
      <point x="88" y="424" type="line"/>
    </contour>
    <contour>
      <point x="88" y="244" type="line"/>
      <point x="406" y="244" type="line"/>
      <point x="406" y="274" type="line"/>
      <point x="88" y="274" type="line"/>
    </contour>
  </outline>
</glyph>
<glyph name="brokenbar" format="1">
  <advance width="230"/>
  <unicode hex="00A6"/>
  <outline>
    <contour>
      <point x="100" y="350" type="line"/>
      <point x="130" y="350" type="line"/>
      <point x="130" y="750" type="line"/>
      <point x="100" y="750" type="line"/>
    </contour>
    <contour>
      <point x="100" y="-250" type="line"/>
      <point x="130" y="-250" type="line"/>
      <point x="130" y="150" type="line"/>
      <point x="100" y="150" type="line"/>
    </contour>
  </outline>
</glyph>
<glyph name="section" format="2">
  <advance width="463"/>
  <unicode hex="00A7"/>
  <outline>
    <contour>
      <point x="150" y="-91" type="curve"/>
      <point x="201" y="-106" type="line"/>
      <point x="112" y="-30" type="line"/>
      <point x="89" y="-58" type="line" smooth="yes"/>
      <point x="84" y="-64"/>
      <point x="83" y="-67"/>
      <point x="83" y="-72" type="curve" smooth="yes"/>
      <point x="83" y="-90"/>
      <point x="128" y="-119"/>
      <point x="181" y="-119" type="curve" smooth="yes"/>
      <point x="295" y="-119"/>
      <point x="383" y="-41"/>
      <point x="383" y="54" type="curve" smooth="yes"/>
      <point x="383" y="121"/>
      <point x="349" y="166"/>
      <point x="226" y="189" type="curve" smooth="yes"/>
      <point x="103" y="212"/>
      <point x="72" y="243"/>
      <point x="72" y="297" type="curve" smooth="yes"/>
      <point x="72" y="350"/>
      <point x="127" y="392"/>
      <point x="188" y="395" type="curve"/>
      <point x="215" y="425" type="line"/>
      <point x="101" y="412"/>
      <point x="32" y="355"/>
      <point x="32" y="276" type="curve" smooth="yes"/>
      <point x="32" y="209"/>
      <point x="71" y="168"/>
      <point x="192" y="146" type="curve" smooth="yes"/>
      <point x="313" y="124"/>
      <point x="345" y="88"/>
      <point x="345" y="29" type="curve" smooth="yes"/>
      <point x="345" y="-44"/>
      <point x="269" y="-94"/>
      <point x="185" y="-94" type="curve" smooth="yes"/>
      <point x="173" y="-94"/>
      <point x="162" y="-93"/>
    </contour>
    <contour>
      <point x="278" y="669" type="curve" smooth="yes"/>
      <point x="177" y="669"/>
      <point x="89" y="604"/>
      <point x="89" y="517" type="curve" smooth="yes"/>
      <point x="89" y="448"/>
      <point x="121" y="403"/>
      <point x="240" y="376" type="curve" smooth="yes"/>
      <point x="359" y="349"/>
      <point x="388" y="319"/>
      <point x="388" y="263" type="curve" smooth="yes"/>
      <point x="388" y="213"/>
      <point x="340" y="171"/>
      <point x="272" y="165" type="curve"/>
      <point x="245" y="135" type="line"/>
      <point x="368" y="149"/>
      <point x="428" y="205"/>
      <point x="428" y="283" type="curve" smooth="yes"/>
      <point x="428" y="351"/>
      <point x="394" y="390"/>
      <point x="276" y="416" type="curve" smooth="yes"/>
      <point x="158" y="442"/>
      <point x="131" y="475"/>
      <point x="131" y="531" type="curve" smooth="yes"/>
      <point x="131" y="598"/>
      <point x="195" y="644"/>
      <point x="273" y="644" type="curve" smooth="yes"/>
      <point x="284" y="644"/>
      <point x="295" y="643"/>
      <point x="306" y="641" type="curve"/>
      <point x="258" y="656" type="line"/>
      <point x="347" y="580" type="line"/>
      <point x="370" y="608" type="line" smooth="yes"/>
      <point x="375" y="614"/>
      <point x="376" y="617"/>
      <point x="376" y="622" type="curve" smooth="yes"/>
      <point x="376" y="640"/>
      <point x="331" y="669"/>
    </contour>
  </outline>
</glyph>
<glyph name="copyright" format="1">
  <advance width="806"/>
  <unicode hex="00A9"/>
  <outline>
    <contour>
      <point x="403" y="-10" type="curve" smooth="yes"/>
      <point x="594" y="-10"/>
      <point x="736" y="134"/>
      <point x="736" y="330" type="curve" smooth="yes"/>
      <point x="736" y="526"/>
      <point x="594" y="670"/>
      <point x="403" y="670" type="curve" smooth="yes"/>
      <point x="212" y="670"/>
      <point x="70" y="526"/>
      <point x="70" y="330" type="curve" smooth="yes"/>
      <point x="70" y="134"/>
      <point x="212" y="-10"/>
    </contour>
    <contour>
      <point x="403" y="17" type="curve" smooth="yes"/>
      <point x="230" y="17"/>
      <point x="101" y="149"/>
      <point x="101" y="330" type="curve" smooth="yes"/>
      <point x="101" y="511"/>
      <point x="230" y="643"/>
      <point x="403" y="643" type="curve" smooth="yes"/>
      <point x="576" y="643"/>
      <point x="705" y="511"/>
      <point x="705" y="330" type="curve" smooth="yes"/>
      <point x="705" y="149"/>
      <point x="576" y="17"/>
    </contour>
    <contour>
      <point x="418" y="129" type="curve" smooth="yes"/>
      <point x="470" y="129"/>
      <point x="510" y="142"/>
      <point x="543" y="159" type="curve"/>
      <point x="549" y="249" type="line"/>
      <point x="532" y="249" type="line"/>
      <point x="494" y="165" type="line"/>
      <point x="520" y="189" type="line"/>
      <point x="493" y="170"/>
      <point x="465" y="155"/>
      <point x="420" y="155" type="curve" smooth="yes"/>
      <point x="328.0" y="155.0"/>
      <point x="257.0" y="229.592391304"/>
      <point x="257" y="338" type="curve" smooth="yes"/>
      <point x="257.0" y="440.818181818"/>
      <point x="323.0" y="512.0"/>
      <point x="416" y="512" type="curve" smooth="yes"/>
      <point x="454" y="512"/>
      <point x="482" y="497"/>
      <point x="521" y="466" type="curve"/>
      <point x="490" y="503" type="line"/>
      <point x="525" y="417" type="line"/>
      <point x="543" y="417" type="line"/>
      <point x="540" y="511" type="line"/>
      <point x="501" y="530"/>
      <point x="472" y="540"/>
      <point x="421" y="540" type="curve" smooth="yes"/>
      <point x="308" y="540"/>
      <point x="215.0" y="447.305555556"/>
      <point x="215" y="327" type="curve" smooth="yes"/>
      <point x="215.0" y="214.292307692"/>
      <point x="290.0" y="129.0"/>
    </contour>
  </outline>
</glyph>
<glyph name="ordfeminine" format="1">
  <advance width="380"/>
  <unicode hex="00AA"/>
  <outline>
    <contour>
      <point x="140" y="417" type="curve" smooth="yes"/>
      <point x="175" y="417"/>
      <point x="198" y="431"/>
      <point x="216" y="449" type="curve"/>
      <point x="224" y="449" type="line"/>
      <point x="224" y="467" type="line"/>
      <point x="200" y="453"/>
      <point x="186" y="445"/>
      <point x="168" y="445" type="curve" smooth="yes"/>
      <point x="138" y="445"/>
      <point x="123" y="458"/>
      <point x="123" y="482" type="curve" smooth="yes"/>
      <point x="123" y="512"/>
      <point x="139" y="528"/>
      <point x="232" y="546" type="curve"/>
      <point x="232" y="566" type="line"/>
      <point x="162" y="548" type="line" smooth="yes"/>
      <point x="105" y="533"/>
      <point x="82" y="509"/>
      <point x="82" y="473" type="curve" smooth="yes"/>
      <point x="82" y="438"/>
      <point x="107" y="417"/>
    </contour>
    <contour>
      <point x="265" y="417" type="curve" smooth="yes"/>
      <point x="290" y="417"/>
      <point x="303" y="428"/>
      <point x="310" y="439" type="curve"/>
      <point x="310" y="441" type="line"/>
      <point x="309" y="442" type="line"/>
      <point x="281" y="442" type="line" smooth="yes"/>
      <point x="271" y="442"/>
      <point x="263" y="444"/>
      <point x="258" y="449" type="curve"/>
      <point x="258" y="611" type="line" smooth="yes"/>
      <point x="258" y="652"/>
      <point x="227" y="670"/>
      <point x="175" y="670" type="curve" smooth="yes"/>
      <point x="156" y="670"/>
      <point x="133" y="662"/>
      <point x="113" y="648" type="curve" smooth="yes"/>
      <point x="95" y="638"/>
      <point x="87" y="621"/>
      <point x="87" y="607" type="curve" smooth="yes"/>
      <point x="87" y="597"/>
      <point x="90" y="594"/>
      <point x="101" y="594" type="curve" smooth="yes"/>
      <point x="129" y="594" type="line"/>
      <point x="132" y="597" type="line"/>
      <point x="132" y="619" type="line" smooth="yes"/>
      <point x="132" y="638"/>
      <point x="141" y="651"/>
      <point x="168" y="651" type="curve" smooth="yes"/>
      <point x="198" y="651"/>
      <point x="217" y="631"/>
      <point x="217" y="602" type="curve" smooth="yes"/>
      <point x="217" y="452" type="line"/>
      <point x="218" y="452" type="line"/>
      <point x="220" y="434"/>
      <point x="234" y="417"/>
    </contour>
    <contour>
      <point x="83" y="303" type="line"/>
      <point x="297" y="303" type="line"/>
      <point x="297" y="333" type="line"/>
      <point x="83" y="333" type="line"/>
    </contour>
  </outline>
</glyph>
<glyph name="logicalnot" format="1">
  <advance width="500"/>
  <unicode hex="00AC"/>
  <outline>
    <contour>
      <point x="430" y="62" type="line"/>
      <point x="460" y="62" type="line"/>
      <point x="460" y="286" type="line"/>
      <point x="40" y="286" type="line"/>
      <point x="40" y="258" type="line"/>
      <point x="430" y="258" type="line"/>
    </contour>
  </outline>
</glyph>
<glyph name="registered" format="1">
  <advance width="540"/>
  <unicode hex="00AE"/>
  <outline>
    <contour>
      <point x="270" y="238" type="curve" smooth="yes"/>
      <point x="392" y="238"/>
      <point x="481" y="331"/>
      <point x="482" y="454" type="curve" smooth="yes"/>
      <point x="483" y="577"/>
      <point x="392" y="670"/>
      <point x="270" y="670" type="curve" smooth="yes"/>
      <point x="148" y="670"/>
      <point x="58" y="577"/>
      <point x="58" y="454" type="curve" smooth="yes"/>
      <point x="58" y="331"/>
      <point x="148" y="238"/>
    </contour>
    <contour>
      <point x="270" y="261" type="curve" smooth="yes"/>
      <point x="161" y="261"/>
      <point x="85" y="344"/>
      <point x="85" y="454" type="curve" smooth="yes"/>
      <point x="85" y="564"/>
      <point x="161" y="647"/>
      <point x="270" y="647" type="curve" smooth="yes"/>
      <point x="379" y="647"/>
      <point x="455" y="564"/>
      <point x="455" y="454" type="curve" smooth="yes"/>
      <point x="455" y="344"/>
      <point x="379" y="261"/>
    </contour>
    <contour>
      <point x="168" y="329" type="line"/>
      <point x="259" y="329" type="line"/>
      <point x="259" y="341" type="line"/>
      <point x="230" y="348" type="line"/>
      <point x="230" y="584" type="line"/>
      <point x="168" y="584" type="line"/>
      <point x="168" y="572" type="line"/>
      <point x="199" y="566" type="line"/>
      <point x="199" y="348" type="line"/>
      <point x="168" y="341" type="line"/>
    </contour>
    <contour>
      <point x="339" y="521" type="curve" smooth="yes"/>
      <point x="339" y="560"/>
      <point x="306" y="584"/>
      <point x="252" y="584" type="curve" smooth="yes"/>
      <point x="212" y="584" type="line"/>
      <point x="212" y="566" type="line"/>
      <point x="246" y="566" type="line" smooth="yes"/>
      <point x="283.0" y="566"/>
      <point x="305.0" y="545.807692308"/>
      <point x="305" y="516" type="curve" smooth="yes"/>
      <point x="305.0" y="489.12"/>
      <point x="282.0" y="468.0"/>
      <point x="249" y="468" type="curve"/>
      <point x="215" y="468" type="line"/>
      <point x="215" y="450" type="line"/>
      <point x="269" y="450" type="line"/>
      <point x="269" y="453" type="line"/>
      <point x="310" y="462"/>
      <point x="339" y="485"/>
    </contour>
    <contour>
      <point x="322" y="329" type="line"/>
      <point x="376" y="329" type="line"/>
      <point x="376" y="341" type="line"/>
      <point x="349" y="346" type="line"/>
      <point x="284" y="461" type="line"/>
      <point x="248" y="461" type="line"/>
    </contour>
  </outline>
</glyph>
<glyph name="degree" format="1">
  <advance width="500"/>
  <unicode hex="00B0"/>
  <outline>
    <contour>
      <point x="250" y="410" type="curve" smooth="yes"/>
      <point x="325" y="410"/>
      <point x="380" y="470"/>
      <point x="380" y="540" type="curve" smooth="yes"/>
      <point x="380" y="610"/>
      <point x="325" y="670"/>
      <point x="250" y="670" type="curve" smooth="yes"/>
      <point x="175" y="670"/>
      <point x="120" y="610"/>
      <point x="120" y="540" type="curve" smooth="yes"/>
      <point x="120" y="470"/>
      <point x="175" y="410"/>
    </contour>
    <contour>
      <point x="250" y="439" type="curve" smooth="yes"/>
      <point x="196" y="439"/>
      <point x="153" y="478"/>
      <point x="153" y="540" type="curve" smooth="yes"/>
      <point x="153" y="602"/>
      <point x="196" y="641"/>
      <point x="250" y="641" type="curve" smooth="yes"/>
      <point x="304" y="641"/>
      <point x="347" y="602"/>
      <point x="347" y="540" type="curve" smooth="yes"/>
      <point x="347" y="478"/>
      <point x="304" y="439"/>
    </contour>
  </outline>
</glyph>
<glyph name="plusminus" format="1">
  <advance width="500"/>
  <unicode hex="00B1"/>
  <outline>
    <contour>
      <point x="40" y="298" type="line"/>
      <point x="460" y="298" type="line"/>
      <point x="460" y="326" type="line"/>
      <point x="40" y="326" type="line"/>
    </contour>
    <contour>
      <point x="235" y="152" type="line"/>
      <point x="265" y="152" type="line"/>
      <point x="265" y="482" type="line"/>
      <point x="235" y="482" type="line"/>
    </contour>
    <contour>
      <point x="40" y="73" type="line"/>
      <point x="460" y="73" type="line"/>
      <point x="460" y="101" type="line"/>
      <point x="40" y="101" type="line"/>
    </contour>
  </outline>
</glyph>
<glyph name="paragraph" format="1">
  <advance width="435"/>
  <unicode hex="00B6"/>
  <outline>
    <contour>
      <point x="243" y="-110" type="line"/>
      <point x="277" y="-110" type="line"/>
      <point x="277" y="660" type="line"/>
      <point x="207" y="660" type="line" smooth="yes"/>
      <point x="104" y="660"/>
      <point x="35" y="615"/>
      <point x="35" y="514" type="curve" smooth="yes"/>
      <point x="35" y="425"/>
      <point x="109" y="359"/>
      <point x="210" y="359" type="curve" smooth="yes"/>
      <point x="243" y="359" type="line"/>
    </contour>
    <contour>
      <point x="333" y="-110" type="line"/>
      <point x="367" y="-110" type="line"/>
      <point x="367" y="618" type="line"/>
      <point x="445" y="635" type="line"/>
      <point x="445" y="660" type="line"/>
      <point x="333" y="660" type="line"/>
    </contour>
  </outline>
</glyph>
<glyph name="periodcentered" format="1">
  <advance width="250"/>
  <unicode hex="00B7"/>
  <outline>
    <contour>
      <point x="125" y="227" type="curve" smooth="yes"/>
      <point x="150" y="227"/>
      <point x="170" y="248"/>
      <point x="170" y="272" type="curve" smooth="yes"/>
      <point x="170" y="296"/>
      <point x="150" y="317"/>
      <point x="125" y="317" type="curve" smooth="yes"/>
      <point x="100" y="317"/>
      <point x="80" y="296"/>
      <point x="80" y="272" type="curve" smooth="yes"/>
      <point x="80" y="248"/>
      <point x="100" y="227"/>
    </contour>
  </outline>
</glyph>
<glyph name="ordmasculine" format="1">
  <advance width="384"/>
  <unicode hex="00BA"/>
  <outline>
    <contour>
      <point x="192" y="417" type="curve" smooth="yes"/>
      <point x="258" y="417"/>
      <point x="309" y="471"/>
      <point x="309" y="543" type="curve" smooth="yes"/>
      <point x="309" y="616"/>
      <point x="262" y="670"/>
      <point x="192" y="670" type="curve" smooth="yes"/>
      <point x="123" y="670"/>
      <point x="75" y="616"/>
      <point x="75" y="543" type="curve" smooth="yes"/>
      <point x="75" y="471"/>
      <point x="127" y="417"/>
    </contour>
    <contour>
      <point x="199" y="436" type="curve" smooth="yes"/>
      <point x="149" y="437"/>
      <point x="118" y="492"/>
      <point x="118" y="555" type="curve" smooth="yes"/>
      <point x="118" y="616"/>
      <point x="144" y="651"/>
      <point x="186" y="651" type="curve" smooth="yes"/>
      <point x="238" y="650"/>
      <point x="266" y="595"/>
      <point x="266" y="533" type="curve" smooth="yes"/>
      <point x="266" y="475"/>
      <point x="243" y="436"/>
    </contour>
    <contour>
      <point x="85" y="303" type="line"/>
      <point x="299" y="303" type="line"/>
      <point x="299" y="333" type="line"/>
      <point x="85" y="333" type="line"/>
    </contour>
  </outline>
</glyph>
<glyph name="questiondown" format="2">
  <advance width="470"/>
  <unicode hex="00BF"/>
  <outline>
    <contour>
      <point x="257" y="255" type="line"/>
      <point x="235" y="255" type="line"/>
      <point x="228" y="134" type="line"/>
      <point x="259" y="171" type="line"/>
      <point x="99" y="109"/>
      <point x="51" y="38"/>
      <point x="51" y="-45" type="curve" smooth="yes"/>
      <point x="51" y="-147"/>
      <point x="117" y="-215"/>
      <point x="218" y="-215" type="curve" smooth="yes"/>
      <point x="315" y="-215"/>
      <point x="413" y="-133"/>
      <point x="413" y="-70" type="curve" smooth="yes"/>
      <point x="413" y="-49"/>
      <point x="407" y="-44"/>
      <point x="388" y="-44" type="curve" smooth="yes"/>
      <point x="357" y="-44" type="line"/>
      <point x="357" y="-149" type="line"/>
      <point x="384" y="-117" type="line"/>
      <point x="355" y="-146"/>
      <point x="296" y="-179"/>
      <point x="233" y="-179" type="curve" smooth="yes"/>
      <point x="163" y="-179"/>
      <point x="111" y="-135"/>
      <point x="111" y="-46" type="curve" smooth="yes"/>
      <point x="111" y="36"/>
      <point x="160" y="85"/>
      <point x="270" y="123" type="curve"/>
    </contour>
    <contour>
      <point x="246" y="460" type="curve" smooth="yes"/>
      <point x="221" y="460"/>
      <point x="201" y="437"/>
      <point x="201" y="414" type="curve" smooth="yes"/>
      <point x="201" y="390"/>
      <point x="221" y="368"/>
      <point x="246" y="368" type="curve" smooth="yes"/>
      <point x="271" y="368"/>
      <point x="291" y="390"/>
      <point x="291" y="414" type="curve" smooth="yes"/>
      <point x="291" y="437"/>
      <point x="271" y="460"/>
    </contour>
  </outline>
</glyph>
<glyph name="AE" format="1">
  <advance width="919"/>
  <unicode hex="00C6"/>
  <outline>
    <contour>
      <point x="442" y="660" type="line"/>
      <point x="82" y="28" type="line"/>
      <point x="105" y="42" type="line"/>
      <point x="33" y="25" type="line"/>
      <point x="33" y="0" type="line"/>
      <point x="219" y="0" type="line"/>
      <point x="219" y="25" type="line"/>
      <point x="127" y="38" type="line"/>
      <point x="126" y="28" type="line"/>
      <point x="469" y="640" type="line"/>
      <point x="451" y="640" type="line"/>
      <point x="451" y="42" type="line"/>
      <point x="373" y="25" type="line"/>
      <point x="373" y="0" type="line"/>
      <point x="511" y="0" type="line"/>
      <point x="511" y="660" type="line"/>
    </contour>
    <contour>
      <point x="238" y="250" type="line"/>
      <point x="484" y="250" type="line"/>
      <point x="484" y="285" type="line"/>
      <point x="238" y="285" type="line"/>
    </contour>
    <contour>
      <point x="821" y="660" type="line"/>
      <point x="480" y="660" type="line"/>
      <point x="480" y="625" type="line"/>
      <point x="759" y="625" type="line"/>
      <point x="801" y="498" type="line"/>
      <point x="821" y="498" type="line"/>
    </contour>
    <contour>
      <point x="480" y="323" type="line"/>
      <point x="693" y="323" type="line"/>
      <point x="718" y="242" type="line"/>
      <point x="738" y="242" type="line"/>
      <point x="738" y="441" type="line"/>
      <point x="718" y="441" type="line"/>
      <point x="693" y="358" type="line"/>
      <point x="480" y="358" type="line"/>
    </contour>
    <contour>
      <point x="849" y="0" type="line"/>
      <point x="849" y="172" type="line"/>
      <point x="829" y="172" type="line"/>
      <point x="787" y="35" type="line"/>
      <point x="480" y="35" type="line"/>
      <point x="480" y="0" type="line"/>
    </contour>
    <contour>
      <point x="486" y="710" type="move" name="top"/>
    </contour>
  </outline>
</glyph>
<glyph name="Ccedilla" format="1">
  <advance width="714"/>
  <unicode hex="00C7"/>
  <outline>
    <contour>
      <point x="393" y="-10" type="curve" smooth="yes"/>
      <point x="501" y="-10"/>
      <point x="555" y="10"/>
      <point x="613" y="39" type="curve"/>
      <point x="622" y="188" type="line"/>
      <point x="602" y="188" type="line"/>
      <point x="548" y="62" type="line"/>
      <point x="573" y="78" type="line"/>
      <point x="528" y="47"/>
      <point x="482" y="22"/>
      <point x="407" y="22" type="curve" smooth="yes"/>
      <point x="247" y="22"/>
      <point x="125" y="155"/>
      <point x="125" y="352" type="curve" smooth="yes"/>
      <point x="125" y="509"/>
      <point x="239" y="639"/>
      <point x="402" y="639" type="curve" smooth="yes"/>
      <point x="465" y="639"/>
      <point x="512" y="613"/>
      <point x="576" y="562" type="curve"/>
      <point x="542" y="608" type="line"/>
      <point x="591" y="466" type="line"/>
      <point x="612" y="466" type="line"/>
      <point x="607" y="621" type="line"/>
      <point x="553" y="647"/>
      <point x="504" y="670"/>
      <point x="410" y="670" type="curve" smooth="yes"/>
      <point x="224" y="670"/>
      <point x="70" y="515"/>
      <point x="70" y="312" type="curve" smooth="yes"/>
      <point x="70" y="129"/>
      <point x="206" y="-10"/>
    </contour>
    <contour>
      <point x="388" y="-221" type="curve" smooth="yes"/>
      <point x="367" y="-221"/>
      <point x="346" y="-216"/>
      <point x="326" y="-205" type="curve"/>
      <point x="323" y="-205" type="line"/>
      <point x="323" y="-218" type="line"/>
      <point x="337" y="-230"/>
      <point x="364" y="-240"/>
      <point x="391" y="-240" type="curve" smooth="yes"/>
      <point x="447" y="-240"/>
      <point x="481" y="-208"/>
      <point x="481" y="-161" type="curve" smooth="yes"/>
      <point x="481" y="-105"/>
      <point x="421" y="-78"/>
      <point x="355" y="-61" type="curve"/>
      <point x="363" y="-71" type="line"/>
      <point x="413" y="10" type="line"/>
      <point x="392" y="10" type="line"/>
      <point x="331" y="-88" type="line"/>
      <point x="405" y="-108"/>
      <point x="450" y="-128"/>
      <point x="450" y="-171" type="curve" smooth="yes"/>
      <point x="450" y="-203"/>
      <point x="430" y="-221"/>
    </contour>
  </outline>
</glyph>
<glyph name="multiply" format="1">
  <advance width="500"/>
  <unicode hex="00D7"/>
  <outline>
    <contour>
      <point x="92" y="93" type="line"/>
      <point x="429" y="430" type="line"/>
      <point x="408" y="451" type="line"/>
      <point x="71" y="114" type="line"/>
    </contour>
    <contour>
      <point x="408" y="93" type="line"/>
      <point x="429" y="114" type="line"/>
      <point x="92" y="451" type="line"/>
      <point x="71" y="430" type="line"/>
    </contour>
  </outline>
</glyph>
<glyph name="Oslash" format="1">
  <advance width="767"/>
  <unicode hex="00D8"/>
  <outline>
    <contour>
      <point x="383" y="-10" type="curve" smooth="yes"/>
      <point x="564" y="-10"/>
      <point x="697" y="134"/>
      <point x="697" y="330" type="curve" smooth="yes"/>
      <point x="697" y="526"/>
      <point x="564" y="670"/>
      <point x="383" y="670" type="curve" smooth="yes"/>
      <point x="203" y="670"/>
      <point x="70" y="526"/>
      <point x="70" y="330" type="curve" smooth="yes"/>
      <point x="70" y="134"/>
      <point x="203" y="-10"/>
    </contour>
    <contour>
      <point x="404" y="20" type="curve" smooth="yes"/>
      <point x="252" y="20"/>
      <point x="132" y="156"/>
      <point x="132" y="363" type="curve" smooth="yes"/>
      <point x="132" y="533"/>
      <point x="229" y="641"/>
      <point x="366" y="641" type="curve" smooth="yes"/>
      <point x="516" y="641"/>
      <point x="635" y="506"/>
      <point x="635" y="299" type="curve" smooth="yes"/>
      <point x="635" y="129"/>
      <point x="541" y="20"/>
    </contour>
    <contour>
      <point x="70" y="-10" type="line"/>
      <point x="121" y="-10" type="line"/>
      <point x="697" y="670" type="line"/>
      <point x="646" y="670" type="line"/>
    </contour>
    <contour>
      <point x="384" y="710" type="move" name="top"/>
    </contour>
  </outline>
</glyph>
<glyph name="Thorn" format="1">
  <advance width="576"/>
  <unicode hex="00DE"/>
  <outline>
    <contour>
      <point x="65" y="0" type="line"/>
      <point x="281" y="0" type="line"/>
      <point x="281" y="25" type="line"/>
      <point x="203" y="42" type="line"/>
      <point x="203" y="618" type="line"/>
      <point x="281" y="635" type="line"/>
      <point x="281" y="660" type="line"/>
      <point x="65" y="660" type="line"/>
      <point x="65" y="635" type="line"/>
      <point x="143" y="618" type="line"/>
      <point x="143" y="42" type="line"/>
      <point x="65" y="25" type="line"/>
    </contour>
    <contour>
      <point x="250" y="161" type="line" smooth="yes"/>
      <point x="413" y="161"/>
      <point x="524" y="242"/>
      <point x="524" y="351" type="curve" smooth="yes"/>
      <point x="524" y="475"/>
      <point x="420" y="530"/>
      <point x="263" y="530" type="curve" smooth="yes"/>
      <point x="178" y="530" type="line"/>
      <point x="178" y="495" type="line"/>
      <point x="271" y="495" type="line" smooth="yes"/>
      <point x="384" y="495"/>
      <point x="457" y="450"/>
      <point x="457" y="343" type="curve" smooth="yes"/>
      <point x="457" y="256"/>
      <point x="383" y="196"/>
      <point x="278" y="196" type="curve" smooth="yes"/>
      <point x="178" y="196" type="line"/>
      <point x="178" y="161" type="line"/>
    </contour>
  </outline>
</glyph>
<glyph name="germandbls" format="1">
  <advance width="580"/>
  <unicode hex="00DF"/>
  <outline>
    <contour>
      <point x="64" y="0" type="line"/>
      <point x="177" y="0" type="line"/>
      <point x="177" y="552" type="line" smooth="yes"/>
      <point x="177" y="646"/>
      <point x="212" y="710"/>
      <point x="304" y="710" type="curve" smooth="yes"/>
      <point x="376" y="710"/>
      <point x="413" y="664"/>
      <point x="413" y="607" type="curve" smooth="yes"/>
      <point x="413" y="481"/>
      <point x="291" y="436"/>
      <point x="291" y="357" type="curve" smooth="yes"/>
      <point x="291.0" y="300.0"/>
      <point x="330.230798166" y="273.161328261"/>
      <point x="374" y="239" type="curve" smooth="yes"/>
      <point x="433.260350242" y="190.253582865"/>
      <point x="483.0" y="158.0"/>
      <point x="483" y="101" type="curve" smooth="yes"/>
      <point x="483.0" y="41.0"/>
      <point x="443" y="13"/>
      <point x="390" y="13" type="curve"/>
      <point x="345" y="13"/>
      <point x="302" y="21"/>
      <point x="284" y="76" type="curve" smooth="yes"/>
      <point x="269" y="123" type="line"/>
      <point x="257" y="123" type="line"/>
      <point x="257" y="20" type="line"/>
      <point x="301" y="-2"/>
      <point x="337" y="-10"/>
      <point x="387" y="-10" type="curve"/>
      <point x="462" y="-10"/>
      <point x="529.0" y="49.0"/>
      <point x="529" y="124" type="curve" smooth="yes"/>
      <point x="529.0" y="175.0"/>
      <point x="500.285641112" y="202.951134459"/>
      <point x="431" y="258" type="curve" smooth="yes"/>
      <point x="364.547176935" y="310.740335766"/>
      <point x="332.0" y="334.0"/>
      <point x="332" y="366" type="curve" smooth="yes"/>
      <point x="332" y="459"/>
      <point x="463" y="517"/>
      <point x="463" y="623" type="curve" smooth="yes"/>
      <point x="463" y="692"/>
      <point x="412" y="750"/>
      <point x="340" y="750" type="curve" smooth="yes"/>
      <point x="205" y="750"/>
      <point x="127" y="616"/>
      <point x="127" y="480" type="curve" smooth="yes"/>
      <point x="127" y="32" type="line"/>
      <point x="64" y="15" type="line"/>
    </contour>
    <contour>
      <point x="39" y="416" type="line"/>
      <point x="159" y="416" type="line"/>
      <point x="159" y="450" type="line"/>
      <point x="39" y="450" type="line"/>
    </contour>
  </outline>
</glyph>
<glyph name="ae" format="1">
  <advance width="726.0"/>
  <unicode hex="00E6"/>
  <outline>
    <contour>
      <point x="512.0" y="-10.0" type="curve" smooth="yes"/>
      <point x="587.0" y="-10.0"/>
      <point x="645.0" y="24.0"/>
      <point x="675.0" y="71.0" type="curve"/>
      <point x="675.0" y="84.0" type="line"/>
      <point x="672.0" y="84.0" type="line"/>
      <point x="643.0" y="52.0"/>
      <point x="588.0" y="32.0"/>
      <point x="526.0" y="32.0" type="curve" smooth="yes"/>
      <point x="411.0" y="32.0"/>
      <point x="345.0" y="112.0"/>
      <point x="345.0" y="229.0" type="curve" smooth="yes"/>
      <point x="345.0" y="360.0"/>
      <point x="412.0" y="438.0"/>
      <point x="488.0" y="438.0" type="curve" smooth="yes"/>
      <point x="571.0" y="438.0"/>
      <point x="609.0" y="379.0"/>
      <point x="621.0" y="279.0" type="curve"/>
      <point x="639.0" y="283.0" type="line"/>
      <point x="332.0" y="283.0" type="line"/>
      <point x="332.0" y="261.0" type="line"/>
      <point x="673.0" y="261.0" type="line"/>
      <point x="676.0" y="264.0" type="line"/>
      <point x="666.0" y="387.0"/>
      <point x="606.0" y="460.0"/>
      <point x="500.0" y="460.0" type="curve" smooth="yes"/>
      <point x="431.0" y="460.0"/>
      <point x="368" y="417"/>
      <point x="330" y="351" type="curve"/>
      <point x="345" y="351" type="line"/>
      <point x="345" y="426"/>
      <point x="296" y="460"/>
      <point x="216" y="460" type="curve" smooth="yes"/>
      <point x="183" y="460"/>
      <point x="145" y="441"/>
      <point x="109" y="418" type="curve" smooth="yes"/>
      <point x="75" y="397"/>
      <point x="58" y="369"/>
      <point x="58" y="343" type="curve" smooth="yes"/>
      <point x="58" y="324"/>
      <point x="63" y="319"/>
      <point x="84" y="319" type="curve" smooth="yes"/>
      <point x="110" y="319" type="line"/>
      <point x="115" y="324" type="line"/>
      <point x="115" y="365" type="line" smooth="yes"/>
      <point x="115" y="405"/>
      <point x="135" y="430"/>
      <point x="193" y="430" type="curve" smooth="yes"/>
      <point x="246" y="430"/>
      <point x="295" y="391"/>
      <point x="295" y="334" type="curve" smooth="yes"/>
      <point x="295" y="216" type="line" smooth="yes"/>
      <point x="295" y="88"/>
      <point x="370.0" y="-10.0"/>
    </contour>
    <contour>
      <point x="156" y="-10" type="curve" smooth="yes"/>
      <point x="232" y="-10"/>
      <point x="288" y="23"/>
      <point x="329" y="72" type="curve"/>
      <point x="342" y="72" type="line"/>
      <point x="342" y="93" type="line"/>
      <point x="293" y="53"/>
      <point x="238" y="30"/>
      <point x="186" y="30" type="curve" smooth="yes"/>
      <point x="130" y="30"/>
      <point x="98" y="57"/>
      <point x="98" y="112" type="curve" smooth="yes"/>
      <point x="98" y="170"/>
      <point x="133" y="198"/>
      <point x="327" y="237" type="curve"/>
      <point x="327" y="259" type="line"/>
      <point x="197" y="226" type="line" smooth="yes"/>
      <point x="90" y="199"/>
      <point x="48" y="158"/>
      <point x="48" y="94" type="curve" smooth="yes"/>
      <point x="48" y="29"/>
      <point x="94" y="-10"/>
    </contour>
    <contour>
      <point x="354.0" y="510.0" type="move" name="top"/>
    </contour>
  </outline>
</glyph>
<glyph name="ccedilla" format="1">
  <advance width="472"/>
  <unicode hex="00E7"/>
  <outline>
    <contour>
      <point x="264" y="-10" type="curve" smooth="yes"/>
      <point x="339" y="-10"/>
      <point x="397" y="24"/>
      <point x="427" y="71" type="curve"/>
      <point x="427" y="84" type="line"/>
      <point x="424" y="84" type="line"/>
      <point x="395" y="52"/>
      <point x="340" y="32"/>
      <point x="278" y="32" type="curve" smooth="yes"/>
      <point x="165" y="32"/>
      <point x="100" y="112"/>
      <point x="100" y="229" type="curve" smooth="yes"/>
      <point x="100" y="368"/>
      <point x="168" y="438"/>
      <point x="261" y="438" type="curve" smooth="yes"/>
      <point x="314" y="438"/>
      <point x="345" y="409"/>
      <point x="374" y="369" type="curve" smooth="yes"/>
      <point x="387" y="351" type="line"/>
      <point x="391" y="351" type="line"/>
      <point x="418" y="374" type="line" smooth="yes"/>
      <point x="423" y="378"/>
      <point x="425" y="382"/>
      <point x="425" y="387" type="curve" smooth="yes"/>
      <point x="425" y="398"/>
      <point x="413" y="411"/>
      <point x="393" y="425" type="curve" smooth="yes"/>
      <point x="367" y="443"/>
      <point x="325" y="460"/>
      <point x="272" y="460" type="curve" smooth="yes"/>
      <point x="143" y="460"/>
      <point x="50" y="357"/>
      <point x="50" y="216" type="curve" smooth="yes"/>
      <point x="50" y="88"/>
      <point x="124" y="-10"/>
    </contour>
    <contour>
      <point x="249" y="-221" type="curve" smooth="yes"/>
      <point x="228" y="-221"/>
      <point x="207" y="-216"/>
      <point x="187" y="-205" type="curve"/>
      <point x="184" y="-205" type="line"/>
      <point x="184" y="-218" type="line"/>
      <point x="198" y="-230"/>
      <point x="225" y="-240"/>
      <point x="252" y="-240" type="curve" smooth="yes"/>
      <point x="308" y="-240"/>
      <point x="342" y="-208"/>
      <point x="342" y="-161" type="curve" smooth="yes"/>
      <point x="342" y="-105"/>
      <point x="282" y="-78"/>
      <point x="216" y="-61" type="curve"/>
      <point x="224" y="-71" type="line"/>
      <point x="274" y="10" type="line"/>
      <point x="253" y="10" type="line"/>
      <point x="192" y="-88" type="line"/>
      <point x="266" y="-108"/>
      <point x="311" y="-128"/>
      <point x="311" y="-171" type="curve" smooth="yes"/>
      <point x="311" y="-203"/>
      <point x="291" y="-221"/>
    </contour>
  </outline>
</glyph>
<glyph name="eth" format="1">
  <advance width="510"/>
  <unicode hex="00F0"/>
  <outline>
    <contour>
      <point x="254" y="-10" type="curve" smooth="yes"/>
      <point x="394" y="-10"/>
      <point x="464" y="99"/>
      <point x="464" y="259" type="curve" smooth="yes"/>
      <point x="464" y="485"/>
      <point x="318" y="680"/>
      <point x="86" y="750" type="curve"/>
      <point x="86" y="733" type="line"/>
      <point x="271.04347793976933" y="667.984723967108"/>
      <point x="411.0" y="485.47222222222223"/>
      <point x="411" y="264" type="curve" smooth="yes"/>
      <point x="411" y="105"/>
      <point x="362" y="13"/>
      <point x="261" y="13" type="curve" smooth="yes"/>
      <point x="161" y="13"/>
      <point x="100" y="115"/>
      <point x="100" y="240" type="curve" smooth="yes"/>
      <point x="100" y="360"/>
      <point x="160" y="438"/>
      <point x="260" y="438" type="curve" smooth="yes"/>
      <point x="325" y="438"/>
      <point x="379" y="401"/>
      <point x="414" y="349" type="curve"/>
      <point x="393" y="423" type="line"/>
      <point x="361" y="441"/>
      <point x="323" y="460"/>
      <point x="265" y="460" type="curve" smooth="yes"/>
      <point x="137" y="460"/>
      <point x="50" y="367"/>
      <point x="50" y="225" type="curve" smooth="yes"/>
      <point x="50" y="92"/>
      <point x="133" y="-10"/>
    </contour>
    <contour>
      <point x="122" y="523" type="line"/>
      <point x="170" y="523" type="line"/>
      <point x="413" y="741" type="line"/>
      <point x="365" y="741" type="line"/>
    </contour>
  </outline>
</glyph>
<glyph name="divide" format="1">
  <advance width="500"/>
  <unicode hex="00F7"/>
  <outline>
    <contour>
      <point x="40" y="258" type="line"/>
      <point x="460" y="258" type="line"/>
      <point x="460" y="286" type="line"/>
      <point x="40" y="286" type="line"/>
    </contour>
    <contour>
      <point x="229" y="439" type="line"/>
      <point x="271" y="439" type="line"/>
      <point x="271" y="482" type="line"/>
      <point x="229" y="482" type="line"/>
    </contour>
    <contour>
      <point x="229" y="62" type="line"/>
      <point x="271" y="62" type="line"/>
      <point x="271" y="105" type="line"/>
      <point x="229" y="105" type="line"/>
    </contour>
  </outline>
</glyph>
<glyph name="oslash" format="1">
  <advance width="510"/>
  <unicode hex="00F8"/>
  <outline>
    <contour>
      <point x="255" y="-10" type="curve" smooth="yes"/>
      <point x="377" y="-10"/>
      <point x="460" y="91"/>
      <point x="460" y="225" type="curve" smooth="yes"/>
      <point x="460" y="359"/>
      <point x="377" y="460"/>
      <point x="255" y="460" type="curve" smooth="yes"/>
      <point x="133" y="460"/>
      <point x="50" y="359"/>
      <point x="50" y="225" type="curve" smooth="yes"/>
      <point x="50" y="91"/>
      <point x="133" y="-10"/>
    </contour>
    <contour>
      <point x="269" y="13" type="curve" smooth="yes"/>
      <point x="164" y="13"/>
      <point x="100" y="116"/>
      <point x="100" y="246" type="curve" smooth="yes"/>
      <point x="100" y="353"/>
      <point x="154" y="438"/>
      <point x="243" y="438" type="curve" smooth="yes"/>
      <point x="351" y="438"/>
      <point x="410" y="334"/>
      <point x="410" y="205" type="curve" smooth="yes"/>
      <point x="410" y="106"/>
      <point x="361" y="13"/>
    </contour>
    <contour>
      <point x="50" y="-10" type="line"/>
      <point x="91" y="-10" type="line"/>
      <point x="460" y="460" type="line"/>
      <point x="419" y="460" type="line"/>
    </contour>
    <contour>
      <point x="255" y="510" type="move" name="top"/>
    </contour>
  </outline>
</glyph>
<glyph name="thorn" format="1">
  <advance width="546"/>
  <unicode hex="00FE"/>
  <outline>
    <contour>
      <point x="58" y="-230" type="line"/>
      <point x="242" y="-230" type="line"/>
      <point x="242" y="-215" type="line"/>
      <point x="171" y="-198" type="line"/>
      <point x="171" y="750" type="line"/>
      <point x="161" y="750" type="line"/>
      <point x="48" y="731" type="line"/>
      <point x="48" y="716" type="line"/>
      <point x="121" y="702" type="line"/>
      <point x="121" y="-198" type="line"/>
      <point x="58" y="-215" type="line"/>
    </contour>
    <contour>
      <point x="264" y="-10" type="curve"/>
      <point x="392" y="-10"/>
      <point x="498" y="83"/>
      <point x="498" y="247" type="curve" smooth="yes"/>
      <point x="498" y="379"/>
      <point x="425" y="460"/>
      <point x="325" y="460" type="curve" smooth="yes"/>
      <point x="271" y="460"/>
      <point x="226" y="441"/>
      <point x="175" y="398" type="curve"/>
      <point x="161" y="398" type="line"/>
      <point x="161" y="367" type="line"/>
      <point x="199" y="404"/>
      <point x="244" y="426"/>
      <point x="298" y="426" type="curve" smooth="yes"/>
      <point x="375" y="426"/>
      <point x="451" y="366"/>
      <point x="451" y="231" type="curve" smooth="yes"/>
      <point x="451" y="75"/>
      <point x="380" y="16"/>
      <point x="299" y="16" type="curve" smooth="yes"/>
      <point x="248" y="16"/>
      <point x="209" y="31"/>
      <point x="166" y="60" type="curve"/>
      <point x="135" y="39" type="line"/>
      <point x="171" y="12"/>
      <point x="223" y="-10"/>
    </contour>
  </outline>
</glyph>
<glyph name="Aogonek" format="1">
  <advance width="709"/>
  <unicode hex="0104"/>
  <outline>
    <contour>
      <point x="330" y="588" type="line"/>
      <point x="552" y="29" type="line"/>
      <point x="554" y="39" type="line"/>
      <point x="463" y="25" type="line"/>
      <point x="463" y="0" type="line"/>
      <point x="676" y="0" type="line"/>
      <point x="676" y="25" type="line"/>
      <point x="576" y="47" type="line"/>
      <point x="620" y="28" type="line"/>
      <point x="362" y="665" type="line"/>
      <point x="341" y="665" type="line"/>
      <point x="82" y="28" type="line"/>
      <point x="105" y="42" type="line"/>
      <point x="33" y="25" type="line"/>
      <point x="33" y="0" type="line"/>
      <point x="219" y="0" type="line"/>
      <point x="219" y="25" type="line"/>
      <point x="127" y="38" type="line"/>
      <point x="126" y="28" type="line"/>
      <point x="341" y="588" type="line"/>
    </contour>
    <contour>
      <point x="196" y="250" type="line"/>
      <point x="484" y="250" type="line"/>
      <point x="484" y="285" type="line"/>
      <point x="196" y="285" type="line"/>
    </contour>
    <contour>
      <point x="533" y="-149" type="curve" smooth="yes"/>
      <point x="533" y="-98"/>
      <point x="561" y="-47"/>
      <point x="615" y="10" type="curve"/>
      <point x="597" y="10" type="line"/>
      <point x="535" y="-44"/>
      <point x="496" y="-98"/>
      <point x="496" y="-159" type="curve" smooth="yes"/>
      <point x="496" y="-212"/>
      <point x="534" y="-240"/>
      <point x="584" y="-240" type="curve" smooth="yes"/>
      <point x="618" y="-240"/>
      <point x="647" y="-226"/>
      <point x="660" y="-208" type="curve"/>
      <point x="660" y="-195" type="line"/>
      <point x="657" y="-195" type="line"/>
      <point x="638" y="-210"/>
      <point x="618" y="-216"/>
      <point x="597" y="-216" type="curve" smooth="yes"/>
      <point x="557" y="-216"/>
      <point x="533" y="-196"/>
    </contour>
  </outline>
</glyph>
<glyph name="aogonek" format="1">
  <advance width="452"/>
  <unicode hex="0105"/>
  <outline>
    <contour>
      <point x="156" y="-10" type="curve" smooth="yes"/>
      <point x="211" y="-10"/>
      <point x="261" y="16"/>
      <point x="296" y="50" type="curve"/>
      <point x="310" y="50" type="line"/>
      <point x="310" y="71" type="line"/>
      <point x="274" y="43"/>
      <point x="224" y="30"/>
      <point x="186" y="30" type="curve" smooth="yes"/>
      <point x="130" y="30"/>
      <point x="98" y="57"/>
      <point x="98" y="112" type="curve" smooth="yes"/>
      <point x="98" y="170"/>
      <point x="133" y="198"/>
      <point x="327" y="237" type="curve"/>
      <point x="327" y="259" type="line"/>
      <point x="197" y="226" type="line" smooth="yes"/>
      <point x="90" y="199"/>
      <point x="48" y="158"/>
      <point x="48" y="94" type="curve" smooth="yes"/>
      <point x="48" y="29"/>
      <point x="94" y="-10"/>
    </contour>
    <contour>
      <point x="375" y="-10" type="curve" smooth="yes"/>
      <point x="411" y="-10"/>
      <point x="432" y="8"/>
      <point x="441" y="22" type="curve"/>
      <point x="441" y="24" type="line"/>
      <point x="440" y="25" type="line"/>
      <point x="388" y="25" type="line" smooth="yes"/>
      <point x="369" y="25"/>
      <point x="356" y="31"/>
      <point x="345" y="40" type="curve"/>
      <point x="345" y="351" type="line" smooth="yes"/>
      <point x="345" y="426"/>
      <point x="296" y="460"/>
      <point x="216" y="460" type="curve" smooth="yes"/>
      <point x="183" y="460"/>
      <point x="145" y="441"/>
      <point x="109" y="418" type="curve" smooth="yes"/>
      <point x="75" y="397"/>
      <point x="58" y="369"/>
      <point x="58" y="343" type="curve" smooth="yes"/>
      <point x="58" y="324"/>
      <point x="63" y="319"/>
      <point x="84" y="319" type="curve" smooth="yes"/>
      <point x="110" y="319" type="line"/>
      <point x="115" y="324" type="line"/>
      <point x="115" y="365" type="line" smooth="yes"/>
      <point x="115" y="405"/>
      <point x="135" y="430"/>
      <point x="193" y="430" type="curve" smooth="yes"/>
      <point x="246" y="430"/>
      <point x="295" y="391"/>
      <point x="295" y="334" type="curve" smooth="yes"/>
      <point x="295" y="56" type="line"/>
      <point x="297" y="56" type="line"/>
      <point x="301" y="22"/>
      <point x="325" y="-10"/>
    </contour>
    <contour>
      <point x="365" y="-240" type="curve" smooth="yes"/>
      <point x="399" y="-240"/>
      <point x="428" y="-226"/>
      <point x="441" y="-208" type="curve"/>
      <point x="441" y="-195" type="line"/>
      <point x="438" y="-195" type="line"/>
      <point x="419" y="-210"/>
      <point x="399" y="-216"/>
      <point x="378" y="-216" type="curve" smooth="yes"/>
      <point x="338" y="-216"/>
      <point x="314" y="-196"/>
      <point x="314" y="-149" type="curve" smooth="yes"/>
      <point x="314" y="-98"/>
      <point x="342" y="-47"/>
      <point x="396" y="10" type="curve"/>
      <point x="378" y="10" type="line"/>
      <point x="316" y="-44"/>
      <point x="277" y="-98"/>
      <point x="277" y="-159" type="curve" smooth="yes"/>
      <point x="277" y="-212"/>
      <point x="315" y="-240"/>
    </contour>
  </outline>
</glyph>
<glyph name="Dcroat" format="1">
  <advance width="715"/>
  <unicode hex="0110"/>
  <outline>
    <contour>
      <point x="65" y="0" type="line"/>
      <point x="205" y="0" type="line"/>
      <point x="205" y="660" type="line"/>
      <point x="65" y="660" type="line"/>
      <point x="65" y="635" type="line"/>
      <point x="145" y="618" type="line"/>
      <point x="145" y="42" type="line"/>
      <point x="65" y="25" type="line"/>
    </contour>
    <contour>
      <point x="291" y="0" type="line" smooth="yes"/>
      <point x="508" y="0"/>
      <point x="645" y="138"/>
      <point x="645" y="360" type="curve" smooth="yes"/>
      <point x="645" y="532"/>
      <point x="519" y="660"/>
      <point x="298" y="660" type="curve" smooth="yes"/>
      <point x="152" y="660" type="line"/>
      <point x="152" y="625" type="line"/>
      <point x="305" y="625" type="line" smooth="yes"/>
      <point x="481" y="625"/>
      <point x="580" y="508"/>
      <point x="580" y="329" type="curve" smooth="yes"/>
      <point x="580" y="156"/>
      <point x="473" y="35"/>
      <point x="310" y="35" type="curve" smooth="yes"/>
      <point x="180" y="35" type="line"/>
      <point x="180" y="0" type="line"/>
    </contour>
    <contour>
      <point x="65" y="324" type="line"/>
      <point x="372" y="324" type="line"/>
      <point x="372" y="359" type="line"/>
      <point x="65" y="359" type="line"/>
    </contour>
  </outline>
</glyph>
<glyph name="eogonek" format="1">
  <advance width="481"/>
  <unicode hex="0119"/>
  <outline>
    <contour>
      <point x="267.0" y="-10.0" type="curve" smooth="yes"/>
      <point x="310.040816327" y="-10.0"/>
      <point x="348" y="1"/>
      <point x="381" y="22" type="curve"/>
      <point x="376" y="29" type="line"/>
      <point x="304" y="-32"/>
      <point x="261.0" y="-91.32"/>
      <point x="261" y="-159" type="curve" smooth="yes"/>
      <point x="261" y="-212"/>
      <point x="299" y="-240"/>
      <point x="349" y="-240" type="curve" smooth="yes"/>
      <point x="383" y="-240"/>
      <point x="412" y="-226"/>
      <point x="425" y="-208" type="curve"/>
      <point x="425" y="-195" type="line"/>
      <point x="422" y="-195" type="line"/>
      <point x="403" y="-210"/>
      <point x="383" y="-216"/>
      <point x="362" y="-216" type="curve" smooth="yes"/>
      <point x="322" y="-216"/>
      <point x="298" y="-196"/>
      <point x="298" y="-149" type="curve" smooth="yes"/>
      <point x="298" y="-95"/>
      <point x="321.0" y="-46.0"/>
      <point x="402.0" y="38.0" type="curve"/>
      <point x="413.0" y="48.0"/>
      <point x="422.0" y="59.0"/>
      <point x="430.0" y="71.0" type="curve"/>
      <point x="430.0" y="84.0" type="line"/>
      <point x="427.0" y="84.0" type="line"/>
      <point x="398.0" y="52.0"/>
      <point x="343.0" y="32.0"/>
      <point x="281.0" y="32.0" type="curve" smooth="yes"/>
      <point x="166.0" y="32.0"/>
      <point x="100.0" y="112.0"/>
      <point x="100.0" y="229.0" type="curve" smooth="yes"/>
      <point x="100.0" y="360.0"/>
      <point x="167.0" y="438.0"/>
      <point x="243.0" y="438.0" type="curve" smooth="yes"/>
      <point x="326.0" y="438.0"/>
      <point x="364.0" y="379.0"/>
      <point x="376.0" y="279.0" type="curve"/>
      <point x="394.0" y="283.0" type="line"/>
      <point x="87.0" y="283.0" type="line"/>
      <point x="87.0" y="261.0" type="line"/>
      <point x="428.0" y="261.0" type="line"/>
      <point x="431.0" y="264.0" type="line"/>
      <point x="421.0" y="387.0"/>
      <point x="361.0" y="460.0"/>
      <point x="255.0" y="460.0" type="curve" smooth="yes"/>
      <point x="145.0" y="460.0"/>
      <point x="50.0" y="351.0"/>
      <point x="50.0" y="216.0" type="curve" smooth="yes"/>
      <point x="50.0" y="88.0"/>
      <point x="125.0" y="-10.0"/>
    </contour>
  </outline>
</glyph>
<glyph name="Hbar" format="1">
  <advance width="784"/>
  <unicode hex="0126"/>
  <outline>
    <contour>
      <point x="65" y="0" type="line"/>
      <point x="289" y="0" type="line"/>
      <point x="289" y="25" type="line"/>
      <point x="203" y="42" type="line"/>
      <point x="203" y="618" type="line"/>
      <point x="289" y="635" type="line"/>
      <point x="289" y="660" type="line"/>
      <point x="65" y="660" type="line"/>
      <point x="65" y="635" type="line"/>
      <point x="143" y="618" type="line"/>
      <point x="143" y="42" type="line"/>
      <point x="65" y="25" type="line"/>
    </contour>
    <contour>
      <point x="180" y="323" type="line"/>
      <point x="610" y="323" type="line"/>
      <point x="610" y="358" type="line"/>
      <point x="180" y="358" type="line"/>
    </contour>
    <contour>
      <point x="495" y="0" type="line"/>
      <point x="719" y="0" type="line"/>
      <point x="719" y="25" type="line"/>
      <point x="641" y="42" type="line"/>
      <point x="641" y="618" type="line"/>
      <point x="719" y="635" type="line"/>
      <point x="719" y="660" type="line"/>
      <point x="495" y="660" type="line"/>
      <point x="495" y="635" type="line"/>
      <point x="581" y="618" type="line"/>
      <point x="581" y="42" type="line"/>
      <point x="495" y="25" type="line"/>
    </contour>
    <contour>
      <point x="65" y="477" type="line"/>
      <point x="719" y="477" type="line"/>
      <point x="719" y="512" type="line"/>
      <point x="65" y="512" type="line"/>
    </contour>
  </outline>
</glyph>
<glyph name="Iogonek" format="1">
  <advance width="356"/>
  <unicode hex="012E"/>
  <outline>
    <contour>
      <point x="70" y="0" type="line"/>
      <point x="286" y="0" type="line"/>
      <point x="286" y="25" type="line"/>
      <point x="208" y="42" type="line"/>
      <point x="208" y="618" type="line"/>
      <point x="286" y="635" type="line"/>
      <point x="286" y="660" type="line"/>
      <point x="70" y="660" type="line"/>
      <point x="70" y="635" type="line"/>
      <point x="148" y="618" type="line"/>
      <point x="148" y="42" type="line"/>
      <point x="70" y="25" type="line"/>
    </contour>
    <contour>
      <point x="166" y="-240" type="curve" smooth="yes"/>
      <point x="200" y="-240"/>
      <point x="229" y="-226"/>
      <point x="242" y="-208" type="curve"/>
      <point x="242" y="-195" type="line"/>
      <point x="239" y="-195" type="line"/>
      <point x="220" y="-210"/>
      <point x="200" y="-216"/>
      <point x="179" y="-216" type="curve" smooth="yes"/>
      <point x="139" y="-216"/>
      <point x="115" y="-196"/>
      <point x="115" y="-149" type="curve" smooth="yes"/>
      <point x="115" y="-98"/>
      <point x="143" y="-47"/>
      <point x="197" y="10" type="curve"/>
      <point x="179" y="10" type="line"/>
      <point x="117" y="-44"/>
      <point x="78" y="-98"/>
      <point x="78" y="-159" type="curve" smooth="yes"/>
      <point x="78" y="-212"/>
      <point x="116" y="-240"/>
    </contour>
  </outline>
</glyph>
<glyph name="iogonek" format="1">
  <advance width="302"/>
  <unicode hex="012F"/>
  <outline>
    <contour>
      <point x="64" y="0" type="line"/>
      <point x="248" y="0" type="line"/>
      <point x="248" y="15" type="line"/>
      <point x="177" y="32" type="line"/>
      <point x="177" y="460" type="line"/>
      <point x="167" y="460" type="line"/>
      <point x="54" y="446" type="line"/>
      <point x="54" y="431" type="line"/>
      <point x="127" y="412" type="line"/>
      <point x="127" y="32" type="line"/>
      <point x="64" y="15" type="line"/>
    </contour>
    <contour>
      <point x="138" y="618" type="curve" smooth="yes"/>
      <point x="160" y="618"/>
      <point x="176" y="634"/>
      <point x="176" y="656" type="curve" smooth="yes"/>
      <point x="176" y="678"/>
      <point x="160" y="694"/>
      <point x="138" y="694" type="curve" smooth="yes"/>
      <point x="116" y="694"/>
      <point x="100" y="678"/>
      <point x="100" y="656" type="curve" smooth="yes"/>
      <point x="100" y="634"/>
      <point x="116" y="618"/>
    </contour>
    <contour>
      <point x="152" y="-240" type="curve" smooth="yes"/>
      <point x="186" y="-240"/>
      <point x="215" y="-226"/>
      <point x="228" y="-208" type="curve"/>
      <point x="228" y="-195" type="line"/>
      <point x="225" y="-195" type="line"/>
      <point x="206" y="-210"/>
      <point x="186" y="-216"/>
      <point x="165" y="-216" type="curve" smooth="yes"/>
      <point x="125" y="-216"/>
      <point x="101" y="-196"/>
      <point x="101" y="-149" type="curve" smooth="yes"/>
      <point x="101" y="-98"/>
      <point x="129" y="-47"/>
      <point x="183" y="10" type="curve"/>
      <point x="165" y="10" type="line"/>
      <point x="103" y="-44"/>
      <point x="64" y="-98"/>
      <point x="64" y="-159" type="curve" smooth="yes"/>
      <point x="64" y="-212"/>
      <point x="102" y="-240"/>
    </contour>
  </outline>
</glyph>
<glyph name="idotless" format="2">
  <advance width="302"/>
  <unicode hex="0131"/>
  <anchor x="152" y="510" name="top"/>
  <anchor x="152" y="0" name="bottom"/>
  <anchor x="187" y="0" name="right"/>
  <outline>
    <contour>
      <point x="64" y="0" type="line"/>
      <point x="248" y="0" type="line"/>
      <point x="248" y="15" type="line"/>
      <point x="177" y="32" type="line"/>
      <point x="177" y="460" type="line"/>
      <point x="167" y="460" type="line"/>
      <point x="54" y="446" type="line"/>
      <point x="54" y="431" type="line"/>
      <point x="127" y="412" type="line"/>
      <point x="127" y="32" type="line"/>
      <point x="64" y="15" type="line"/>
    </contour>
  </outline>
</glyph>
<glyph name="kgreenlandic" format="1">
  <advance width="528"/>
  <unicode hex="0138"/>
  <outline>
    <contour>
      <point x="58" y="0" type="line"/>
      <point x="242" y="0" type="line"/>
      <point x="242" y="15" type="line"/>
      <point x="171" y="32" type="line"/>
      <point x="171" y="460" type="line"/>
      <point x="161" y="460" type="line"/>
      <point x="48" y="446" type="line"/>
      <point x="48" y="431" type="line"/>
      <point x="121" y="412" type="line"/>
      <point x="121" y="32" type="line"/>
      <point x="58" y="15" type="line"/>
    </contour>
    <contour>
      <point x="394" y="0" type="line"/>
      <point x="500" y="0" type="line"/>
      <point x="500" y="15" type="line"/>
      <point x="437" y="32" type="line"/>
      <point x="208" y="274" type="line"/>
      <point x="182" y="244" type="line"/>
      <point x="399" y="416" type="line"/>
      <point x="463" y="435" type="line"/>
      <point x="463" y="450" type="line"/>
      <point x="303" y="450" type="line"/>
      <point x="303" y="435" type="line"/>
      <point x="352" y="415" type="line"/>
      <point x="352" y="409" type="line"/>
      <point x="171" y="251" type="line"/>
      <point x="171" y="244" type="line"/>
      <point x="367" y="34" type="line"/>
    </contour>
  </outline>
</glyph>
<glyph name="Lslash" format="1">
  <advance width="611"/>
  <unicode hex="0141"/>
  <outline>
    <contour>
      <point x="65" y="0" type="line"/>
      <point x="541" y="0" type="line"/>
      <point x="541" y="212" type="line"/>
      <point x="521" y="212" type="line"/>
      <point x="474" y="35" type="line"/>
      <point x="203" y="35" type="line"/>
      <point x="203" y="618" type="line"/>
      <point x="293" y="635" type="line"/>
      <point x="293" y="660" type="line"/>
      <point x="65" y="660" type="line"/>
      <point x="65" y="635" type="line"/>
      <point x="143" y="618" type="line"/>
      <point x="143" y="42" type="line"/>
      <point x="65" y="25" type="line"/>
    </contour>
    <contour>
      <point x="65" y="227" type="line"/>
      <point x="154" y="288" type="line"/>
      <point x="182" y="299" type="line"/>
      <point x="354" y="416" type="line"/>
      <point x="354" y="460" type="line"/>
      <point x="181" y="343" type="line"/>
      <point x="155" y="333" type="line"/>
      <point x="65" y="271" type="line"/>
    </contour>
  </outline>
</glyph>
<glyph name="lslash" format="1">
  <advance width="282"/>
  <unicode hex="0142"/>
  <outline>
    <contour>
      <point x="54" y="0" type="line"/>
      <point x="238" y="0" type="line"/>
      <point x="238" y="15" type="line"/>
      <point x="167" y="32" type="line"/>
      <point x="167" y="750" type="line"/>
      <point x="157" y="750" type="line"/>
      <point x="44" y="736" type="line"/>
      <point x="44" y="721" type="line"/>
      <point x="117" y="702" type="line"/>
      <point x="117" y="32" type="line"/>
      <point x="54" y="15" type="line"/>
    </contour>
    <contour>
      <point x="54" y="295" type="line"/>
      <point x="133" y="347" type="line"/>
      <point x="153" y="357" type="line"/>
      <point x="238" y="415" type="line"/>
      <point x="238" y="450" type="line"/>
      <point x="153" y="392" type="line"/>
      <point x="133" y="382" type="line"/>
      <point x="54" y="330" type="line"/>
    </contour>
    <contour>
      <point x="142" y="765" type="move" name="top"/>
    </contour>
    <contour>
      <point x="264" y="740" type="move" name="right"/>
    </contour>
    <contour>
      <point x="282" y="300" type="move" name="mid"/>
    </contour>
    <contour>
      <point x="142" y="0" type="move" name="bottom"/>
    </contour>
  </outline>
</glyph>
<glyph name="Eng" format="2">
  <advance width="784"/>
  <unicode hex="014A"/>
  <outline>
    <contour>
      <point x="532" y="-211" type="curve"/>
      <point x="579" y="-180" type="line"/>
      <point x="451" y="-180" type="line"/>
      <point x="451" y="-209" type="line" smooth="yes"/>
      <point x="451" y="-233"/>
      <point x="455" y="-240"/>
      <point x="483" y="-240" type="curve" smooth="yes"/>
      <point x="587" y="-240"/>
      <point x="641" y="-153"/>
      <point x="641" y="-38" type="curve" smooth="yes"/>
      <point x="641" y="618" type="line"/>
      <point x="719" y="635" type="line"/>
      <point x="719" y="660" type="line"/>
      <point x="517" y="660" type="line"/>
      <point x="517" y="635" type="line"/>
      <point x="603" y="618" type="line"/>
      <point x="603" y="61" type="line"/>
      <point x="638" y="61" type="line"/>
      <point x="196" y="660" type="line"/>
      <point x="65" y="660" type="line"/>
      <point x="65" y="635" type="line"/>
      <point x="143" y="618" type="line"/>
      <point x="143" y="42" type="line"/>
      <point x="65" y="25" type="line"/>
      <point x="65" y="0" type="line"/>
      <point x="274" y="0" type="line"/>
      <point x="274" y="25" type="line"/>
      <point x="183" y="45" type="line"/>
      <point x="183" y="601" type="line"/>
      <point x="164" y="601" type="line"/>
      <point x="625" y="-13" type="line"/>
      <point x="603" y="35" type="line"/>
      <point x="603" y="-39" type="line" smooth="yes"/>
      <point x="603" y="-127"/>
      <point x="584" y="-172"/>
    </contour>
  </outline>
</glyph>
<glyph name="Eng" format="1">
  <advance width="784"/>
  <unicode hex="014A"/>
  <outline>
    <contour>
      <point x="65" y="0" type="line"/>
      <point x="274" y="0" type="line"/>
      <point x="274" y="25" type="line"/>
      <point x="183" y="45" type="line"/>
      <point x="183" y="601" type="line"/>
      <point x="164" y="601" type="line"/>
      <point x="625" y="-13" type="line"/>
      <point x="603" y="35" type="line"/>
      <point x="603" y="-39" type="line" smooth="yes"/>
      <point x="603" y="-144"/>
      <point x="573" y="-183"/>
      <point x="470" y="-183" type="curve" smooth="yes"/>
      <point x="426" y="-183" type="line"/>
      <point x="420" y="-189" type="line"/>
      <point x="420" y="-211" type="line" smooth="yes"/>
      <point x="420" y="-234"/>
      <point x="424" y="-240"/>
      <point x="457" y="-240" type="curve" smooth="yes"/>
      <point x="507" y="-240"/>
      <point x="549" y="-226"/>
      <point x="580" y="-200" type="curve" smooth="yes"/>
      <point x="615" y="-171"/>
      <point x="641" y="-128"/>
      <point x="641" y="-44" type="curve" smooth="yes"/>
      <point x="641" y="618" type="line"/>
      <point x="719" y="635" type="line"/>
      <point x="719" y="660" type="line"/>
      <point x="517" y="660" type="line"/>
      <point x="517" y="635" type="line"/>
      <point x="603" y="618" type="line"/>
      <point x="603" y="61" type="line"/>
      <point x="638" y="61" type="line"/>
      <point x="196" y="660" type="line"/>
      <point x="65" y="660" type="line"/>
      <point x="65" y="635" type="line"/>
      <point x="143" y="618" type="line"/>
      <point x="143" y="42" type="line"/>
      <point x="65" y="25" type="line"/>
    </contour>
  </outline>
</glyph>
<glyph name="eng" format="1">
  <advance width="561"/>
  <unicode hex="014B"/>
  <outline>
    <contour>
      <point x="58" y="0" type="line"/>
      <point x="242" y="0" type="line"/>
      <point x="242" y="15" type="line"/>
      <point x="171" y="32" type="line"/>
      <point x="171" y="380" type="line"/>
      <point x="166" y="460" type="line"/>
      <point x="156" y="460" type="line"/>
      <point x="48" y="436" type="line"/>
      <point x="48" y="421" type="line"/>
      <point x="121" y="412" type="line"/>
      <point x="121" y="32" type="line"/>
      <point x="58" y="15" type="line"/>
    </contour>
    <contour>
      <point x="307" y="-230" type="line"/>
      <point x="432" y="-173"/>
      <point x="461" y="-101"/>
      <point x="461" y="0" type="curve" smooth="yes"/>
      <point x="461" y="323" type="line" smooth="yes"/>
      <point x="461" y="413"/>
      <point x="401" y="460"/>
      <point x="317" y="460" type="curve" smooth="yes"/>
      <point x="263" y="460"/>
      <point x="222" y="438"/>
      <point x="173" y="388" type="curve"/>
      <point x="163" y="388" type="line"/>
      <point x="163" y="353" type="line"/>
      <point x="189" y="396"/>
      <point x="249" y="420"/>
      <point x="293" y="420" type="curve" smooth="yes"/>
      <point x="363" y="420"/>
      <point x="411" y="377"/>
      <point x="411" y="296" type="curve" smooth="yes"/>
      <point x="411" y="0" type="line" smooth="yes"/>
      <point x="411" y="-112"/>
      <point x="386" y="-173"/>
      <point x="307" y="-214" type="curve"/>
    </contour>
  </outline>
</glyph>
<glyph name="OE" format="1">
  <advance width="959"/>
  <unicode hex="0152"/>
  <outline>
    <contour>
      <point x="417" y="0" type="curve"/>
      <point x="551" y="0" type="line"/>
      <point x="551" y="660" type="line"/>
      <point x="424" y="660" type="line" smooth="yes"/>
      <point x="203" y="660"/>
      <point x="70" y="527"/>
      <point x="70" y="313" type="curve" smooth="yes"/>
      <point x="70" y="121"/>
      <point x="196" y="0"/>
    </contour>
    <contour>
      <point x="414" y="35" type="line" smooth="yes"/>
      <point x="235" y="35"/>
      <point x="135" y="134"/>
      <point x="135" y="329" type="curve" smooth="yes"/>
      <point x="135" y="509"/>
      <point x="242" y="625"/>
      <point x="405" y="625" type="curve" smooth="yes"/>
      <point x="506" y="625" type="line"/>
      <point x="491" y="646" type="line"/>
      <point x="491" y="16" type="line"/>
      <point x="510" y="35" type="line"/>
    </contour>
    <contour>
      <point x="861" y="498" type="line"/>
      <point x="861" y="660" type="line"/>
      <point x="520" y="660" type="line"/>
      <point x="520" y="625" type="line"/>
      <point x="799" y="625" type="line"/>
      <point x="841" y="498" type="line"/>
    </contour>
    <contour>
      <point x="778" y="242" type="line"/>
      <point x="778" y="441" type="line"/>
      <point x="758" y="441" type="line"/>
      <point x="733" y="358" type="line"/>
      <point x="520" y="358" type="line"/>
      <point x="520" y="323" type="line"/>
      <point x="733" y="323" type="line"/>
      <point x="758" y="242" type="line"/>
    </contour>
    <contour>
      <point x="889" y="0" type="line"/>
      <point x="889" y="172" type="line"/>
      <point x="869" y="172" type="line"/>
      <point x="827" y="35" type="line"/>
      <point x="520" y="35" type="line"/>
      <point x="520" y="0" type="line"/>
    </contour>
  </outline>
</glyph>
<glyph name="oe" format="1">
  <advance width="841"/>
  <unicode hex="0153"/>
  <outline>
    <contour>
      <point x="255" y="-10" type="curve" smooth="yes"/>
      <point x="343" y="-10"/>
      <point x="411" y="43"/>
      <point x="442" y="123" type="curve"/>
      <point x="425" y="123" type="line"/>
      <point x="454" y="43"/>
      <point x="522" y="-10"/>
      <point x="627" y="-10" type="curve" smooth="yes"/>
      <point x="702" y="-10"/>
      <point x="760" y="24"/>
      <point x="790" y="71" type="curve"/>
      <point x="790" y="84" type="line"/>
      <point x="787" y="84" type="line"/>
      <point x="758" y="52"/>
      <point x="703" y="32"/>
      <point x="641" y="32" type="curve" smooth="yes"/>
      <point x="526" y="32"/>
      <point x="460" y="112"/>
      <point x="460" y="229" type="curve" smooth="yes"/>
      <point x="460" y="360"/>
      <point x="527" y="438"/>
      <point x="603" y="438" type="curve" smooth="yes"/>
      <point x="686" y="438"/>
      <point x="724" y="379"/>
      <point x="736" y="279" type="curve"/>
      <point x="754" y="283" type="line"/>
      <point x="447" y="283" type="line"/>
      <point x="447" y="261" type="line"/>
      <point x="788" y="261" type="line"/>
      <point x="791" y="264" type="line"/>
      <point x="781" y="387"/>
      <point x="721" y="460"/>
      <point x="615" y="460" type="curve" smooth="yes"/>
      <point x="534" y="460"/>
      <point x="461" y="401"/>
      <point x="429" y="316" type="curve"/>
      <point x="446" y="316" type="line"/>
      <point x="417" y="402"/>
      <point x="347" y="460"/>
      <point x="255" y="460" type="curve" smooth="yes"/>
      <point x="133" y="460"/>
      <point x="50" y="359"/>
      <point x="50" y="225" type="curve" smooth="yes"/>
      <point x="50" y="91"/>
      <point x="133" y="-10"/>
    </contour>
    <contour>
      <point x="269" y="13" type="curve" smooth="yes"/>
      <point x="164" y="13"/>
      <point x="100" y="116"/>
      <point x="100" y="246" type="curve" smooth="yes"/>
      <point x="100" y="353"/>
      <point x="154" y="438"/>
      <point x="243" y="438" type="curve" smooth="yes"/>
      <point x="351" y="438"/>
      <point x="410" y="334"/>
      <point x="410" y="205" type="curve" smooth="yes"/>
      <point x="410" y="106"/>
      <point x="361" y="13"/>
    </contour>
  </outline>
</glyph>
<glyph name="Scedilla" format="1">
  <advance width="516"/>
  <unicode hex="015E"/>
  <outline>
    <contour>
      <point x="254" y="-10" type="curve" smooth="yes"/>
      <point x="357" y="-10"/>
      <point x="461" y="63"/>
      <point x="461" y="162" type="curve" smooth="yes"/>
      <point x="461" y="266"/>
      <point x="407" y="306"/>
      <point x="286" y="364" type="curve" smooth="yes"/>
      <point x="188" y="412"/>
      <point x="142" y="444"/>
      <point x="142" y="520" type="curve" smooth="yes"/>
      <point x="142" y="587"/>
      <point x="187" y="640"/>
      <point x="269" y="640" type="curve" smooth="yes"/>
      <point x="320" y="640"/>
      <point x="351" y="622"/>
      <point x="396" y="577" type="curve"/>
      <point x="364" y="626" type="line"/>
      <point x="418" y="478" type="line"/>
      <point x="436" y="478" type="line"/>
      <point x="426" y="628" type="line"/>
      <point x="374" y="654"/>
      <point x="329" y="670"/>
      <point x="270" y="670" type="curve" smooth="yes"/>
      <point x="175" y="670"/>
      <point x="85" y="582"/>
      <point x="85" y="497" type="curve" smooth="yes"/>
      <point x="85" y="409"/>
      <point x="131" y="372"/>
      <point x="218" y="328" type="curve" smooth="yes"/>
      <point x="330" y="272"/>
      <point x="402" y="251"/>
      <point x="402" y="156" type="curve" smooth="yes"/>
      <point x="402" y="70"/>
      <point x="356" y="21"/>
      <point x="267" y="21" type="curve" smooth="yes"/>
      <point x="215" y="21"/>
      <point x="167" y="32"/>
      <point x="112" y="81" type="curve"/>
      <point x="147" y="35" type="line"/>
      <point x="78" y="190" type="line"/>
      <point x="60" y="190" type="line"/>
      <point x="70" y="36" type="line"/>
      <point x="129" y="6"/>
      <point x="176" y="-10"/>
    </contour>
    <contour>
      <point x="258" y="-240" type="curve" smooth="yes"/>
      <point x="314" y="-240"/>
      <point x="348" y="-208"/>
      <point x="348" y="-161" type="curve" smooth="yes"/>
      <point x="348" y="-105"/>
      <point x="288" y="-78"/>
      <point x="222" y="-61" type="curve"/>
      <point x="230" y="-71" type="line"/>
      <point x="280" y="10" type="line"/>
      <point x="259" y="10" type="line"/>
      <point x="198" y="-88" type="line"/>
      <point x="272" y="-108"/>
      <point x="317" y="-128"/>
      <point x="317" y="-171" type="curve" smooth="yes"/>
      <point x="317" y="-203"/>
      <point x="297" y="-221"/>
      <point x="255" y="-221" type="curve" smooth="yes"/>
      <point x="234" y="-221"/>
      <point x="213" y="-216"/>
      <point x="193" y="-205" type="curve"/>
      <point x="190" y="-205" type="line"/>
      <point x="190" y="-218" type="line"/>
      <point x="204" y="-230"/>
      <point x="231" y="-240"/>
    </contour>
  </outline>
</glyph>
<glyph name="scedilla" format="1">
  <advance width="405"/>
  <unicode hex="015F"/>
  <outline>
    <contour>
      <point x="182" y="-10" type="curve" smooth="yes"/>
      <point x="276" y="-10"/>
      <point x="337" y="49"/>
      <point x="337" y="117" type="curve" smooth="yes"/>
      <point x="337" y="193"/>
      <point x="299" y="221"/>
      <point x="212" y="256" type="curve" smooth="yes"/>
      <point x="147" y="282"/>
      <point x="119" y="306"/>
      <point x="119" y="355" type="curve" smooth="yes"/>
      <point x="119" y="405"/>
      <point x="147" y="438"/>
      <point x="199" y="438" type="curve" smooth="yes"/>
      <point x="236" y="438"/>
      <point x="278" y="420"/>
      <point x="292" y="373" type="curve" smooth="yes"/>
      <point x="305" y="330" type="line"/>
      <point x="317" y="330" type="line"/>
      <point x="317" y="432" type="line"/>
      <point x="289" y="447"/>
      <point x="251" y="460"/>
      <point x="201" y="460" type="curve" smooth="yes"/>
      <point x="134" y="460"/>
      <point x="75" y="407"/>
      <point x="75" y="343" type="curve" smooth="yes"/>
      <point x="75" y="274"/>
      <point x="112" y="243"/>
      <point x="192" y="211" type="curve" smooth="yes"/>
      <point x="268" y="181"/>
      <point x="291" y="156"/>
      <point x="291" y="104" type="curve" smooth="yes"/>
      <point x="291" y="46"/>
      <point x="254" y="13"/>
      <point x="190" y="13" type="curve" smooth="yes"/>
      <point x="132" y="13"/>
      <point x="101" y="38"/>
      <point x="89" y="78" type="curve" smooth="yes"/>
      <point x="75" y="123" type="line"/>
      <point x="63" y="123" type="line"/>
      <point x="63" y="19" type="line"/>
      <point x="101" y="0"/>
      <point x="135" y="-10"/>
    </contour>
    <contour>
      <point x="191" y="-240" type="curve" smooth="yes"/>
      <point x="247" y="-240"/>
      <point x="281" y="-208"/>
      <point x="281" y="-161" type="curve" smooth="yes"/>
      <point x="281" y="-105"/>
      <point x="221" y="-78"/>
      <point x="155" y="-61" type="curve"/>
      <point x="163" y="-71" type="line"/>
      <point x="213" y="10" type="line"/>
      <point x="192" y="10" type="line"/>
      <point x="131" y="-88" type="line"/>
      <point x="205" y="-108"/>
      <point x="250" y="-128"/>
      <point x="250" y="-171" type="curve" smooth="yes"/>
      <point x="250" y="-203"/>
      <point x="230" y="-221"/>
      <point x="188" y="-221" type="curve" smooth="yes"/>
      <point x="167" y="-221"/>
      <point x="146" y="-216"/>
      <point x="126" y="-205" type="curve"/>
      <point x="123" y="-205" type="line"/>
      <point x="123" y="-218" type="line"/>
      <point x="137" y="-230"/>
      <point x="164" y="-240"/>
    </contour>
  </outline>
</glyph>
<glyph name="Tcedilla" format="1">
  <advance width="664"/>
  <unicode hex="0162"/>
  <outline>
    <contour>
      <point x="202" y="0" type="line"/>
      <point x="462" y="0" type="line"/>
      <point x="462" y="25" type="line"/>
      <point x="362" y="42" type="line"/>
      <point x="362" y="625" type="line"/>
      <point x="557" y="625" type="line"/>
      <point x="599" y="478" type="line"/>
      <point x="619" y="478" type="line"/>
      <point x="619" y="660" type="line"/>
      <point x="45" y="660" type="line"/>
      <point x="45" y="478" type="line"/>
      <point x="65" y="478" type="line"/>
      <point x="107" y="625" type="line"/>
      <point x="302" y="625" type="line"/>
      <point x="302" y="42" type="line"/>
      <point x="202" y="25" type="line"/>
    </contour>
    <contour>
      <point x="314" y="-240" type="curve" smooth="yes"/>
      <point x="370" y="-240"/>
      <point x="404" y="-208"/>
      <point x="404" y="-161" type="curve" smooth="yes"/>
      <point x="404" y="-105"/>
      <point x="344" y="-78"/>
      <point x="278" y="-61" type="curve"/>
      <point x="286" y="-71" type="line"/>
      <point x="336" y="10" type="line"/>
      <point x="315" y="10" type="line"/>
      <point x="254" y="-88" type="line"/>
      <point x="328" y="-108"/>
      <point x="373" y="-128"/>
      <point x="373" y="-171" type="curve" smooth="yes"/>
      <point x="373" y="-203"/>
      <point x="353" y="-221"/>
      <point x="311" y="-221" type="curve" smooth="yes"/>
      <point x="290" y="-221"/>
      <point x="269" y="-216"/>
      <point x="249" y="-205" type="curve"/>
      <point x="246" y="-205" type="line"/>
      <point x="246" y="-218" type="line"/>
      <point x="260" y="-230"/>
      <point x="287" y="-240"/>
    </contour>
  </outline>
</glyph>
<glyph name="tcedilla" format="1">
  <advance width="330"/>
  <unicode hex="0163"/>
  <outline>
    <contour>
      <point x="198" y="-10" type="curve" smooth="yes"/>
      <point x="254" y="-10"/>
      <point x="289" y="20"/>
      <point x="300" y="43" type="curve"/>
      <point x="300" y="47" type="line"/>
      <point x="299" y="48" type="line"/>
      <point x="278" y="36"/>
      <point x="254" y="29"/>
      <point x="225" y="29" type="curve" smooth="yes"/>
      <point x="184" y="29"/>
      <point x="156" y="50"/>
      <point x="156" y="91" type="curve" smooth="yes"/>
      <point x="156" y="416" type="line"/>
      <point x="288" y="416" type="line"/>
      <point x="288" y="450" type="line"/>
      <point x="156" y="450" type="line"/>
      <point x="156" y="560" type="line"/>
      <point x="145" y="560" type="line"/>
      <point x="112" y="450" type="line"/>
      <point x="18" y="425" type="line"/>
      <point x="18" y="416" type="line"/>
      <point x="106" y="416" type="line"/>
      <point x="106" y="89" type="line" smooth="yes"/>
      <point x="106" y="26"/>
      <point x="143" y="-10"/>
    </contour>
    <contour>
      <point x="192" y="-240" type="curve" smooth="yes"/>
      <point x="248" y="-240"/>
      <point x="282" y="-208"/>
      <point x="282" y="-161" type="curve" smooth="yes"/>
      <point x="282" y="-105"/>
      <point x="222" y="-78"/>
      <point x="156" y="-61" type="curve"/>
      <point x="164" y="-71" type="line"/>
      <point x="214" y="10" type="line"/>
      <point x="193" y="10" type="line"/>
      <point x="132" y="-88" type="line"/>
      <point x="206" y="-108"/>
      <point x="251" y="-128"/>
      <point x="251" y="-171" type="curve" smooth="yes"/>
      <point x="251" y="-203"/>
      <point x="231" y="-221"/>
      <point x="189" y="-221" type="curve" smooth="yes"/>
      <point x="168" y="-221"/>
      <point x="147" y="-216"/>
      <point x="127" y="-205" type="curve"/>
      <point x="124" y="-205" type="line"/>
      <point x="124" y="-218" type="line"/>
      <point x="138" y="-230"/>
      <point x="165" y="-240"/>
    </contour>
  </outline>
</glyph>
<glyph name="Tbar" format="1">
  <advance width="664"/>
  <unicode hex="0166"/>
  <outline>
    <contour>
      <point x="202" y="0" type="line"/>
      <point x="462" y="0" type="line"/>
      <point x="462" y="25" type="line"/>
      <point x="362" y="42" type="line"/>
      <point x="362" y="625" type="line"/>
      <point x="557" y="625" type="line"/>
      <point x="599" y="478" type="line"/>
      <point x="619" y="478" type="line"/>
      <point x="619" y="660" type="line"/>
      <point x="45" y="660" type="line"/>
      <point x="45" y="478" type="line"/>
      <point x="65" y="478" type="line"/>
      <point x="107" y="625" type="line"/>
      <point x="302" y="625" type="line"/>
      <point x="302" y="42" type="line"/>
      <point x="202" y="25" type="line"/>
    </contour>
    <contour>
      <point x="168" y="324" type="line"/>
      <point x="496" y="324" type="line"/>
      <point x="496" y="359" type="line"/>
      <point x="168" y="359" type="line"/>
    </contour>
  </outline>
</glyph>
<glyph name="tbar" format="1">
  <advance width="330"/>
  <unicode hex="0167"/>
  <outline>
    <contour>
      <point x="198" y="-10" type="curve" smooth="yes"/>
      <point x="254" y="-10"/>
      <point x="289" y="20"/>
      <point x="300" y="43" type="curve"/>
      <point x="300" y="47" type="line"/>
      <point x="299" y="48" type="line"/>
      <point x="278" y="36"/>
      <point x="254" y="29"/>
      <point x="225" y="29" type="curve" smooth="yes"/>
      <point x="184" y="29"/>
      <point x="156" y="50"/>
      <point x="156" y="91" type="curve" smooth="yes"/>
      <point x="156" y="416" type="line"/>
      <point x="288" y="416" type="line"/>
      <point x="288" y="450" type="line"/>
      <point x="156" y="450" type="line"/>
      <point x="156" y="560" type="line"/>
      <point x="145" y="560" type="line"/>
      <point x="112" y="450" type="line"/>
      <point x="18" y="425" type="line"/>
      <point x="18" y="416" type="line"/>
      <point x="106" y="416" type="line"/>
      <point x="106" y="89" type="line" smooth="yes"/>
      <point x="106" y="26"/>
      <point x="143" y="-10"/>
    </contour>
    <contour>
      <point x="28" y="243" type="line"/>
      <point x="278" y="243" type="line"/>
      <point x="278" y="272" type="line"/>
      <point x="28" y="272" type="line"/>
    </contour>
  </outline>
</glyph>
<glyph name="Uogonek" format="1">
  <advance width="779"/>
  <unicode hex="0172"/>
  <outline>
    <contour>
      <point x="390" y="-10" type="curve" smooth="yes"/>
      <point x="531" y="-10"/>
      <point x="635" y="63"/>
      <point x="635" y="238" type="curve" smooth="yes"/>
      <point x="635" y="619" type="line"/>
      <point x="714" y="635" type="line"/>
      <point x="714" y="660" type="line"/>
      <point x="496" y="660" type="line"/>
      <point x="496" y="635" type="line"/>
      <point x="596" y="620" type="line"/>
      <point x="596" y="227" type="line" smooth="yes"/>
      <point x="596" y="92"/>
      <point x="513" y="32"/>
      <point x="408" y="32" type="curve" smooth="yes"/>
      <point x="283" y="32"/>
      <point x="205" y="85"/>
      <point x="205" y="252" type="curve" smooth="yes"/>
      <point x="205" y="618" type="line"/>
      <point x="285" y="635" type="line"/>
      <point x="285" y="660" type="line"/>
      <point x="65" y="660" type="line"/>
      <point x="65" y="635" type="line"/>
      <point x="145" y="618" type="line"/>
      <point x="145" y="238" type="line" smooth="yes"/>
      <point x="145" y="63"/>
      <point x="249" y="-10"/>
    </contour>
    <contour>
      <point x="410" y="-240" type="curve" smooth="yes"/>
      <point x="444" y="-240"/>
      <point x="473" y="-226"/>
      <point x="486" y="-208" type="curve"/>
      <point x="486" y="-195" type="line"/>
      <point x="483" y="-195" type="line"/>
      <point x="464" y="-210"/>
      <point x="444" y="-216"/>
      <point x="423" y="-216" type="curve" smooth="yes"/>
      <point x="383" y="-216"/>
      <point x="359" y="-196"/>
      <point x="359" y="-149" type="curve" smooth="yes"/>
      <point x="359" y="-98"/>
      <point x="387" y="-47"/>
      <point x="441" y="10" type="curve"/>
      <point x="423" y="10" type="line"/>
      <point x="361" y="-44"/>
      <point x="322" y="-98"/>
      <point x="322" y="-159" type="curve" smooth="yes"/>
      <point x="322" y="-212"/>
      <point x="360" y="-240"/>
    </contour>
  </outline>
</glyph>
